{"glyphs":{"0":{"ha":833,"x_min":38,"x_max":796,"o":"m 417 -12 q 135 118 233 -12 q 38 496 38 249 q 135 869 38 739 q 417 999 233 999 q 698 869 600 999 q 796 496 796 739 q 698 118 796 249 q 417 -12 600 -12 m 417 183 q 513 256 483 183 q 542 496 542 329 q 513 731 542 658 q 417 803 483 803 q 321 731 350 803 q 292 496 292 658 q 321 256 292 329 q 417 183 350 183 z "},"1":{"ha":833,"x_min":128,"x_max":814,"o":"m 814 207 l 814 0 l 128 0 l 128 207 l 340 207 l 340 706 l 142 592 l 142 815 l 447 989 l 600 989 l 600 207 l 814 207 z "},"2":{"ha":835,"x_min":43,"x_max":776,"o":"m 776 207 l 776 0 l 79 0 l 79 192 l 401 528 q 492 704 492 622 q 378 800 492 800 q 255 777 319 800 q 125 711 190 754 l 43 896 q 198 973 103 944 q 392 1001 293 1001 q 578 967 499 1001 q 702 870 658 933 q 746 722 746 807 q 712 566 746 636 q 596 408 678 496 l 399 207 l 776 207 z "},"3":{"ha":833,"x_min":29,"x_max":772,"o":"m 593 510 q 726 422 679 485 q 772 269 772 360 q 726 120 772 183 q 592 23 679 57 q 388 -11 504 -11 q 185 17 283 -11 q 29 94 88 46 l 111 279 q 375 190 240 190 q 493 215 458 190 q 528 297 528 239 q 494 376 528 353 q 381 400 460 400 l 226 400 l 226 600 l 354 600 q 466 622 432 600 q 500 692 500 643 q 467 772 500 744 q 376 800 435 800 q 251 777 317 800 q 125 711 185 754 l 43 896 q 199 972 103 943 q 394 1001 296 1001 q 579 968 500 1001 q 702 873 658 935 q 746 729 746 811 q 707 594 747 651 q 593 510 667 538 z "},"4":{"ha":833,"x_min":38,"x_max":817,"o":"m 817 167 l 689 167 l 689 0 l 433 0 l 433 167 l 38 167 l 38 358 l 481 989 l 689 989 l 689 365 l 817 365 l 817 167 m 433 365 l 433 599 l 271 365 l 433 365 z "},"5":{"ha":833,"x_min":57,"x_max":800,"o":"m 483 649 q 647 608 575 649 q 760 496 719 568 q 800 329 800 424 q 751 149 800 226 q 610 31 701 72 q 399 -11 519 -11 q 208 18 303 -11 q 57 94 114 47 l 138 279 q 403 190 265 190 q 518 222 481 190 q 556 318 556 253 q 516 416 556 382 q 406 450 476 450 q 322 437 367 450 q 238 403 276 424 l 94 403 l 94 989 l 747 989 l 747 792 l 347 792 l 347 622 q 483 649 404 649 z "},"6":{"ha":833,"x_min":36,"x_max":799,"o":"m 501 651 q 653 610 586 651 q 759 495 721 568 q 797 329 797 422 q 753 153 797 231 q 629 31 708 75 q 450 -12 550 -12 q 144 117 251 -12 q 36 485 36 246 q 88 761 36 644 q 238 940 140 878 q 468 1001 335 1001 q 650 974 563 1001 q 799 896 738 946 l 717 711 q 593 778 654 757 q 481 800 532 800 q 297 554 314 800 q 383 625 329 599 q 501 651 438 651 m 436 188 q 522 224 490 188 q 554 318 554 260 q 523 415 554 379 q 436 450 492 450 q 351 414 383 450 q 318 318 318 378 q 351 224 318 261 q 436 188 383 188 z "},"7":{"ha":833,"x_min":50,"x_max":785,"o":"m 785 989 l 785 794 l 354 0 l 76 0 l 506 782 l 50 782 l 50 989 l 785 989 z "},"8":{"ha":833,"x_min":26,"x_max":807,"o":"m 607 510 q 754 424 701 485 q 807 272 807 363 q 757 121 807 185 q 619 23 707 57 q 417 -11 531 -11 q 215 23 303 -11 q 76 121 126 57 q 26 272 26 185 q 79 426 26 364 q 228 511 132 488 q 99 597 146 539 q 51 732 51 654 q 99 875 51 814 q 230 969 147 936 q 417 1001 313 1001 q 603 969 521 1001 q 734 875 686 936 q 782 732 782 814 q 734 594 782 653 q 607 510 686 535 m 417 806 q 328 780 363 806 q 294 701 294 754 q 417 579 294 610 q 539 701 539 610 q 505 780 539 754 q 417 806 471 806 m 417 185 q 525 213 483 185 q 567 293 567 240 q 526 376 567 344 q 417 421 486 408 q 307 376 347 408 q 267 293 267 344 q 308 213 267 240 q 417 185 350 185 z "},"9":{"ha":833,"x_min":35,"x_max":796,"o":"m 382 1001 q 688 872 581 1001 q 796 504 796 743 q 744 228 796 344 q 596 49 693 111 q 365 -12 499 -12 q 183 15 271 -12 q 35 93 96 43 l 117 278 q 353 189 240 189 q 536 435 519 189 q 450 363 504 389 q 331 338 396 338 q 178 379 246 338 q 73 494 111 421 q 35 660 35 567 q 79 836 35 758 q 203 958 124 914 q 382 1001 282 1001 m 397 539 q 483 575 450 539 q 515 671 515 611 q 482 765 515 728 q 397 801 449 801 q 311 765 343 801 q 279 671 279 729 q 310 574 279 610 q 397 539 342 539 z "},"\u0000":{"ha":0,"x_min":0,"x_max":0,"o":""},"\r":{"ha":403,"x_min":0,"x_max":0,"o":""}," ":{"ha":403,"x_min":0,"x_max":0,"o":""},"A":{"ha":1068,"x_min":-32,"x_max":1100,"o":"m 756 204 l 317 204 l 229 0 l -32 0 l 431 989 l 636 989 l 1100 0 l 843 0 l 756 204 m 671 400 l 536 713 l 401 400 l 671 400 z "},"Á":{"ha":1068,"x_min":-32,"x_max":1100,"o":"m 756 204 l 317 204 l 229 0 l -32 0 l 431 989 l 636 989 l 1100 0 l 843 0 l 756 204 m 671 400 l 536 713 l 401 400 l 671 400 m 457 1074 l 601 1293 l 826 1293 l 608 1074 l 457 1074 z "},"Ă":{"ha":1068,"x_min":-32,"x_max":1100,"o":"m 756 204 l 317 204 l 229 0 l -32 0 l 431 989 l 636 989 l 1100 0 l 843 0 l 756 204 m 671 400 l 536 713 l 401 400 l 671 400 m 533 1085 q 368 1125 436 1085 q 275 1239 300 1165 l 382 1285 q 533 1228 424 1228 q 683 1285 642 1228 l 790 1239 q 697 1125 765 1165 q 533 1085 629 1085 z "},"Ắ":{"ha":1068,"x_min":-32,"x_max":1100,"o":"m 756 204 l 317 204 l 229 0 l -32 0 l 431 989 l 636 989 l 1100 0 l 843 0 l 756 204 m 671 400 l 536 713 l 401 400 l 671 400 m 461 1225 l 601 1422 l 808 1422 l 604 1225 l 461 1225 m 533 1067 q 368 1107 436 1067 q 275 1221 300 1147 l 354 1254 q 427 1204 375 1224 q 533 1185 479 1185 q 638 1204 586 1185 q 711 1254 690 1224 l 790 1221 q 697 1107 765 1147 q 533 1067 629 1067 z "},"Ặ":{"ha":1068,"x_min":-32,"x_max":1100,"o":"m 756 204 l 317 204 l 229 0 l -32 0 l 431 989 l 636 989 l 1100 0 l 843 0 l 756 204 m 671 400 l 536 713 l 401 400 l 671 400 m 644 -79 l 644 -289 l 424 -289 l 424 -79 l 644 -79 m 533 1085 q 368 1125 436 1085 q 275 1239 300 1165 l 382 1285 q 533 1228 424 1228 q 683 1285 642 1228 l 790 1239 q 697 1125 765 1165 q 533 1085 629 1085 z "},"Ằ":{"ha":1068,"x_min":-32,"x_max":1100,"o":"m 756 204 l 317 204 l 229 0 l -32 0 l 431 989 l 636 989 l 1100 0 l 843 0 l 756 204 m 671 400 l 536 713 l 401 400 l 671 400 m 257 1422 l 464 1422 l 604 1225 l 461 1225 l 257 1422 m 533 1067 q 368 1107 436 1067 q 275 1221 300 1147 l 354 1254 q 427 1204 375 1224 q 533 1185 479 1185 q 638 1204 586 1185 q 711 1254 690 1224 l 790 1221 q 697 1107 765 1147 q 533 1067 629 1067 z "},"Ẳ":{"ha":1068,"x_min":-32,"x_max":1100,"o":"m 756 204 l 317 204 l 229 0 l -32 0 l 431 989 l 636 989 l 1100 0 l 843 0 l 756 204 m 671 400 l 536 713 l 401 400 l 671 400 m 590 1228 l 474 1228 l 474 1257 q 494 1297 474 1283 q 540 1318 514 1310 q 565 1329 565 1326 q 556 1341 565 1336 q 522 1346 546 1346 q 446 1331 488 1346 l 415 1406 q 557 1431 478 1431 q 668 1408 626 1431 q 710 1350 710 1386 q 692 1308 710 1322 q 640 1279 675 1294 q 601 1260 613 1268 q 590 1238 590 1253 l 590 1228 m 533 1067 q 368 1107 436 1067 q 275 1221 300 1147 l 354 1254 q 427 1204 375 1224 q 533 1185 479 1185 q 638 1204 586 1185 q 711 1254 690 1224 l 790 1221 q 697 1107 765 1147 q 533 1067 629 1067 z "},"Ẵ":{"ha":1068,"x_min":-32,"x_max":1100,"o":"m 756 204 l 317 204 l 229 0 l -32 0 l 431 989 l 636 989 l 1100 0 l 843 0 l 756 204 m 671 400 l 536 713 l 401 400 l 671 400 m 282 1281 q 330 1385 282 1343 q 444 1428 378 1428 q 546 1408 482 1428 q 625 1393 597 1393 q 665 1399 651 1393 q 683 1424 679 1406 l 783 1424 q 735 1319 783 1363 q 621 1276 688 1276 q 519 1296 583 1276 q 440 1311 468 1311 q 400 1305 414 1311 q 382 1281 386 1299 l 282 1281 m 533 1067 q 368 1107 436 1067 q 275 1221 300 1147 l 354 1254 q 427 1204 375 1224 q 533 1185 479 1185 q 638 1204 586 1185 q 711 1254 690 1224 l 790 1221 q 697 1107 765 1147 q 533 1067 629 1067 z "},"Â":{"ha":1068,"x_min":-32,"x_max":1100,"o":"m 756 204 l 317 204 l 229 0 l -32 0 l 431 989 l 636 989 l 1100 0 l 843 0 l 756 204 m 671 400 l 536 713 l 401 400 l 671 400 m 271 1074 l 464 1293 l 601 1293 l 794 1074 l 613 1074 l 533 1182 l 453 1074 l 271 1074 z "},"Ấ":{"ha":1068,"x_min":-32,"x_max":1100,"o":"m 756 204 l 317 204 l 229 0 l -32 0 l 431 989 l 636 989 l 1100 0 l 843 0 l 756 204 m 671 400 l 536 713 l 401 400 l 671 400 m 669 1225 l 760 1422 l 957 1422 l 786 1225 l 669 1225 m 271 1074 l 464 1263 l 601 1263 l 794 1074 l 617 1074 l 533 1156 l 449 1074 l 271 1074 z "},"Ậ":{"ha":1068,"x_min":-32,"x_max":1100,"o":"m 756 204 l 317 204 l 229 0 l -32 0 l 431 989 l 636 989 l 1100 0 l 843 0 l 756 204 m 671 400 l 536 713 l 401 400 l 671 400 m 644 -79 l 644 -289 l 424 -289 l 424 -79 l 644 -79 m 271 1074 l 464 1293 l 601 1293 l 794 1074 l 613 1074 l 533 1182 l 453 1074 l 271 1074 z "},"Ầ":{"ha":1068,"x_min":-32,"x_max":1100,"o":"m 756 204 l 317 204 l 229 0 l -32 0 l 431 989 l 636 989 l 1100 0 l 843 0 l 756 204 m 671 400 l 536 713 l 401 400 l 671 400 m 553 1422 l 751 1422 l 846 1225 l 729 1225 l 553 1422 m 271 1074 l 464 1263 l 601 1263 l 794 1074 l 617 1074 l 533 1156 l 449 1074 l 271 1074 z "},"Ẩ":{"ha":1068,"x_min":-32,"x_max":1100,"o":"m 756 204 l 317 204 l 229 0 l -32 0 l 431 989 l 636 989 l 1100 0 l 843 0 l 756 204 m 671 400 l 536 713 l 401 400 l 671 400 m 785 1228 l 668 1228 l 668 1257 q 688 1297 668 1283 q 734 1318 708 1310 q 760 1329 760 1326 q 750 1341 760 1336 q 718 1346 740 1346 q 640 1331 682 1346 l 610 1406 q 751 1431 672 1431 q 863 1408 821 1431 q 904 1350 904 1386 q 887 1308 904 1322 q 835 1279 869 1294 q 796 1260 807 1268 q 785 1238 785 1253 l 785 1228 m 271 1074 l 464 1263 l 601 1263 l 794 1074 l 617 1074 l 533 1156 l 449 1074 l 271 1074 z "},"Ẫ":{"ha":1068,"x_min":-32,"x_max":1100,"o":"m 756 204 l 317 204 l 229 0 l -32 0 l 431 989 l 636 989 l 1100 0 l 843 0 l 756 204 m 671 400 l 536 713 l 401 400 l 671 400 m 282 1289 q 330 1396 282 1353 q 444 1439 378 1439 q 495 1433 468 1439 q 546 1418 522 1426 q 625 1400 597 1400 q 665 1406 651 1400 q 683 1433 679 1413 l 783 1433 q 735 1327 783 1371 q 621 1283 688 1283 q 519 1306 583 1283 q 440 1324 468 1324 q 400 1317 414 1324 q 382 1289 386 1310 l 282 1289 m 271 1074 l 464 1263 l 601 1263 l 794 1074 l 617 1074 l 533 1156 l 449 1074 l 271 1074 z "},"Ȁ":{"ha":1068,"x_min":-32,"x_max":1100,"o":"m 756 204 l 317 204 l 229 0 l -32 0 l 431 989 l 636 989 l 1100 0 l 843 0 l 756 204 m 671 400 l 536 713 l 401 400 l 671 400 m 228 1293 l 386 1293 l 490 1074 l 368 1074 l 228 1293 m 433 1293 l 593 1293 l 697 1074 l 575 1074 l 433 1293 z "},"Ä":{"ha":1068,"x_min":-32,"x_max":1100,"o":"m 756 204 l 317 204 l 229 0 l -32 0 l 431 989 l 636 989 l 1100 0 l 843 0 l 756 204 m 671 400 l 536 713 l 401 400 l 671 400 m 504 1289 l 504 1079 l 282 1079 l 282 1289 l 504 1289 m 783 1289 l 783 1079 l 561 1079 l 561 1289 l 783 1289 z "},"Ạ":{"ha":1068,"x_min":-32,"x_max":1100,"o":"m 756 204 l 317 204 l 229 0 l -32 0 l 431 989 l 636 989 l 1100 0 l 843 0 l 756 204 m 671 400 l 536 713 l 401 400 l 671 400 m 644 -79 l 644 -289 l 424 -289 l 424 -79 l 644 -79 z "},"À":{"ha":1068,"x_min":-32,"x_max":1100,"o":"m 756 204 l 317 204 l 229 0 l -32 0 l 431 989 l 636 989 l 1100 0 l 843 0 l 756 204 m 671 400 l 536 713 l 401 400 l 671 400 m 239 1293 l 464 1293 l 608 1074 l 457 1074 l 239 1293 z "},"Ả":{"ha":1068,"x_min":-32,"x_max":1100,"o":"m 756 204 l 317 204 l 229 0 l -32 0 l 431 989 l 636 989 l 1100 0 l 843 0 l 756 204 m 671 400 l 536 713 l 401 400 l 671 400 m 590 1074 l 474 1074 l 474 1106 q 490 1143 474 1131 q 536 1168 507 1156 q 565 1188 565 1178 q 522 1210 565 1210 q 446 1196 489 1210 l 415 1274 q 557 1299 478 1299 q 667 1272 625 1299 q 710 1210 710 1246 q 691 1167 710 1183 q 640 1138 672 1151 q 602 1116 614 1125 q 590 1093 590 1107 l 590 1074 z "},"Ȃ":{"ha":1068,"x_min":-32,"x_max":1100,"o":"m 756 204 l 317 204 l 229 0 l -32 0 l 431 989 l 636 989 l 1100 0 l 843 0 l 756 204 m 671 400 l 536 713 l 401 400 l 671 400 m 533 1283 q 697 1243 629 1283 q 790 1129 765 1203 l 683 1085 q 533 1142 642 1142 q 382 1085 424 1142 l 275 1129 q 368 1243 300 1203 q 533 1283 436 1283 z "},"Ā":{"ha":1068,"x_min":-32,"x_max":1100,"o":"m 756 204 l 317 204 l 229 0 l -32 0 l 431 989 l 636 989 l 1100 0 l 843 0 l 756 204 m 671 400 l 536 713 l 401 400 l 671 400 m 310 1258 l 756 1258 l 756 1108 l 310 1108 l 310 1258 z "},"Ą":{"ha":1068,"x_min":-32,"x_max":1100,"o":"m 992 -154 q 1067 -139 1025 -154 l 1092 -251 q 942 -278 1022 -278 q 810 -235 863 -278 q 757 -122 757 -193 q 777 -42 757 -79 q 833 24 797 -4 l 756 204 l 317 204 l 229 0 l -32 0 l 431 989 l 636 989 l 1100 0 l 1010 0 q 939 -24 967 0 q 911 -85 911 -47 q 932 -137 911 -119 q 992 -154 953 -154 m 671 400 l 536 713 l 401 400 l 671 400 z "},"Å":{"ha":1068,"x_min":-32,"x_max":1100,"o":"m 756 204 l 317 204 l 229 0 l -32 0 l 426 981 q 390 1031 403 1001 q 376 1094 376 1061 q 423 1203 376 1158 q 535 1249 469 1249 q 647 1203 600 1249 q 693 1094 693 1158 q 679 1029 693 1060 q 642 978 665 999 l 1100 0 l 843 0 l 756 204 m 535 1154 q 493 1137 510 1154 q 476 1094 476 1119 q 493 1051 476 1069 q 535 1032 510 1032 q 576 1051 560 1032 q 593 1094 593 1069 q 576 1137 593 1119 q 535 1154 560 1154 m 671 400 l 536 713 l 401 400 l 671 400 z "},"Ǻ":{"ha":1068,"x_min":-32,"x_max":1100,"o":"m 756 204 l 317 204 l 229 0 l -32 0 l 426 981 q 390 1031 403 1001 q 376 1094 376 1061 q 423 1203 376 1158 q 535 1249 469 1249 q 594 1238 565 1249 l 678 1329 l 900 1329 l 683 1149 q 693 1094 693 1119 q 679 1029 693 1060 q 642 978 665 999 l 1100 0 l 843 0 l 756 204 m 535 1154 q 493 1137 510 1154 q 476 1094 476 1119 q 493 1051 476 1069 q 535 1032 510 1032 q 576 1051 560 1032 q 593 1094 593 1069 q 576 1137 593 1119 q 535 1154 560 1154 m 671 400 l 536 713 l 401 400 l 671 400 z "},"Ã":{"ha":1068,"x_min":-32,"x_max":1100,"o":"m 756 204 l 317 204 l 229 0 l -32 0 l 431 989 l 636 989 l 1100 0 l 843 0 l 756 204 m 671 400 l 536 713 l 401 400 l 671 400 m 282 1075 q 328 1242 282 1188 q 444 1297 374 1297 q 490 1288 468 1297 q 546 1260 513 1279 q 590 1236 572 1244 q 625 1228 608 1228 q 664 1244 649 1228 q 683 1293 679 1261 l 783 1293 q 738 1126 783 1181 q 621 1071 692 1071 q 575 1080 597 1071 q 519 1108 553 1089 q 475 1132 493 1124 q 440 1140 457 1140 q 401 1124 417 1140 q 382 1075 386 1107 l 282 1075 z "},"Æ":{"ha":1408,"x_min":-60,"x_max":1364,"o":"m 943 789 l 954 603 l 1335 603 l 1335 403 l 968 403 l 981 200 l 1364 200 l 1364 0 l 757 0 l 744 204 l 343 204 l 222 0 l -60 0 l 571 989 l 1364 989 l 1364 789 l 943 789 m 710 789 l 692 789 l 460 400 l 733 400 l 710 789 z "},"Ǽ":{"ha":1408,"x_min":-60,"x_max":1364,"o":"m 943 789 l 954 603 l 1335 603 l 1335 403 l 968 403 l 981 200 l 1364 200 l 1364 0 l 757 0 l 744 204 l 343 204 l 222 0 l -60 0 l 571 989 l 1364 989 l 1364 789 l 943 789 m 710 789 l 692 789 l 460 400 l 733 400 l 710 789 m 635 1074 l 779 1293 l 1004 1293 l 786 1074 l 635 1074 z "},"B":{"ha":975,"x_min":89,"x_max":936,"o":"m 754 513 q 889 424 842 488 q 936 271 936 361 q 893 128 936 189 q 770 33 850 67 q 582 0 690 0 l 89 0 l 89 989 l 569 989 q 817 919 725 989 q 908 732 908 850 q 868 597 908 656 q 754 513 828 539 m 343 601 l 525 601 q 631 624 597 601 q 664 694 664 646 q 630 768 664 744 q 525 792 596 792 l 343 792 l 343 601 m 551 197 q 659 221 626 197 q 692 300 692 244 q 660 381 692 357 q 551 404 628 404 l 343 404 l 343 197 l 551 197 z "},"C":{"ha":951,"x_min":63,"x_max":904,"o":"m 569 -12 q 301 51 415 -12 q 124 229 186 114 q 63 496 63 344 q 124 760 63 646 q 301 938 186 875 q 569 1001 415 1001 q 758 972 667 1001 q 904 893 849 943 l 825 708 q 575 796 704 796 q 392 720 456 796 q 328 496 328 644 q 392 269 328 346 q 575 193 456 193 q 825 281 704 193 l 904 96 q 758 17 849 46 q 569 -12 667 -12 z "},"Ć":{"ha":951,"x_min":63,"x_max":904,"o":"m 569 -12 q 301 51 415 -12 q 124 229 186 114 q 63 496 63 344 q 124 760 63 646 q 301 938 186 875 q 569 1001 415 1001 q 758 972 667 1001 q 904 893 849 943 l 825 708 q 575 796 704 796 q 392 720 456 796 q 328 496 328 644 q 392 269 328 346 q 575 193 456 193 q 825 281 704 193 l 904 96 q 758 17 849 46 q 569 -12 667 -12 m 482 1074 l 626 1293 l 851 1293 l 633 1074 l 482 1074 z "},"Č":{"ha":951,"x_min":63,"x_max":904,"o":"m 569 -12 q 301 51 415 -12 q 124 229 186 114 q 63 496 63 344 q 124 760 63 646 q 301 938 186 875 q 569 1001 415 1001 q 758 972 667 1001 q 904 893 849 943 l 825 708 q 575 796 704 796 q 392 720 456 796 q 328 496 328 644 q 392 269 328 346 q 575 193 456 193 q 825 281 704 193 l 904 96 q 758 17 849 46 q 569 -12 667 -12 m 819 1293 l 626 1074 l 489 1074 l 296 1293 l 478 1293 l 558 1183 l 638 1293 l 819 1293 z "},"Ç":{"ha":951,"x_min":63,"x_max":904,"o":"m 904 96 q 775 23 856 51 q 606 -11 694 -6 l 599 -56 l 610 -56 q 699 -82 667 -56 q 731 -153 731 -108 q 679 -244 731 -210 q 531 -278 628 -278 q 463 -272 500 -278 q 396 -254 426 -265 l 411 -164 q 522 -183 486 -183 q 582 -153 582 -183 q 538 -129 582 -129 q 493 -136 521 -129 l 465 -106 l 479 -7 q 256 78 350 11 q 113 253 163 146 q 63 496 63 360 q 124 760 63 646 q 301 938 186 875 q 569 1001 415 1001 q 758 972 667 1001 q 904 893 849 943 l 825 708 q 575 796 704 796 q 392 720 456 796 q 328 496 328 644 q 392 269 328 346 q 575 193 456 193 q 825 281 704 193 l 904 96 z "},"Ḉ":{"ha":951,"x_min":63,"x_max":904,"o":"m 633 1074 l 482 1074 l 626 1293 l 851 1293 l 633 1074 m 904 96 q 775 23 856 51 q 606 -11 694 -6 l 599 -56 l 610 -56 q 699 -82 667 -56 q 731 -153 731 -108 q 679 -244 731 -210 q 531 -278 628 -278 q 463 -272 500 -278 q 396 -254 426 -265 l 411 -164 q 522 -183 486 -183 q 582 -153 582 -183 q 538 -129 582 -129 q 493 -136 521 -129 l 465 -106 l 479 -7 q 256 78 350 11 q 113 253 163 146 q 63 496 63 360 q 124 760 63 646 q 301 938 186 875 q 569 1001 415 1001 q 758 972 667 1001 q 904 893 849 943 l 825 708 q 575 796 704 796 q 392 720 456 796 q 328 496 328 644 q 392 269 328 346 q 575 193 456 193 q 825 281 704 193 l 904 96 z "},"Ĉ":{"ha":951,"x_min":63,"x_max":904,"o":"m 569 -12 q 301 51 415 -12 q 124 229 186 114 q 63 496 63 344 q 124 760 63 646 q 301 938 186 875 q 569 1001 415 1001 q 758 972 667 1001 q 904 893 849 943 l 825 708 q 575 796 704 796 q 392 720 456 796 q 328 496 328 644 q 392 269 328 346 q 575 193 456 193 q 825 281 704 193 l 904 96 q 758 17 849 46 q 569 -12 667 -12 m 296 1074 l 489 1293 l 626 1293 l 819 1074 l 638 1074 l 558 1182 l 478 1074 l 296 1074 z "},"Ċ":{"ha":951,"x_min":63,"x_max":904,"o":"m 569 -12 q 301 51 415 -12 q 124 229 186 114 q 63 496 63 344 q 124 760 63 646 q 301 938 186 875 q 569 1001 415 1001 q 758 972 667 1001 q 904 893 849 943 l 825 708 q 575 796 704 796 q 392 720 456 796 q 328 496 328 644 q 392 269 328 346 q 575 193 456 193 q 825 281 704 193 l 904 96 q 758 17 849 46 q 569 -12 667 -12 m 689 1297 l 689 1071 l 426 1071 l 426 1297 l 689 1297 z "},"D":{"ha":1085,"x_min":89,"x_max":1021,"o":"m 89 989 l 493 989 q 776 930 657 989 q 958 760 894 871 q 1021 496 1021 649 q 958 230 1021 342 q 777 59 896 118 q 493 0 658 0 l 89 0 l 89 989 m 475 208 q 691 280 619 208 q 763 496 763 351 q 475 781 763 781 l 350 781 l 350 208 l 475 208 z "},"Ǆ":{"ha":1931,"x_min":89,"x_max":1882,"o":"m 89 989 l 493 989 q 776 930 657 989 q 958 760 894 871 q 1021 496 1021 649 q 958 230 1021 342 q 777 59 896 118 q 493 0 658 0 l 89 0 l 89 989 m 475 208 q 691 280 619 208 q 763 496 763 351 q 475 781 763 781 l 350 781 l 350 208 l 475 208 m 1882 204 l 1882 0 l 1138 0 l 1138 190 l 1574 785 l 1138 785 l 1138 989 l 1867 989 l 1867 801 l 1425 204 l 1882 204 m 1761 1293 l 1568 1074 l 1431 1074 l 1238 1293 l 1419 1293 l 1500 1183 l 1579 1293 l 1761 1293 z "},"Ð":{"ha":1136,"x_min":24,"x_max":1072,"o":"m 546 989 q 828 930 710 989 q 1009 760 946 871 q 1072 496 1072 649 q 1010 230 1072 342 q 828 59 947 118 q 546 0 710 0 l 140 0 l 140 401 l 24 401 l 24 596 l 140 596 l 140 989 l 546 989 m 526 208 q 742 280 671 208 q 813 496 813 351 q 526 781 813 781 l 401 781 l 401 596 l 657 596 l 657 401 l 401 401 l 401 208 l 526 208 z "},"Ď":{"ha":1085,"x_min":89,"x_max":1021,"o":"m 89 989 l 493 989 q 776 930 657 989 q 958 760 894 871 q 1021 496 1021 649 q 958 230 1021 342 q 777 59 896 118 q 493 0 658 0 l 89 0 l 89 989 m 475 208 q 691 280 619 208 q 763 496 763 351 q 475 781 763 781 l 350 781 l 350 208 l 475 208 m 803 1293 l 610 1074 l 472 1074 l 279 1293 l 461 1293 l 542 1183 l 621 1293 l 803 1293 z "},"Đ":{"ha":1136,"x_min":24,"x_max":1072,"o":"m 546 989 q 828 930 710 989 q 1009 760 946 871 q 1072 496 1072 649 q 1010 230 1072 342 q 828 59 947 118 q 546 0 710 0 l 140 0 l 140 401 l 24 401 l 24 596 l 140 596 l 140 989 l 546 989 m 526 208 q 742 280 671 208 q 813 496 813 351 q 526 781 813 781 l 401 781 l 401 596 l 657 596 l 657 401 l 401 401 l 401 208 l 526 208 z "},"Ḍ":{"ha":1085,"x_min":89,"x_max":1021,"o":"m 89 989 l 493 989 q 776 930 657 989 q 958 760 894 871 q 1021 496 1021 649 q 958 230 1021 342 q 777 59 896 118 q 493 0 658 0 l 89 0 l 89 989 m 475 208 q 691 280 619 208 q 763 496 763 351 q 475 781 763 781 l 350 781 l 350 208 l 475 208 m 651 -79 l 651 -289 l 431 -289 l 431 -79 l 651 -79 z "},"Ḏ":{"ha":1085,"x_min":89,"x_max":1021,"o":"m 89 989 l 493 989 q 776 930 657 989 q 958 760 894 871 q 1021 496 1021 649 q 958 230 1021 342 q 777 59 896 118 q 493 0 658 0 l 89 0 l 89 989 m 475 208 q 691 280 619 208 q 763 496 763 351 q 475 781 763 781 l 350 781 l 350 208 l 475 208 m 318 -114 l 764 -114 l 764 -254 l 318 -254 l 318 -114 z "},"ǅ":{"ha":1828,"x_min":89,"x_max":1785,"o":"m 89 989 l 493 989 q 776 930 657 989 q 958 760 894 871 q 1021 496 1021 649 q 958 230 1021 342 q 777 59 896 118 q 493 0 658 0 l 89 0 l 89 989 m 475 208 q 691 280 619 208 q 763 496 763 351 q 475 781 763 781 l 350 781 l 350 208 l 475 208 m 1785 186 l 1785 0 l 1150 0 l 1150 176 l 1469 521 l 1151 521 l 1151 706 l 1771 706 l 1771 540 l 1443 186 l 1785 186 m 1731 1085 l 1542 796 l 1396 796 l 1207 1085 l 1396 1085 l 1469 936 l 1542 1085 l 1731 1085 z "},"E":{"ha":839,"x_min":89,"x_max":794,"o":"m 89 989 l 794 989 l 794 789 l 343 789 l 343 603 l 765 603 l 765 403 l 343 403 l 343 200 l 794 200 l 794 0 l 89 0 l 89 989 z "},"É":{"ha":839,"x_min":89,"x_max":794,"o":"m 89 989 l 794 989 l 794 789 l 343 789 l 343 603 l 765 603 l 765 403 l 343 403 l 343 200 l 794 200 l 794 0 l 89 0 l 89 989 m 390 1074 l 535 1293 l 760 1293 l 542 1074 l 390 1074 z "},"Ĕ":{"ha":839,"x_min":89,"x_max":794,"o":"m 89 989 l 794 989 l 794 789 l 343 789 l 343 603 l 765 603 l 765 403 l 343 403 l 343 200 l 794 200 l 794 0 l 89 0 l 89 989 m 467 1085 q 301 1125 369 1085 q 208 1239 233 1165 l 315 1285 q 467 1228 357 1228 q 617 1285 575 1228 l 724 1239 q 631 1125 699 1165 q 467 1085 563 1085 z "},"Ě":{"ha":839,"x_min":89,"x_max":794,"o":"m 89 989 l 794 989 l 794 789 l 343 789 l 343 603 l 765 603 l 765 403 l 343 403 l 343 200 l 794 200 l 794 0 l 89 0 l 89 989 m 728 1293 l 535 1074 l 397 1074 l 204 1293 l 386 1293 l 467 1183 l 546 1293 l 728 1293 z "},"Ȩ":{"ha":839,"x_min":89,"x_max":794,"o":"m 343 789 l 343 603 l 765 603 l 765 403 l 343 403 l 343 200 l 794 200 l 794 0 l 515 0 l 507 -56 l 518 -56 q 607 -82 575 -56 q 639 -153 639 -108 q 588 -244 639 -210 q 439 -278 536 -278 q 372 -272 408 -278 q 304 -254 335 -265 l 319 -164 q 431 -183 394 -183 q 490 -153 490 -183 q 446 -129 490 -129 q 401 -136 429 -129 l 374 -106 l 388 0 l 89 0 l 89 989 l 794 989 l 794 789 l 343 789 z "},"Ḝ":{"ha":839,"x_min":89,"x_max":794,"o":"m 467 1085 q 301 1125 369 1085 q 208 1239 233 1165 l 315 1285 q 467 1228 357 1228 q 617 1285 575 1228 l 724 1239 q 631 1125 699 1165 q 467 1085 563 1085 m 343 789 l 343 603 l 765 603 l 765 403 l 343 403 l 343 200 l 794 200 l 794 0 l 515 0 l 507 -56 l 518 -56 q 607 -82 575 -56 q 639 -153 639 -108 q 588 -244 639 -210 q 439 -278 536 -278 q 372 -272 408 -278 q 304 -254 335 -265 l 319 -164 q 431 -183 394 -183 q 490 -153 490 -183 q 446 -129 490 -129 q 401 -136 429 -129 l 374 -106 l 388 0 l 89 0 l 89 989 l 794 989 l 794 789 l 343 789 z "},"Ê":{"ha":839,"x_min":89,"x_max":794,"o":"m 89 989 l 794 989 l 794 789 l 343 789 l 343 603 l 765 603 l 765 403 l 343 403 l 343 200 l 794 200 l 794 0 l 89 0 l 89 989 m 204 1074 l 397 1293 l 535 1293 l 728 1074 l 546 1074 l 467 1182 l 386 1074 l 204 1074 z "},"Ế":{"ha":839,"x_min":89,"x_max":890,"o":"m 89 989 l 794 989 l 794 789 l 343 789 l 343 603 l 765 603 l 765 403 l 343 403 l 343 200 l 794 200 l 794 0 l 89 0 l 89 989 m 603 1225 l 693 1422 l 890 1422 l 719 1225 l 603 1225 m 204 1074 l 397 1263 l 535 1263 l 728 1074 l 550 1074 l 467 1156 l 382 1074 l 204 1074 z "},"Ệ":{"ha":839,"x_min":89,"x_max":794,"o":"m 89 989 l 794 989 l 794 789 l 343 789 l 343 603 l 765 603 l 765 403 l 343 403 l 343 200 l 794 200 l 794 0 l 89 0 l 89 989 m 576 -79 l 576 -289 l 356 -289 l 356 -79 l 576 -79 m 204 1074 l 397 1293 l 535 1293 l 728 1074 l 546 1074 l 467 1182 l 386 1074 l 204 1074 z "},"Ề":{"ha":839,"x_min":89,"x_max":794,"o":"m 89 989 l 794 989 l 794 789 l 343 789 l 343 603 l 765 603 l 765 403 l 343 403 l 343 200 l 794 200 l 794 0 l 89 0 l 89 989 m 486 1422 l 685 1422 l 779 1225 l 663 1225 l 486 1422 m 204 1074 l 397 1263 l 535 1263 l 728 1074 l 550 1074 l 467 1156 l 382 1074 l 204 1074 z "},"Ể":{"ha":839,"x_min":89,"x_max":838,"o":"m 89 989 l 794 989 l 794 789 l 343 789 l 343 603 l 765 603 l 765 403 l 343 403 l 343 200 l 794 200 l 794 0 l 89 0 l 89 989 m 718 1228 l 601 1228 l 601 1257 q 622 1297 601 1283 q 667 1318 642 1310 q 693 1329 693 1326 q 683 1341 693 1336 q 651 1346 674 1346 q 574 1331 615 1346 l 543 1406 q 685 1431 606 1431 q 796 1408 754 1431 q 838 1350 838 1386 q 820 1308 838 1322 q 768 1279 803 1294 q 729 1260 740 1268 q 718 1238 718 1253 l 718 1228 m 204 1074 l 397 1263 l 535 1263 l 728 1074 l 550 1074 l 467 1156 l 382 1074 l 204 1074 z "},"Ễ":{"ha":839,"x_min":89,"x_max":794,"o":"m 89 989 l 794 989 l 794 789 l 343 789 l 343 603 l 765 603 l 765 403 l 343 403 l 343 200 l 794 200 l 794 0 l 89 0 l 89 989 m 215 1289 q 263 1396 215 1353 q 378 1439 311 1439 q 428 1433 401 1439 q 479 1418 456 1426 q 558 1400 531 1400 q 599 1406 585 1400 q 617 1433 613 1413 l 717 1433 q 669 1327 717 1371 q 554 1283 621 1283 q 453 1306 517 1283 q 374 1324 401 1324 q 333 1317 347 1324 q 315 1289 319 1310 l 215 1289 m 204 1074 l 397 1263 l 535 1263 l 728 1074 l 550 1074 l 467 1156 l 382 1074 l 204 1074 z "},"Ȅ":{"ha":839,"x_min":89,"x_max":794,"o":"m 89 989 l 794 989 l 794 789 l 343 789 l 343 603 l 765 603 l 765 403 l 343 403 l 343 200 l 794 200 l 794 0 l 89 0 l 89 989 m 161 1293 l 319 1293 l 424 1074 l 301 1074 l 161 1293 m 367 1293 l 526 1293 l 631 1074 l 508 1074 l 367 1293 z "},"Ë":{"ha":839,"x_min":89,"x_max":794,"o":"m 89 989 l 794 989 l 794 789 l 343 789 l 343 603 l 765 603 l 765 403 l 343 403 l 343 200 l 794 200 l 794 0 l 89 0 l 89 989 m 438 1289 l 438 1079 l 215 1079 l 215 1289 l 438 1289 m 717 1289 l 717 1079 l 494 1079 l 494 1289 l 717 1289 z "},"Ė":{"ha":839,"x_min":89,"x_max":794,"o":"m 89 989 l 794 989 l 794 789 l 343 789 l 343 603 l 765 603 l 765 403 l 343 403 l 343 200 l 794 200 l 794 0 l 89 0 l 89 989 m 597 1297 l 597 1071 l 335 1071 l 335 1297 l 597 1297 z "},"Ẹ":{"ha":839,"x_min":89,"x_max":794,"o":"m 89 989 l 794 989 l 794 789 l 343 789 l 343 603 l 765 603 l 765 403 l 343 403 l 343 200 l 794 200 l 794 0 l 89 0 l 89 989 m 576 -79 l 576 -289 l 356 -289 l 356 -79 l 576 -79 z "},"È":{"ha":839,"x_min":89,"x_max":794,"o":"m 89 989 l 794 989 l 794 789 l 343 789 l 343 603 l 765 603 l 765 403 l 343 403 l 343 200 l 794 200 l 794 0 l 89 0 l 89 989 m 172 1293 l 397 1293 l 542 1074 l 390 1074 l 172 1293 z "},"Ẻ":{"ha":839,"x_min":89,"x_max":794,"o":"m 89 989 l 794 989 l 794 789 l 343 789 l 343 603 l 765 603 l 765 403 l 343 403 l 343 200 l 794 200 l 794 0 l 89 0 l 89 989 m 524 1074 l 407 1074 l 407 1106 q 424 1143 407 1131 q 469 1168 440 1156 q 499 1188 499 1178 q 456 1210 499 1210 q 379 1196 422 1210 l 349 1274 q 490 1299 411 1299 q 601 1272 558 1299 q 643 1210 643 1246 q 624 1167 643 1183 q 574 1138 606 1151 q 535 1116 547 1125 q 524 1093 524 1107 l 524 1074 z "},"Ȇ":{"ha":839,"x_min":89,"x_max":794,"o":"m 89 989 l 794 989 l 794 789 l 343 789 l 343 603 l 765 603 l 765 403 l 343 403 l 343 200 l 794 200 l 794 0 l 89 0 l 89 989 m 467 1283 q 631 1243 563 1283 q 724 1129 699 1203 l 617 1085 q 467 1142 575 1142 q 315 1085 357 1142 l 208 1129 q 301 1243 233 1203 q 467 1283 369 1283 z "},"Ē":{"ha":839,"x_min":89,"x_max":794,"o":"m 89 989 l 794 989 l 794 789 l 343 789 l 343 603 l 765 603 l 765 403 l 343 403 l 343 200 l 794 200 l 794 0 l 89 0 l 89 989 m 243 1258 l 689 1258 l 689 1108 l 243 1108 l 243 1258 z "},"Ḗ":{"ha":839,"x_min":89,"x_max":794,"o":"m 89 989 l 794 989 l 794 789 l 343 789 l 343 603 l 765 603 l 765 403 l 343 403 l 343 200 l 794 200 l 794 0 l 89 0 l 89 989 m 243 1258 l 689 1258 l 689 1108 l 243 1108 l 243 1258 m 390 1299 l 535 1518 l 760 1518 l 542 1299 l 390 1299 z "},"Ḕ":{"ha":839,"x_min":89,"x_max":794,"o":"m 89 989 l 794 989 l 794 789 l 343 789 l 343 603 l 765 603 l 765 403 l 343 403 l 343 200 l 794 200 l 794 0 l 89 0 l 89 989 m 243 1258 l 689 1258 l 689 1108 l 243 1108 l 243 1258 m 172 1518 l 397 1518 l 542 1299 l 390 1299 l 172 1518 z "},"Ę":{"ha":839,"x_min":89,"x_max":851,"o":"m 851 -251 q 703 -278 785 -278 q 569 -234 621 -278 q 518 -122 518 -190 q 571 0 518 -49 l 89 0 l 89 989 l 794 989 l 794 789 l 343 789 l 343 603 l 765 603 l 765 403 l 343 403 l 343 200 l 794 200 l 794 0 l 760 0 q 697 -22 721 0 q 674 -85 674 -44 q 751 -154 674 -154 q 828 -139 786 -154 l 851 -251 z "},"Ẽ":{"ha":839,"x_min":89,"x_max":794,"o":"m 89 989 l 794 989 l 794 789 l 343 789 l 343 603 l 765 603 l 765 403 l 343 403 l 343 200 l 794 200 l 794 0 l 89 0 l 89 989 m 215 1075 q 261 1242 215 1188 q 378 1297 307 1297 q 424 1288 401 1297 q 479 1260 446 1279 q 524 1236 506 1244 q 558 1228 542 1228 q 597 1244 582 1228 q 617 1293 613 1261 l 717 1293 q 671 1126 717 1181 q 554 1071 625 1071 q 508 1080 531 1071 q 453 1108 486 1089 q 408 1132 426 1124 q 374 1140 390 1140 q 335 1124 350 1140 q 315 1075 319 1107 l 215 1075 z "},"F":{"ha":811,"x_min":89,"x_max":779,"o":"m 89 989 l 779 989 l 779 785 l 346 785 l 346 604 l 751 604 l 751 401 l 346 401 l 346 0 l 89 0 l 89 989 z "},"G":{"ha":1043,"x_min":63,"x_max":967,"o":"m 967 558 l 967 63 q 790 7 888 26 q 589 -12 692 -12 q 309 49 428 -12 q 126 224 190 110 q 63 496 63 339 q 126 763 63 649 q 307 940 190 878 q 579 1001 424 1001 q 781 974 686 1001 q 936 897 876 946 l 854 713 q 723 777 786 757 q 588 797 660 797 q 391 723 456 797 q 326 496 326 649 q 394 261 326 338 q 601 185 461 185 q 732 199 667 185 l 732 382 l 560 382 l 560 558 l 967 558 z "},"Ğ":{"ha":1043,"x_min":63,"x_max":967,"o":"m 967 558 l 967 63 q 790 7 888 26 q 589 -12 692 -12 q 309 49 428 -12 q 126 224 190 110 q 63 496 63 339 q 126 763 63 649 q 307 940 190 878 q 579 1001 424 1001 q 781 974 686 1001 q 936 897 876 946 l 854 713 q 723 777 786 757 q 588 797 660 797 q 391 723 456 797 q 326 496 326 649 q 394 261 326 338 q 601 185 461 185 q 732 199 667 185 l 732 382 l 560 382 l 560 558 l 967 558 m 579 1085 q 414 1125 482 1085 q 321 1239 346 1165 l 428 1285 q 579 1228 469 1228 q 729 1285 688 1228 l 836 1239 q 743 1125 811 1165 q 579 1085 675 1085 z "},"Ǧ":{"ha":1043,"x_min":63,"x_max":967,"o":"m 967 558 l 967 63 q 790 7 888 26 q 589 -12 692 -12 q 309 49 428 -12 q 126 224 190 110 q 63 496 63 339 q 126 763 63 649 q 307 940 190 878 q 579 1001 424 1001 q 781 974 686 1001 q 936 897 876 946 l 854 713 q 723 777 786 757 q 588 797 660 797 q 391 723 456 797 q 326 496 326 649 q 394 261 326 338 q 601 185 461 185 q 732 199 667 185 l 732 382 l 560 382 l 560 558 l 967 558 m 840 1293 l 647 1074 l 510 1074 l 317 1293 l 499 1293 l 579 1183 l 658 1293 l 840 1293 z "},"Ĝ":{"ha":1043,"x_min":63,"x_max":967,"o":"m 967 558 l 967 63 q 790 7 888 26 q 589 -12 692 -12 q 309 49 428 -12 q 126 224 190 110 q 63 496 63 339 q 126 763 63 649 q 307 940 190 878 q 579 1001 424 1001 q 781 974 686 1001 q 936 897 876 946 l 854 713 q 723 777 786 757 q 588 797 660 797 q 391 723 456 797 q 326 496 326 649 q 394 261 326 338 q 601 185 461 185 q 732 199 667 185 l 732 382 l 560 382 l 560 558 l 967 558 m 317 1074 l 510 1293 l 647 1293 l 840 1074 l 658 1074 l 579 1182 l 499 1074 l 317 1074 z "},"Ģ":{"ha":1043,"x_min":63,"x_max":967,"o":"m 967 558 l 967 63 q 790 7 888 26 q 589 -12 692 -12 q 309 49 428 -12 q 126 224 190 110 q 63 496 63 339 q 126 763 63 649 q 307 940 190 878 q 579 1001 424 1001 q 781 974 686 1001 q 936 897 876 946 l 854 713 q 723 777 786 757 q 588 797 660 797 q 391 723 456 797 q 326 496 326 649 q 394 261 326 338 q 601 185 461 185 q 732 199 667 185 l 732 382 l 560 382 l 560 558 l 967 558 m 707 -89 l 707 -182 q 687 -301 707 -251 q 618 -394 667 -351 l 532 -336 q 578 -267 569 -303 l 468 -267 l 468 -89 l 707 -89 z "},"Ġ":{"ha":1043,"x_min":63,"x_max":967,"o":"m 967 558 l 967 63 q 790 7 888 26 q 589 -12 692 -12 q 309 49 428 -12 q 126 224 190 110 q 63 496 63 339 q 126 763 63 649 q 307 940 190 878 q 579 1001 424 1001 q 781 974 686 1001 q 936 897 876 946 l 854 713 q 723 777 786 757 q 588 797 660 797 q 391 723 456 797 q 326 496 326 649 q 394 261 326 338 q 601 185 461 185 q 732 199 667 185 l 732 382 l 560 382 l 560 558 l 967 558 m 710 1297 l 710 1071 l 447 1071 l 447 1297 l 710 1297 z "},"Ḡ":{"ha":1043,"x_min":63,"x_max":967,"o":"m 967 558 l 967 63 q 790 7 888 26 q 589 -12 692 -12 q 309 49 428 -12 q 126 224 190 110 q 63 496 63 339 q 126 763 63 649 q 307 940 190 878 q 579 1001 424 1001 q 781 974 686 1001 q 936 897 876 946 l 854 713 q 723 777 786 757 q 588 797 660 797 q 391 723 456 797 q 326 496 326 649 q 394 261 326 338 q 601 185 461 185 q 732 199 667 185 l 732 382 l 560 382 l 560 558 l 967 558 m 356 1258 l 801 1258 l 801 1108 l 356 1108 l 356 1258 z "},"H":{"ha":1089,"x_min":89,"x_max":1000,"o":"m 1000 989 l 1000 0 l 744 0 l 744 400 l 344 400 l 344 0 l 89 0 l 89 989 l 344 989 l 344 604 l 744 604 l 744 989 l 1000 989 z "},"Ħ":{"ha":1192,"x_min":24,"x_max":1167,"o":"m 1167 706 l 1051 706 l 1051 0 l 796 0 l 796 400 l 396 400 l 396 0 l 140 0 l 140 706 l 24 706 l 24 894 l 140 894 l 140 989 l 396 989 l 396 894 l 796 894 l 796 989 l 1051 989 l 1051 894 l 1167 894 l 1167 706 m 796 706 l 396 706 l 396 604 l 796 604 l 796 706 z "},"Ḫ":{"ha":1089,"x_min":89,"x_max":1000,"o":"m 1000 989 l 1000 0 l 744 0 l 744 400 l 344 400 l 344 0 l 89 0 l 89 989 l 344 989 l 344 604 l 744 604 l 744 989 l 1000 989 m 544 -326 q 371 -272 447 -326 q 272 -114 294 -217 l 379 -69 q 544 -174 443 -174 q 708 -69 644 -174 l 815 -114 q 717 -272 793 -217 q 544 -326 640 -326 z "},"Ĥ":{"ha":1089,"x_min":89,"x_max":1000,"o":"m 1000 989 l 1000 0 l 744 0 l 744 400 l 344 400 l 344 0 l 89 0 l 89 989 l 344 989 l 344 604 l 744 604 l 744 989 l 1000 989 m 282 1074 l 475 1293 l 613 1293 l 806 1074 l 624 1074 l 544 1182 l 464 1074 l 282 1074 z "},"Ḥ":{"ha":1089,"x_min":89,"x_max":1000,"o":"m 1000 989 l 1000 0 l 744 0 l 744 400 l 344 400 l 344 0 l 89 0 l 89 989 l 344 989 l 344 604 l 744 604 l 744 989 l 1000 989 m 654 -79 l 654 -289 l 433 -289 l 433 -79 l 654 -79 z "},"I":{"ha":439,"x_min":89,"x_max":350,"o":"m 89 989 l 350 989 l 350 0 l 89 0 l 89 989 z "},"Í":{"ha":439,"x_min":89,"x_max":511,"o":"m 89 989 l 350 989 l 350 0 l 89 0 l 89 989 m 142 1074 l 286 1293 l 511 1293 l 293 1074 l 142 1074 z "},"Ĭ":{"ha":439,"x_min":-40,"x_max":475,"o":"m 89 989 l 350 989 l 350 0 l 89 0 l 89 989 m 218 1085 q 53 1125 121 1085 q -40 1239 -15 1165 l 67 1285 q 218 1228 108 1228 q 368 1285 326 1228 l 475 1239 q 382 1125 450 1165 q 218 1085 314 1085 z "},"Î":{"ha":439,"x_min":-44,"x_max":479,"o":"m 89 989 l 350 989 l 350 0 l 89 0 l 89 989 m -44 1074 l 149 1293 l 286 1293 l 479 1074 l 297 1074 l 218 1182 l 138 1074 l -44 1074 z "},"Ȉ":{"ha":439,"x_min":-87,"x_max":382,"o":"m 89 989 l 350 989 l 350 0 l 89 0 l 89 989 m -87 1293 l 71 1293 l 175 1074 l 53 1074 l -87 1293 m 118 1293 l 278 1293 l 382 1074 l 260 1074 l 118 1293 z "},"Ï":{"ha":439,"x_min":-33,"x_max":468,"o":"m 89 989 l 350 989 l 350 0 l 89 0 l 89 989 m 189 1289 l 189 1079 l -33 1079 l -33 1289 l 189 1289 m 468 1289 l 468 1079 l 246 1079 l 246 1289 l 468 1289 z "},"Ḯ":{"ha":439,"x_min":-33,"x_max":511,"o":"m 89 989 l 350 989 l 350 0 l 89 0 l 89 989 m 189 1289 l 189 1079 l -33 1079 l -33 1289 l 189 1289 m 468 1289 l 468 1079 l 246 1079 l 246 1289 l 468 1289 m 142 1299 l 286 1518 l 511 1518 l 293 1299 l 142 1299 z "},"İ":{"ha":439,"x_min":86,"x_max":350,"o":"m 89 989 l 350 989 l 350 0 l 89 0 l 89 989 m 349 1297 l 349 1071 l 86 1071 l 86 1297 l 349 1297 z "},"Ị":{"ha":439,"x_min":89,"x_max":350,"o":"m 89 989 l 350 989 l 350 0 l 89 0 l 89 989 m 328 -79 l 328 -289 l 107 -289 l 107 -79 l 328 -79 z "},"Ì":{"ha":439,"x_min":-76,"x_max":350,"o":"m 89 989 l 350 989 l 350 0 l 89 0 l 89 989 m -76 1293 l 149 1293 l 293 1074 l 142 1074 l -76 1293 z "},"Ỉ":{"ha":439,"x_min":89,"x_max":394,"o":"m 89 989 l 350 989 l 350 0 l 89 0 l 89 989 m 275 1074 l 158 1074 l 158 1106 q 175 1143 158 1131 q 221 1168 192 1156 q 250 1188 250 1178 q 207 1210 250 1210 q 131 1196 174 1210 l 100 1274 q 242 1299 163 1299 q 352 1272 310 1299 q 394 1210 394 1246 q 376 1167 394 1183 q 325 1138 357 1151 q 287 1116 299 1125 q 275 1093 275 1107 l 275 1074 z "},"Ȋ":{"ha":439,"x_min":-40,"x_max":475,"o":"m 89 989 l 350 989 l 350 0 l 89 0 l 89 989 m 218 1283 q 382 1243 314 1283 q 475 1129 450 1203 l 368 1085 q 218 1142 326 1142 q 67 1085 108 1142 l -40 1129 q 53 1243 -15 1203 q 218 1283 121 1283 z "},"Ī":{"ha":439,"x_min":-6,"x_max":440,"o":"m 89 989 l 350 989 l 350 0 l 89 0 l 89 989 m -6 1258 l 440 1258 l 440 1108 l -6 1108 l -6 1258 z "},"Į":{"ha":439,"x_min":56,"x_max":390,"o":"m 390 -251 q 242 -278 321 -278 q 108 -235 161 -278 q 56 -118 56 -192 q 104 0 56 -50 l 89 0 l 89 989 l 350 989 l 350 0 l 325 0 q 242 -23 274 0 q 211 -85 211 -46 q 292 -154 211 -154 q 365 -139 324 -154 l 390 -251 z "},"Ĩ":{"ha":439,"x_min":-33,"x_max":468,"o":"m 89 989 l 350 989 l 350 0 l 89 0 l 89 989 m -33 1075 q 13 1242 -33 1188 q 129 1297 58 1297 q 175 1288 153 1297 q 231 1260 197 1279 q 275 1236 257 1244 q 310 1228 293 1228 q 349 1244 333 1228 q 368 1293 364 1261 l 468 1293 q 422 1126 468 1181 q 306 1071 376 1071 q 260 1080 282 1071 q 204 1108 238 1089 q 160 1132 178 1124 q 125 1140 142 1140 q 86 1124 101 1140 q 67 1075 71 1107 l -33 1075 z "},"J":{"ha":560,"x_min":3,"x_max":469,"o":"m 3 -40 q 104 -47 72 -47 q 188 -22 167 -47 q 208 74 208 3 l 208 989 l 469 989 l 469 78 q 399 -179 469 -97 q 156 -261 328 -261 q 3 -249 88 -261 l 3 -40 z "},"Ĵ":{"ha":560,"x_min":3,"x_max":599,"o":"m 3 -40 q 104 -47 72 -47 q 188 -22 167 -47 q 208 74 208 3 l 208 989 l 469 989 l 469 78 q 399 -179 469 -97 q 156 -261 328 -261 q 3 -249 88 -261 l 3 -40 m 75 1074 l 268 1293 l 406 1293 l 599 1074 l 417 1074 l 338 1182 l 257 1074 l 75 1074 z "},"K":{"ha":981,"x_min":89,"x_max":1056,"o":"m 746 0 l 350 449 l 350 0 l 89 0 l 89 989 l 350 989 l 350 564 l 735 989 l 1040 989 l 603 519 l 1056 0 l 746 0 z "},"Ķ":{"ha":981,"x_min":89,"x_max":1056,"o":"m 746 0 l 350 449 l 350 0 l 89 0 l 89 989 l 350 989 l 350 564 l 735 989 l 1040 989 l 603 519 l 1056 0 l 746 0 m 611 -89 l 611 -182 q 591 -301 611 -251 q 522 -394 571 -351 l 436 -336 q 482 -267 474 -303 l 372 -267 l 372 -89 l 611 -89 z "},"L":{"ha":804,"x_min":89,"x_max":768,"o":"m 89 989 l 350 989 l 350 211 l 768 211 l 768 0 l 89 0 l 89 989 z "},"Ǉ":{"ha":1311,"x_min":89,"x_max":1222,"o":"m 89 989 l 350 989 l 350 211 l 726 211 l 726 0 l 89 0 l 89 989 m 754 -40 q 857 -47 824 -47 q 940 -22 919 -47 q 961 74 961 3 l 961 989 l 1222 989 l 1222 78 q 1151 -179 1222 -97 q 907 -261 1081 -261 q 754 -249 840 -261 l 754 -40 z "},"Ĺ":{"ha":804,"x_min":89,"x_max":768,"o":"m 89 989 l 350 989 l 350 211 l 768 211 l 768 0 l 89 0 l 89 989 m 142 1074 l 286 1293 l 511 1293 l 293 1074 l 142 1074 z "},"Ľ":{"ha":804,"x_min":89,"x_max":768,"o":"m 89 989 l 350 989 l 350 211 l 768 211 l 768 0 l 89 0 l 89 989 m 475 715 l 475 989 l 625 989 l 589 715 l 475 715 z "},"Ļ":{"ha":804,"x_min":89,"x_max":768,"o":"m 89 989 l 350 989 l 350 211 l 768 211 l 768 0 l 89 0 l 89 989 m 558 -89 l 558 -182 q 538 -301 558 -251 q 469 -394 518 -351 l 383 -336 q 429 -267 421 -303 l 319 -267 l 319 -89 l 558 -89 z "},"Ŀ":{"ha":804,"x_min":89,"x_max":768,"o":"m 89 989 l 350 989 l 350 211 l 768 211 l 768 0 l 89 0 l 89 989 m 701 607 l 701 383 l 442 383 l 442 607 l 701 607 z "},"Ḷ":{"ha":804,"x_min":89,"x_max":768,"o":"m 89 989 l 350 989 l 350 211 l 768 211 l 768 0 l 89 0 l 89 989 m 550 -79 l 550 -289 l 329 -289 l 329 -79 l 550 -79 z "},"ǈ":{"ha":1206,"x_min":89,"x_max":1133,"o":"m 89 989 l 350 989 l 350 211 l 768 211 l 768 0 l 89 0 l 89 989 m 708 -100 q 776 -110 749 -110 q 850 -84 821 -110 q 879 -6 879 -58 l 879 706 l 1131 706 l 1131 -8 q 1056 -232 1131 -151 q 839 -312 982 -312 q 708 -293 758 -312 l 708 -100 m 1133 1051 l 1133 825 l 871 825 l 871 1051 l 1133 1051 z "},"Ḻ":{"ha":804,"x_min":89,"x_max":768,"o":"m 89 989 l 350 989 l 350 211 l 768 211 l 768 0 l 89 0 l 89 989 m 217 -114 l 663 -114 l 663 -254 l 217 -254 l 217 -114 z "},"Ł":{"ha":857,"x_min":14,"x_max":821,"o":"m 821 211 l 821 0 l 140 0 l 140 314 l 14 242 l 14 460 l 140 533 l 140 989 l 401 989 l 401 683 l 656 831 l 656 610 l 401 464 l 401 211 l 821 211 z "},"M":{"ha":1183,"x_min":93,"x_max":1090,"o":"m 1090 989 l 1090 0 l 863 0 l 861 453 l 674 0 l 508 0 l 319 447 l 319 0 l 93 0 l 93 989 l 297 989 l 593 314 l 888 989 l 1090 989 z "},"Ṃ":{"ha":1183,"x_min":93,"x_max":1090,"o":"m 1090 989 l 1090 0 l 863 0 l 861 453 l 674 0 l 508 0 l 319 447 l 319 0 l 93 0 l 93 989 l 297 989 l 593 314 l 888 989 l 1090 989 m 700 -79 l 700 -289 l 479 -289 l 479 -79 l 700 -79 z "},"N":{"ha":1064,"x_min":89,"x_max":974,"o":"m 974 989 l 974 0 l 781 0 l 332 561 l 332 0 l 89 0 l 89 989 l 279 989 l 728 431 l 728 989 l 974 989 z "},"Ǌ":{"ha":1624,"x_min":89,"x_max":1533,"o":"m 974 989 l 974 0 l 781 0 l 332 561 l 332 0 l 89 0 l 89 989 l 279 989 l 728 431 l 728 989 l 974 989 m 1067 -40 q 1168 -47 1136 -47 q 1251 -22 1231 -47 q 1272 74 1272 3 l 1272 989 l 1533 989 l 1533 78 q 1463 -179 1533 -97 q 1219 -261 1392 -261 q 1067 -249 1151 -261 l 1067 -40 z "},"Ń":{"ha":1064,"x_min":89,"x_max":974,"o":"m 974 989 l 974 0 l 781 0 l 332 561 l 332 0 l 89 0 l 89 989 l 279 989 l 728 431 l 728 989 l 974 989 m 454 1074 l 599 1293 l 824 1293 l 606 1074 l 454 1074 z "},"Ň":{"ha":1064,"x_min":89,"x_max":974,"o":"m 974 989 l 974 0 l 781 0 l 332 561 l 332 0 l 89 0 l 89 989 l 279 989 l 728 431 l 728 989 l 974 989 m 792 1293 l 599 1074 l 461 1074 l 268 1293 l 450 1293 l 531 1183 l 610 1293 l 792 1293 z "},"Ņ":{"ha":1064,"x_min":89,"x_max":974,"o":"m 974 989 l 974 0 l 781 0 l 332 561 l 332 0 l 89 0 l 89 989 l 279 989 l 728 431 l 728 989 l 974 989 m 650 -89 l 650 -182 q 630 -301 650 -251 q 561 -394 610 -351 l 475 -336 q 521 -267 513 -303 l 411 -267 l 411 -89 l 650 -89 z "},"Ṅ":{"ha":1064,"x_min":89,"x_max":974,"o":"m 974 989 l 974 0 l 781 0 l 332 561 l 332 0 l 89 0 l 89 989 l 279 989 l 728 431 l 728 989 l 974 989 m 661 1297 l 661 1071 l 399 1071 l 399 1297 l 661 1297 z "},"Ṇ":{"ha":1064,"x_min":89,"x_max":974,"o":"m 974 989 l 974 0 l 781 0 l 332 561 l 332 0 l 89 0 l 89 989 l 279 989 l 728 431 l 728 989 l 974 989 m 642 -79 l 642 -289 l 421 -289 l 421 -79 l 642 -79 z "},"Ŋ":{"ha":1064,"x_min":89,"x_max":974,"o":"m 974 989 l 974 54 q 661 -257 974 -240 l 517 -264 l 500 -71 l 614 -64 q 697 -32 667 -62 q 726 46 726 -1 l 726 69 l 332 561 l 332 0 l 89 0 l 89 989 l 279 989 l 728 431 l 728 989 l 974 989 z "},"ǋ":{"ha":1465,"x_min":89,"x_max":1393,"o":"m 974 989 l 974 0 l 781 0 l 332 561 l 332 0 l 89 0 l 89 989 l 279 989 l 728 431 l 728 989 l 974 989 m 968 -100 q 1036 -110 1008 -110 q 1110 -84 1081 -110 q 1139 -6 1139 -58 l 1139 706 l 1390 706 l 1390 -8 q 1316 -232 1390 -151 q 1099 -312 1242 -312 q 968 -293 1018 -312 l 968 -100 m 1393 1051 l 1393 825 l 1131 825 l 1131 1051 l 1393 1051 z "},"Ṉ":{"ha":1064,"x_min":89,"x_max":974,"o":"m 974 989 l 974 0 l 781 0 l 332 561 l 332 0 l 89 0 l 89 989 l 279 989 l 728 431 l 728 989 l 974 989 m 308 -114 l 754 -114 l 754 -254 l 308 -254 l 308 -114 z "},"Ñ":{"ha":1064,"x_min":89,"x_max":974,"o":"m 974 989 l 974 0 l 781 0 l 332 561 l 332 0 l 89 0 l 89 989 l 279 989 l 728 431 l 728 989 l 974 989 m 279 1075 q 325 1242 279 1188 q 442 1297 371 1297 q 488 1288 465 1297 q 543 1260 510 1279 q 588 1236 569 1244 q 622 1228 606 1228 q 661 1244 646 1228 q 681 1293 676 1261 l 781 1293 q 735 1126 781 1181 q 618 1071 689 1071 q 572 1080 594 1071 q 517 1108 550 1089 q 472 1132 490 1124 q 438 1140 454 1140 q 399 1124 414 1140 q 379 1075 383 1107 l 279 1075 z "},"O":{"ha":1118,"x_min":63,"x_max":1054,"o":"m 560 -12 q 296 49 408 -12 q 123 226 183 111 q 63 496 63 342 q 124 764 63 650 q 297 940 185 878 q 560 1001 408 1001 q 823 940 711 1001 q 994 764 935 878 q 1054 496 1054 650 q 994 226 1054 342 q 823 49 935 111 q 560 -12 711 -12 m 560 186 q 734 265 671 186 q 797 496 797 344 q 734 724 797 646 q 560 803 671 803 q 386 725 449 803 q 324 496 324 647 q 386 265 324 343 q 560 186 449 186 z "},"Ó":{"ha":1118,"x_min":63,"x_max":1054,"o":"m 560 -12 q 296 49 408 -12 q 123 226 183 111 q 63 496 63 342 q 124 764 63 650 q 297 940 185 878 q 560 1001 408 1001 q 823 940 711 1001 q 994 764 935 878 q 1054 496 1054 650 q 994 226 1054 342 q 823 49 935 111 q 560 -12 711 -12 m 560 186 q 734 265 671 186 q 797 496 797 344 q 734 724 797 646 q 560 803 671 803 q 386 725 449 803 q 324 496 324 647 q 386 265 324 343 q 560 186 449 186 m 482 1074 l 626 1293 l 851 1293 l 633 1074 l 482 1074 z "},"Ŏ":{"ha":1118,"x_min":63,"x_max":1054,"o":"m 560 -12 q 296 49 408 -12 q 123 226 183 111 q 63 496 63 342 q 124 764 63 650 q 297 940 185 878 q 560 1001 408 1001 q 823 940 711 1001 q 994 764 935 878 q 1054 496 1054 650 q 994 226 1054 342 q 823 49 935 111 q 560 -12 711 -12 m 560 186 q 734 265 671 186 q 797 496 797 344 q 734 724 797 646 q 560 803 671 803 q 386 725 449 803 q 324 496 324 647 q 386 265 324 343 q 560 186 449 186 m 558 1085 q 393 1125 461 1085 q 300 1239 325 1165 l 407 1285 q 558 1228 449 1228 q 708 1285 667 1228 l 815 1239 q 722 1125 790 1165 q 558 1085 654 1085 z "},"Ô":{"ha":1118,"x_min":63,"x_max":1054,"o":"m 560 -12 q 296 49 408 -12 q 123 226 183 111 q 63 496 63 342 q 124 764 63 650 q 297 940 185 878 q 560 1001 408 1001 q 823 940 711 1001 q 994 764 935 878 q 1054 496 1054 650 q 994 226 1054 342 q 823 49 935 111 q 560 -12 711 -12 m 560 186 q 734 265 671 186 q 797 496 797 344 q 734 724 797 646 q 560 803 671 803 q 386 725 449 803 q 324 496 324 647 q 386 265 324 343 q 560 186 449 186 m 296 1074 l 489 1293 l 626 1293 l 819 1074 l 638 1074 l 558 1182 l 478 1074 l 296 1074 z "},"Ố":{"ha":1118,"x_min":63,"x_max":1054,"o":"m 560 -12 q 296 49 408 -12 q 123 226 183 111 q 63 496 63 342 q 124 764 63 650 q 297 940 185 878 q 560 1001 408 1001 q 823 940 711 1001 q 994 764 935 878 q 1054 496 1054 650 q 994 226 1054 342 q 823 49 935 111 q 560 -12 711 -12 m 560 186 q 734 265 671 186 q 797 496 797 344 q 734 724 797 646 q 560 803 671 803 q 386 725 449 803 q 324 496 324 647 q 386 265 324 343 q 560 186 449 186 m 694 1225 l 785 1422 l 982 1422 l 811 1225 l 694 1225 m 296 1074 l 489 1263 l 626 1263 l 819 1074 l 642 1074 l 558 1156 l 474 1074 l 296 1074 z "},"Ộ":{"ha":1118,"x_min":63,"x_max":1054,"o":"m 560 -12 q 296 49 408 -12 q 123 226 183 111 q 63 496 63 342 q 124 764 63 650 q 297 940 185 878 q 560 1001 408 1001 q 823 940 711 1001 q 994 764 935 878 q 1054 496 1054 650 q 994 226 1054 342 q 823 49 935 111 q 560 -12 711 -12 m 560 186 q 734 265 671 186 q 797 496 797 344 q 734 724 797 646 q 560 803 671 803 q 386 725 449 803 q 324 496 324 647 q 386 265 324 343 q 560 186 449 186 m 669 -79 l 669 -289 l 449 -289 l 449 -79 l 669 -79 m 296 1074 l 489 1293 l 626 1293 l 819 1074 l 638 1074 l 558 1182 l 478 1074 l 296 1074 z "},"Ồ":{"ha":1118,"x_min":63,"x_max":1054,"o":"m 560 -12 q 296 49 408 -12 q 123 226 183 111 q 63 496 63 342 q 124 764 63 650 q 297 940 185 878 q 560 1001 408 1001 q 823 940 711 1001 q 994 764 935 878 q 1054 496 1054 650 q 994 226 1054 342 q 823 49 935 111 q 560 -12 711 -12 m 560 186 q 734 265 671 186 q 797 496 797 344 q 734 724 797 646 q 560 803 671 803 q 386 725 449 803 q 324 496 324 647 q 386 265 324 343 q 560 186 449 186 m 578 1422 l 776 1422 l 871 1225 l 754 1225 l 578 1422 m 296 1074 l 489 1263 l 626 1263 l 819 1074 l 642 1074 l 558 1156 l 474 1074 l 296 1074 z "},"Ổ":{"ha":1118,"x_min":63,"x_max":1054,"o":"m 560 -12 q 296 49 408 -12 q 123 226 183 111 q 63 496 63 342 q 124 764 63 650 q 297 940 185 878 q 560 1001 408 1001 q 823 940 711 1001 q 994 764 935 878 q 1054 496 1054 650 q 994 226 1054 342 q 823 49 935 111 q 560 -12 711 -12 m 560 186 q 734 265 671 186 q 797 496 797 344 q 734 724 797 646 q 560 803 671 803 q 386 725 449 803 q 324 496 324 647 q 386 265 324 343 q 560 186 449 186 m 810 1228 l 693 1228 l 693 1257 q 713 1297 693 1283 q 759 1318 733 1310 q 785 1329 785 1326 q 775 1341 785 1336 q 743 1346 765 1346 q 665 1331 707 1346 l 635 1406 q 776 1431 697 1431 q 888 1408 846 1431 q 929 1350 929 1386 q 912 1308 929 1322 q 860 1279 894 1294 q 821 1260 832 1268 q 810 1238 810 1253 l 810 1228 m 296 1074 l 489 1263 l 626 1263 l 819 1074 l 642 1074 l 558 1156 l 474 1074 l 296 1074 z "},"Ỗ":{"ha":1118,"x_min":63,"x_max":1054,"o":"m 560 -12 q 296 49 408 -12 q 123 226 183 111 q 63 496 63 342 q 124 764 63 650 q 297 940 185 878 q 560 1001 408 1001 q 823 940 711 1001 q 994 764 935 878 q 1054 496 1054 650 q 994 226 1054 342 q 823 49 935 111 q 560 -12 711 -12 m 560 186 q 734 265 671 186 q 797 496 797 344 q 734 724 797 646 q 560 803 671 803 q 386 725 449 803 q 324 496 324 647 q 386 265 324 343 q 560 186 449 186 m 307 1289 q 355 1396 307 1353 q 469 1439 403 1439 q 520 1433 493 1439 q 571 1418 547 1426 q 650 1400 622 1400 q 690 1406 676 1400 q 708 1433 704 1413 l 808 1433 q 760 1327 808 1371 q 646 1283 713 1283 q 544 1306 608 1283 q 465 1324 493 1324 q 425 1317 439 1324 q 407 1289 411 1310 l 307 1289 m 296 1074 l 489 1263 l 626 1263 l 819 1074 l 642 1074 l 558 1156 l 474 1074 l 296 1074 z "},"Ȍ":{"ha":1118,"x_min":63,"x_max":1054,"o":"m 560 -12 q 296 49 408 -12 q 123 226 183 111 q 63 496 63 342 q 124 764 63 650 q 297 940 185 878 q 560 1001 408 1001 q 823 940 711 1001 q 994 764 935 878 q 1054 496 1054 650 q 994 226 1054 342 q 823 49 935 111 q 560 -12 711 -12 m 560 186 q 734 265 671 186 q 797 496 797 344 q 734 724 797 646 q 560 803 671 803 q 386 725 449 803 q 324 496 324 647 q 386 265 324 343 q 560 186 449 186 m 253 1293 l 411 1293 l 515 1074 l 393 1074 l 253 1293 m 458 1293 l 618 1293 l 722 1074 l 600 1074 l 458 1293 z "},"Ö":{"ha":1118,"x_min":63,"x_max":1054,"o":"m 560 -12 q 296 49 408 -12 q 123 226 183 111 q 63 496 63 342 q 124 764 63 650 q 297 940 185 878 q 560 1001 408 1001 q 823 940 711 1001 q 994 764 935 878 q 1054 496 1054 650 q 994 226 1054 342 q 823 49 935 111 q 560 -12 711 -12 m 560 186 q 734 265 671 186 q 797 496 797 344 q 734 724 797 646 q 560 803 671 803 q 386 725 449 803 q 324 496 324 647 q 386 265 324 343 q 560 186 449 186 m 529 1289 l 529 1079 l 307 1079 l 307 1289 l 529 1289 m 808 1289 l 808 1079 l 586 1079 l 586 1289 l 808 1289 z "},"Ȫ":{"ha":1118,"x_min":63,"x_max":1054,"o":"m 560 -12 q 296 49 408 -12 q 123 226 183 111 q 63 496 63 342 q 124 764 63 650 q 297 940 185 878 q 560 1001 408 1001 q 823 940 711 1001 q 994 764 935 878 q 1054 496 1054 650 q 994 226 1054 342 q 823 49 935 111 q 560 -12 711 -12 m 560 186 q 734 265 671 186 q 797 496 797 344 q 734 724 797 646 q 560 803 671 803 q 386 725 449 803 q 324 496 324 647 q 386 265 324 343 q 560 186 449 186 m 529 1289 l 529 1079 l 307 1079 l 307 1289 l 529 1289 m 808 1289 l 808 1079 l 586 1079 l 586 1289 l 808 1289 m 335 1483 l 781 1483 l 781 1333 l 335 1333 l 335 1483 z "},"Ȱ":{"ha":1118,"x_min":63,"x_max":1054,"o":"m 560 -12 q 296 49 408 -12 q 123 226 183 111 q 63 496 63 342 q 124 764 63 650 q 297 940 185 878 q 560 1001 408 1001 q 823 940 711 1001 q 994 764 935 878 q 1054 496 1054 650 q 994 226 1054 342 q 823 49 935 111 q 560 -12 711 -12 m 560 186 q 734 265 671 186 q 797 496 797 344 q 734 724 797 646 q 560 803 671 803 q 386 725 449 803 q 324 496 324 647 q 386 265 324 343 q 560 186 449 186 m 689 1297 l 689 1071 l 426 1071 l 426 1297 l 689 1297 m 335 1483 l 781 1483 l 781 1333 l 335 1333 l 335 1483 z "},"Ọ":{"ha":1118,"x_min":63,"x_max":1054,"o":"m 560 -12 q 296 49 408 -12 q 123 226 183 111 q 63 496 63 342 q 124 764 63 650 q 297 940 185 878 q 560 1001 408 1001 q 823 940 711 1001 q 994 764 935 878 q 1054 496 1054 650 q 994 226 1054 342 q 823 49 935 111 q 560 -12 711 -12 m 560 186 q 734 265 671 186 q 797 496 797 344 q 734 724 797 646 q 560 803 671 803 q 386 725 449 803 q 324 496 324 647 q 386 265 324 343 q 560 186 449 186 m 669 -79 l 669 -289 l 449 -289 l 449 -79 l 669 -79 z "},"Ò":{"ha":1118,"x_min":63,"x_max":1054,"o":"m 560 -12 q 296 49 408 -12 q 123 226 183 111 q 63 496 63 342 q 124 764 63 650 q 297 940 185 878 q 560 1001 408 1001 q 823 940 711 1001 q 994 764 935 878 q 1054 496 1054 650 q 994 226 1054 342 q 823 49 935 111 q 560 -12 711 -12 m 560 186 q 734 265 671 186 q 797 496 797 344 q 734 724 797 646 q 560 803 671 803 q 386 725 449 803 q 324 496 324 647 q 386 265 324 343 q 560 186 449 186 m 264 1293 l 489 1293 l 633 1074 l 482 1074 l 264 1293 z "},"Ỏ":{"ha":1118,"x_min":63,"x_max":1054,"o":"m 560 -12 q 296 49 408 -12 q 123 226 183 111 q 63 496 63 342 q 124 764 63 650 q 297 940 185 878 q 560 1001 408 1001 q 823 940 711 1001 q 994 764 935 878 q 1054 496 1054 650 q 994 226 1054 342 q 823 49 935 111 q 560 -12 711 -12 m 560 186 q 734 265 671 186 q 797 496 797 344 q 734 724 797 646 q 560 803 671 803 q 386 725 449 803 q 324 496 324 647 q 386 265 324 343 q 560 186 449 186 m 615 1074 l 499 1074 l 499 1106 q 515 1143 499 1131 q 561 1168 532 1156 q 590 1188 590 1178 q 547 1210 590 1210 q 471 1196 514 1210 l 440 1274 q 582 1299 503 1299 q 692 1272 650 1299 q 735 1210 735 1246 q 716 1167 735 1183 q 665 1138 697 1151 q 627 1116 639 1125 q 615 1093 615 1107 l 615 1074 z "},"Ơ":{"ha":1118,"x_min":63,"x_max":1054,"o":"m 1054 1097 q 1013 959 1054 1018 q 903 881 971 900 q 1054 496 1054 747 q 994 226 1054 342 q 823 49 935 111 q 560 -12 711 -12 q 296 49 408 -12 q 123 226 183 111 q 63 496 63 342 q 124 764 63 650 q 297 940 185 878 q 563 1001 410 1001 q 649 994 604 1001 q 729 989 699 989 q 815 1019 790 989 q 839 1126 839 1050 l 839 1157 l 1054 1157 l 1054 1097 m 560 186 q 734 265 671 186 q 797 496 797 344 q 734 724 797 646 q 560 803 671 803 q 386 725 449 803 q 324 496 324 647 q 386 265 324 343 q 560 186 449 186 z "},"Ớ":{"ha":1118,"x_min":63,"x_max":1054,"o":"m 1054 1097 q 1013 959 1054 1018 q 903 881 971 900 q 1054 496 1054 747 q 994 226 1054 342 q 823 49 935 111 q 560 -12 711 -12 q 296 49 408 -12 q 123 226 183 111 q 63 496 63 342 q 124 764 63 650 q 297 940 185 878 q 563 1001 410 1001 q 649 994 604 1001 q 729 989 699 989 q 815 1019 790 989 q 839 1126 839 1050 l 839 1157 l 1054 1157 l 1054 1097 m 560 186 q 734 265 671 186 q 797 496 797 344 q 734 724 797 646 q 560 803 671 803 q 386 725 449 803 q 324 496 324 647 q 386 265 324 343 q 560 186 449 186 m 482 1074 l 626 1293 l 851 1293 l 633 1074 l 482 1074 z "},"Ợ":{"ha":1118,"x_min":63,"x_max":1054,"o":"m 1054 1097 q 1013 959 1054 1018 q 903 881 971 900 q 1054 496 1054 747 q 994 226 1054 342 q 823 49 935 111 q 560 -12 711 -12 q 296 49 408 -12 q 123 226 183 111 q 63 496 63 342 q 124 764 63 650 q 297 940 185 878 q 563 1001 410 1001 q 649 994 604 1001 q 729 989 699 989 q 815 1019 790 989 q 839 1126 839 1050 l 839 1157 l 1054 1157 l 1054 1097 m 560 186 q 734 265 671 186 q 797 496 797 344 q 734 724 797 646 q 560 803 671 803 q 386 725 449 803 q 324 496 324 647 q 386 265 324 343 q 560 186 449 186 m 669 -79 l 669 -289 l 449 -289 l 449 -79 l 669 -79 z "},"Ờ":{"ha":1118,"x_min":63,"x_max":1054,"o":"m 1054 1097 q 1013 959 1054 1018 q 903 881 971 900 q 1054 496 1054 747 q 994 226 1054 342 q 823 49 935 111 q 560 -12 711 -12 q 296 49 408 -12 q 123 226 183 111 q 63 496 63 342 q 124 764 63 650 q 297 940 185 878 q 563 1001 410 1001 q 649 994 604 1001 q 729 989 699 989 q 815 1019 790 989 q 839 1126 839 1050 l 839 1157 l 1054 1157 l 1054 1097 m 560 186 q 734 265 671 186 q 797 496 797 344 q 734 724 797 646 q 560 803 671 803 q 386 725 449 803 q 324 496 324 647 q 386 265 324 343 q 560 186 449 186 m 264 1293 l 489 1293 l 633 1074 l 482 1074 l 264 1293 z "},"Ở":{"ha":1118,"x_min":63,"x_max":1054,"o":"m 1054 1097 q 1013 959 1054 1018 q 903 881 971 900 q 1054 496 1054 747 q 994 226 1054 342 q 823 49 935 111 q 560 -12 711 -12 q 296 49 408 -12 q 123 226 183 111 q 63 496 63 342 q 124 764 63 650 q 297 940 185 878 q 563 1001 410 1001 q 649 994 604 1001 q 729 989 699 989 q 815 1019 790 989 q 839 1126 839 1050 l 839 1157 l 1054 1157 l 1054 1097 m 560 186 q 734 265 671 186 q 797 496 797 344 q 734 724 797 646 q 560 803 671 803 q 386 725 449 803 q 324 496 324 647 q 386 265 324 343 q 560 186 449 186 m 615 1074 l 499 1074 l 499 1106 q 515 1143 499 1131 q 561 1168 532 1156 q 590 1188 590 1178 q 547 1210 590 1210 q 471 1196 514 1210 l 440 1274 q 582 1299 503 1299 q 692 1272 650 1299 q 735 1210 735 1246 q 716 1167 735 1183 q 665 1138 697 1151 q 627 1116 639 1125 q 615 1093 615 1107 l 615 1074 z "},"Ỡ":{"ha":1118,"x_min":63,"x_max":1054,"o":"m 1054 1097 q 1013 959 1054 1018 q 903 881 971 900 q 1054 496 1054 747 q 994 226 1054 342 q 823 49 935 111 q 560 -12 711 -12 q 296 49 408 -12 q 123 226 183 111 q 63 496 63 342 q 124 764 63 650 q 297 940 185 878 q 563 1001 410 1001 q 649 994 604 1001 q 729 989 699 989 q 815 1019 790 989 q 839 1126 839 1050 l 839 1157 l 1054 1157 l 1054 1097 m 560 186 q 734 265 671 186 q 797 496 797 344 q 734 724 797 646 q 560 803 671 803 q 386 725 449 803 q 324 496 324 647 q 386 265 324 343 q 560 186 449 186 m 307 1075 q 353 1242 307 1188 q 469 1297 399 1297 q 515 1288 493 1297 q 571 1260 538 1279 q 615 1236 597 1244 q 650 1228 633 1228 q 689 1244 674 1228 q 708 1293 704 1261 l 808 1293 q 763 1126 808 1181 q 646 1071 717 1071 q 600 1080 622 1071 q 544 1108 578 1089 q 500 1132 518 1124 q 465 1140 482 1140 q 426 1124 442 1140 q 407 1075 411 1107 l 307 1075 z "},"Ő":{"ha":1118,"x_min":63,"x_max":1054,"o":"m 560 -12 q 296 49 408 -12 q 123 226 183 111 q 63 496 63 342 q 124 764 63 650 q 297 940 185 878 q 560 1001 408 1001 q 823 940 711 1001 q 994 764 935 878 q 1054 496 1054 650 q 994 226 1054 342 q 823 49 935 111 q 560 -12 711 -12 m 560 186 q 734 265 671 186 q 797 496 797 344 q 734 724 797 646 q 560 803 671 803 q 386 725 449 803 q 324 496 324 647 q 386 265 324 343 q 560 186 449 186 m 497 1293 l 657 1293 l 515 1074 l 393 1074 l 497 1293 m 704 1293 l 863 1293 l 722 1074 l 600 1074 l 704 1293 z "},"Ȏ":{"ha":1118,"x_min":63,"x_max":1054,"o":"m 560 -12 q 296 49 408 -12 q 123 226 183 111 q 63 496 63 342 q 124 764 63 650 q 297 940 185 878 q 560 1001 408 1001 q 823 940 711 1001 q 994 764 935 878 q 1054 496 1054 650 q 994 226 1054 342 q 823 49 935 111 q 560 -12 711 -12 m 560 186 q 734 265 671 186 q 797 496 797 344 q 734 724 797 646 q 560 803 671 803 q 386 725 449 803 q 324 496 324 647 q 386 265 324 343 q 560 186 449 186 m 558 1283 q 722 1243 654 1283 q 815 1129 790 1203 l 708 1085 q 558 1142 667 1142 q 407 1085 449 1142 l 300 1129 q 393 1243 325 1203 q 558 1283 461 1283 z "},"Ō":{"ha":1118,"x_min":63,"x_max":1054,"o":"m 560 -12 q 296 49 408 -12 q 123 226 183 111 q 63 496 63 342 q 124 764 63 650 q 297 940 185 878 q 560 1001 408 1001 q 823 940 711 1001 q 994 764 935 878 q 1054 496 1054 650 q 994 226 1054 342 q 823 49 935 111 q 560 -12 711 -12 m 560 186 q 734 265 671 186 q 797 496 797 344 q 734 724 797 646 q 560 803 671 803 q 386 725 449 803 q 324 496 324 647 q 386 265 324 343 q 560 186 449 186 m 335 1258 l 781 1258 l 781 1108 l 335 1108 l 335 1258 z "},"Ṓ":{"ha":1118,"x_min":63,"x_max":1054,"o":"m 560 -12 q 296 49 408 -12 q 123 226 183 111 q 63 496 63 342 q 124 764 63 650 q 297 940 185 878 q 560 1001 408 1001 q 823 940 711 1001 q 994 764 935 878 q 1054 496 1054 650 q 994 226 1054 342 q 823 49 935 111 q 560 -12 711 -12 m 560 186 q 734 265 671 186 q 797 496 797 344 q 734 724 797 646 q 560 803 671 803 q 386 725 449 803 q 324 496 324 647 q 386 265 324 343 q 560 186 449 186 m 335 1258 l 781 1258 l 781 1108 l 335 1108 l 335 1258 m 482 1299 l 626 1518 l 851 1518 l 633 1299 l 482 1299 z "},"Ṑ":{"ha":1118,"x_min":63,"x_max":1054,"o":"m 560 -12 q 296 49 408 -12 q 123 226 183 111 q 63 496 63 342 q 124 764 63 650 q 297 940 185 878 q 560 1001 408 1001 q 823 940 711 1001 q 994 764 935 878 q 1054 496 1054 650 q 994 226 1054 342 q 823 49 935 111 q 560 -12 711 -12 m 560 186 q 734 265 671 186 q 797 496 797 344 q 734 724 797 646 q 560 803 671 803 q 386 725 449 803 q 324 496 324 647 q 386 265 324 343 q 560 186 449 186 m 335 1258 l 781 1258 l 781 1108 l 335 1108 l 335 1258 m 264 1518 l 489 1518 l 633 1299 l 482 1299 l 264 1518 z "},"Ǫ":{"ha":1118,"x_min":63,"x_max":1054,"o":"m 725 7 q 640 -85 640 -18 q 661 -136 640 -118 q 719 -154 682 -154 q 796 -139 753 -154 l 819 -251 q 671 -278 750 -278 q 537 -234 589 -278 q 485 -122 485 -190 q 526 -12 485 -58 q 280 58 385 -6 q 119 235 175 122 q 63 496 63 347 q 124 764 63 650 q 297 940 185 878 q 560 1001 408 1001 q 823 940 711 1001 q 994 764 935 878 q 1054 496 1054 650 q 968 182 1054 310 q 725 7 882 54 m 560 186 q 734 265 671 186 q 797 496 797 344 q 734 724 797 646 q 560 803 671 803 q 386 725 449 803 q 324 496 324 647 q 386 265 324 343 q 560 186 449 186 z "},"Ø":{"ha":1118,"x_min":63,"x_max":1054,"o":"m 899 888 q 1014 721 974 821 q 1054 496 1054 621 q 994 226 1054 342 q 823 49 935 111 q 560 -12 711 -12 q 389 11 468 -12 l 319 -107 l 156 -8 l 221 103 q 103 269 144 169 q 63 496 63 369 q 124 764 63 650 q 297 940 185 878 q 560 1001 408 1001 q 731 978 649 1001 l 799 1096 l 963 997 l 899 888 m 324 496 q 351 328 324 396 l 624 796 q 560 803 592 803 q 386 725 449 803 q 324 496 324 647 m 560 186 q 734 265 671 186 q 797 496 797 344 q 768 664 797 597 l 494 194 q 560 186 526 186 z "},"Ǿ":{"ha":1118,"x_min":63,"x_max":1054,"o":"m 899 888 q 1014 721 974 821 q 1054 496 1054 621 q 994 226 1054 342 q 823 49 935 111 q 560 -12 711 -12 q 389 11 468 -12 l 319 -107 l 156 -8 l 221 103 q 103 269 144 169 q 63 496 63 369 q 124 764 63 650 q 297 940 185 878 q 560 1001 408 1001 q 731 978 649 1001 l 799 1096 l 963 997 l 899 888 m 324 496 q 351 328 324 396 l 624 796 q 560 803 592 803 q 386 725 449 803 q 324 496 324 647 m 560 186 q 734 265 671 186 q 797 496 797 344 q 768 664 797 597 l 494 194 q 560 186 526 186 m 482 1074 l 626 1293 l 851 1293 l 633 1074 l 482 1074 z "},"Õ":{"ha":1118,"x_min":63,"x_max":1054,"o":"m 560 -12 q 296 49 408 -12 q 123 226 183 111 q 63 496 63 342 q 124 764 63 650 q 297 940 185 878 q 560 1001 408 1001 q 823 940 711 1001 q 994 764 935 878 q 1054 496 1054 650 q 994 226 1054 342 q 823 49 935 111 q 560 -12 711 -12 m 560 186 q 734 265 671 186 q 797 496 797 344 q 734 724 797 646 q 560 803 671 803 q 386 725 449 803 q 324 496 324 647 q 386 265 324 343 q 560 186 449 186 m 307 1075 q 353 1242 307 1188 q 469 1297 399 1297 q 515 1288 493 1297 q 571 1260 538 1279 q 615 1236 597 1244 q 650 1228 633 1228 q 689 1244 674 1228 q 708 1293 704 1261 l 808 1293 q 763 1126 808 1181 q 646 1071 717 1071 q 600 1080 622 1071 q 544 1108 578 1089 q 500 1132 518 1124 q 465 1140 482 1140 q 426 1124 442 1140 q 407 1075 411 1107 l 307 1075 z "},"Ṍ":{"ha":1118,"x_min":63,"x_max":1054,"o":"m 560 -12 q 296 49 408 -12 q 123 226 183 111 q 63 496 63 342 q 124 764 63 650 q 297 940 185 878 q 560 1001 408 1001 q 823 940 711 1001 q 994 764 935 878 q 1054 496 1054 650 q 994 226 1054 342 q 823 49 935 111 q 560 -12 711 -12 m 560 186 q 734 265 671 186 q 797 496 797 344 q 734 724 797 646 q 560 803 671 803 q 386 725 449 803 q 324 496 324 647 q 386 265 324 343 q 560 186 449 186 m 307 1075 q 353 1242 307 1188 q 469 1297 399 1297 q 515 1288 493 1297 q 571 1260 538 1279 q 615 1236 597 1244 q 650 1228 633 1228 q 689 1244 674 1228 q 708 1293 704 1261 l 808 1293 q 763 1126 808 1181 q 646 1071 717 1071 q 600 1080 622 1071 q 544 1108 578 1089 q 500 1132 518 1124 q 465 1140 482 1140 q 426 1124 442 1140 q 407 1075 411 1107 l 307 1075 m 482 1299 l 626 1518 l 851 1518 l 633 1299 l 482 1299 z "},"Ṏ":{"ha":1118,"x_min":63,"x_max":1054,"o":"m 560 -12 q 296 49 408 -12 q 123 226 183 111 q 63 496 63 342 q 124 764 63 650 q 297 940 185 878 q 560 1001 408 1001 q 823 940 711 1001 q 994 764 935 878 q 1054 496 1054 650 q 994 226 1054 342 q 823 49 935 111 q 560 -12 711 -12 m 560 186 q 734 265 671 186 q 797 496 797 344 q 734 724 797 646 q 560 803 671 803 q 386 725 449 803 q 324 496 324 647 q 386 265 324 343 q 560 186 449 186 m 307 1075 q 353 1242 307 1188 q 469 1297 399 1297 q 515 1288 493 1297 q 571 1260 538 1279 q 615 1236 597 1244 q 650 1228 633 1228 q 689 1244 674 1228 q 708 1293 704 1261 l 808 1293 q 763 1126 808 1181 q 646 1071 717 1071 q 600 1080 622 1071 q 544 1108 578 1089 q 500 1132 518 1124 q 465 1140 482 1140 q 426 1124 442 1140 q 407 1075 411 1107 l 307 1075 m 529 1514 l 529 1304 l 307 1304 l 307 1514 l 529 1514 m 808 1514 l 808 1304 l 586 1304 l 586 1514 l 808 1514 z "},"Ȭ":{"ha":1118,"x_min":63,"x_max":1054,"o":"m 560 -12 q 296 49 408 -12 q 123 226 183 111 q 63 496 63 342 q 124 764 63 650 q 297 940 185 878 q 560 1001 408 1001 q 823 940 711 1001 q 994 764 935 878 q 1054 496 1054 650 q 994 226 1054 342 q 823 49 935 111 q 560 -12 711 -12 m 560 186 q 734 265 671 186 q 797 496 797 344 q 734 724 797 646 q 560 803 671 803 q 386 725 449 803 q 324 496 324 647 q 386 265 324 343 q 560 186 449 186 m 307 1075 q 353 1242 307 1188 q 469 1297 399 1297 q 515 1288 493 1297 q 571 1260 538 1279 q 615 1236 597 1244 q 650 1228 633 1228 q 689 1244 674 1228 q 708 1293 704 1261 l 808 1293 q 763 1126 808 1181 q 646 1071 717 1071 q 600 1080 622 1071 q 544 1108 578 1089 q 500 1132 518 1124 q 465 1140 482 1140 q 426 1124 442 1140 q 407 1075 411 1107 l 307 1075 m 335 1483 l 781 1483 l 781 1333 l 335 1333 l 335 1483 z "},"Œ":{"ha":1463,"x_min":63,"x_max":1419,"o":"m 968 789 l 968 603 l 1392 603 l 1392 403 l 968 403 l 968 200 l 1419 200 l 1419 0 l 731 0 l 731 44 q 526 -12 658 -12 q 288 53 393 -12 q 122 233 182 118 q 63 496 63 349 q 122 756 63 640 q 288 936 182 871 q 526 1001 393 1001 q 731 947 660 1001 l 731 989 l 1419 989 l 1419 789 l 968 789 m 324 496 q 385 266 324 346 q 560 186 446 186 q 714 224 656 186 l 714 765 q 560 803 656 803 q 385 724 446 803 q 324 496 324 644 z "},"P":{"ha":951,"x_min":89,"x_max":915,"o":"m 89 989 l 560 989 q 822 908 729 989 q 915 688 915 826 q 821 468 915 550 q 560 386 726 386 l 350 386 l 350 0 l 89 0 l 89 989 m 525 581 q 672 685 672 581 q 637 765 672 738 q 525 792 601 792 l 350 792 l 350 581 l 525 581 z "},"Þ":{"ha":953,"x_min":89,"x_max":915,"o":"m 567 799 q 823 719 731 799 q 915 503 915 640 q 822 286 915 365 q 567 207 729 207 l 344 207 l 344 0 l 89 0 l 89 989 l 344 989 l 344 799 l 567 799 m 522 404 q 637 427 601 404 q 672 503 672 450 q 636 577 672 554 q 522 600 600 600 l 344 600 l 344 404 l 522 404 z "},"Q":{"ha":1118,"x_min":63,"x_max":1054,"o":"m 825 51 q 901 -45 856 0 q 1004 -139 946 -90 l 831 -265 q 588 -12 678 -165 l 560 -12 q 296 49 408 -12 q 123 226 183 111 q 63 496 63 342 q 124 764 63 650 q 297 940 185 878 q 560 1001 408 1001 q 823 940 711 1001 q 994 764 935 878 q 1054 496 1054 650 q 994 227 1054 342 q 825 51 935 113 m 324 496 q 386 265 324 343 q 560 186 449 186 q 734 265 671 186 q 797 496 797 344 q 734 724 797 646 q 560 803 671 803 q 386 725 449 803 q 324 496 324 647 z "},"R":{"ha":992,"x_min":89,"x_max":949,"o":"m 949 0 l 672 0 l 544 329 q 440 385 522 385 l 346 385 l 346 0 l 89 0 l 89 989 l 549 989 q 818 912 728 989 q 908 692 908 835 q 855 519 908 592 q 704 415 801 446 q 779 376 746 407 q 832 294 813 346 l 949 0 m 507 579 q 628 605 590 579 q 665 685 665 631 q 628 767 665 742 q 507 792 592 792 l 343 792 l 343 579 l 507 579 z "},"Ŕ":{"ha":992,"x_min":89,"x_max":949,"o":"m 949 0 l 672 0 l 544 329 q 440 385 522 385 l 346 385 l 346 0 l 89 0 l 89 989 l 549 989 q 818 912 728 989 q 908 692 908 835 q 855 519 908 592 q 704 415 801 446 q 779 376 746 407 q 832 294 813 346 l 949 0 m 507 579 q 628 605 590 579 q 665 685 665 631 q 628 767 665 742 q 507 792 592 792 l 343 792 l 343 579 l 507 579 m 425 1074 l 569 1293 l 794 1293 l 576 1074 l 425 1074 z "},"Ř":{"ha":992,"x_min":89,"x_max":949,"o":"m 949 0 l 672 0 l 544 329 q 440 385 522 385 l 346 385 l 346 0 l 89 0 l 89 989 l 549 989 q 818 912 728 989 q 908 692 908 835 q 855 519 908 592 q 704 415 801 446 q 779 376 746 407 q 832 294 813 346 l 949 0 m 507 579 q 628 605 590 579 q 665 685 665 631 q 628 767 665 742 q 507 792 592 792 l 343 792 l 343 579 l 507 579 m 763 1293 l 569 1074 l 432 1074 l 239 1293 l 421 1293 l 501 1183 l 581 1293 l 763 1293 z "},"Ŗ":{"ha":992,"x_min":89,"x_max":949,"o":"m 949 0 l 672 0 l 544 329 q 440 385 522 385 l 346 385 l 346 0 l 89 0 l 89 989 l 549 989 q 818 912 728 989 q 908 692 908 835 q 855 519 908 592 q 704 415 801 446 q 779 376 746 407 q 832 294 813 346 l 949 0 m 507 579 q 628 605 590 579 q 665 685 665 631 q 628 767 665 742 q 507 792 592 792 l 343 792 l 343 579 l 507 579 m 621 -89 l 621 -182 q 601 -301 621 -251 q 532 -394 581 -351 l 446 -336 q 492 -267 483 -303 l 382 -267 l 382 -89 l 621 -89 z "},"Ȑ":{"ha":992,"x_min":89,"x_max":949,"o":"m 949 0 l 672 0 l 544 329 q 440 385 522 385 l 346 385 l 346 0 l 89 0 l 89 989 l 549 989 q 818 912 728 989 q 908 692 908 835 q 855 519 908 592 q 704 415 801 446 q 779 376 746 407 q 832 294 813 346 l 949 0 m 507 579 q 628 605 590 579 q 665 685 665 631 q 628 767 665 742 q 507 792 592 792 l 343 792 l 343 579 l 507 579 m 196 1293 l 354 1293 l 458 1074 l 336 1074 l 196 1293 m 401 1293 l 561 1293 l 665 1074 l 543 1074 l 401 1293 z "},"Ṛ":{"ha":992,"x_min":89,"x_max":949,"o":"m 949 0 l 672 0 l 544 329 q 440 385 522 385 l 346 385 l 346 0 l 89 0 l 89 989 l 549 989 q 818 912 728 989 q 908 692 908 835 q 855 519 908 592 q 704 415 801 446 q 779 376 746 407 q 832 294 813 346 l 949 0 m 507 579 q 628 605 590 579 q 665 685 665 631 q 628 767 665 742 q 507 792 592 792 l 343 792 l 343 579 l 507 579 m 613 -79 l 613 -289 l 392 -289 l 392 -79 l 613 -79 z "},"Ȓ":{"ha":992,"x_min":89,"x_max":949,"o":"m 949 0 l 672 0 l 544 329 q 440 385 522 385 l 346 385 l 346 0 l 89 0 l 89 989 l 549 989 q 818 912 728 989 q 908 692 908 835 q 855 519 908 592 q 704 415 801 446 q 779 376 746 407 q 832 294 813 346 l 949 0 m 507 579 q 628 605 590 579 q 665 685 665 631 q 628 767 665 742 q 507 792 592 792 l 343 792 l 343 579 l 507 579 m 501 1283 q 665 1243 597 1283 q 758 1129 733 1203 l 651 1085 q 501 1142 610 1142 q 350 1085 392 1142 l 243 1129 q 336 1243 268 1203 q 501 1283 404 1283 z "},"Ṟ":{"ha":992,"x_min":89,"x_max":949,"o":"m 949 0 l 672 0 l 544 329 q 440 385 522 385 l 346 385 l 346 0 l 89 0 l 89 989 l 549 989 q 818 912 728 989 q 908 692 908 835 q 855 519 908 592 q 704 415 801 446 q 779 376 746 407 q 832 294 813 346 l 949 0 m 507 579 q 628 605 590 579 q 665 685 665 631 q 628 767 665 742 q 507 792 592 792 l 343 792 l 343 579 l 507 579 m 279 -114 l 725 -114 l 725 -254 l 279 -254 l 279 -114 z "},"S":{"ha":933,"x_min":51,"x_max":876,"o":"m 447 -12 q 228 17 336 -12 q 51 96 119 46 l 133 281 q 287 210 206 235 q 450 186 368 186 q 578 209 533 186 q 622 274 622 232 q 582 335 622 311 q 431 383 542 360 q 213 452 290 411 q 103 549 135 493 q 72 683 72 604 q 124 847 72 774 q 268 960 175 919 q 481 1001 361 1001 q 688 972 588 1001 q 846 893 789 942 l 765 708 q 628 778 700 754 q 483 803 556 803 q 369 776 413 803 q 326 703 326 749 q 342 661 326 678 q 399 628 357 644 q 524 594 440 613 q 735 524 658 565 q 844 428 813 483 q 876 297 876 374 q 764 70 876 153 q 447 -12 651 -12 z "},"Ś":{"ha":933,"x_min":51,"x_max":876,"o":"m 447 -12 q 228 17 336 -12 q 51 96 119 46 l 133 281 q 287 210 206 235 q 450 186 368 186 q 578 209 533 186 q 622 274 622 232 q 582 335 622 311 q 431 383 542 360 q 213 452 290 411 q 103 549 135 493 q 72 683 72 604 q 124 847 72 774 q 268 960 175 919 q 481 1001 361 1001 q 688 972 588 1001 q 846 893 789 942 l 765 708 q 628 778 700 754 q 483 803 556 803 q 369 776 413 803 q 326 703 326 749 q 342 661 326 678 q 399 628 357 644 q 524 594 440 613 q 735 524 658 565 q 844 428 813 483 q 876 297 876 374 q 764 70 876 153 q 447 -12 651 -12 m 396 1074 l 540 1293 l 765 1293 l 547 1074 l 396 1074 z "},"Ṥ":{"ha":933,"x_min":51,"x_max":876,"o":"m 447 -12 q 228 17 336 -12 q 51 96 119 46 l 133 281 q 287 210 206 235 q 450 186 368 186 q 578 209 533 186 q 622 274 622 232 q 582 335 622 311 q 431 383 542 360 q 213 452 290 411 q 103 549 135 493 q 72 683 72 604 q 124 847 72 774 q 268 960 175 919 q 481 1001 361 1001 q 688 972 588 1001 q 846 893 789 942 l 765 708 q 628 778 700 754 q 483 803 556 803 q 369 776 413 803 q 326 703 326 749 q 342 661 326 678 q 399 628 357 644 q 524 594 440 613 q 735 524 658 565 q 844 428 813 483 q 876 297 876 374 q 764 70 876 153 q 447 -12 651 -12 m 443 1074 l 588 1293 l 813 1293 l 594 1074 l 443 1074 m 426 1292 l 426 1065 l 164 1065 l 164 1292 l 426 1292 z "},"Š":{"ha":933,"x_min":51,"x_max":876,"o":"m 447 -12 q 228 17 336 -12 q 51 96 119 46 l 133 281 q 287 210 206 235 q 450 186 368 186 q 578 209 533 186 q 622 274 622 232 q 582 335 622 311 q 431 383 542 360 q 213 452 290 411 q 103 549 135 493 q 72 683 72 604 q 124 847 72 774 q 268 960 175 919 q 481 1001 361 1001 q 688 972 588 1001 q 846 893 789 942 l 765 708 q 628 778 700 754 q 483 803 556 803 q 369 776 413 803 q 326 703 326 749 q 342 661 326 678 q 399 628 357 644 q 524 594 440 613 q 735 524 658 565 q 844 428 813 483 q 876 297 876 374 q 764 70 876 153 q 447 -12 651 -12 m 733 1293 l 540 1074 l 403 1074 l 210 1293 l 392 1293 l 472 1183 l 551 1293 l 733 1293 z "},"Ṧ":{"ha":933,"x_min":51,"x_max":876,"o":"m 447 -12 q 228 17 336 -12 q 51 96 119 46 l 133 281 q 287 210 206 235 q 450 186 368 186 q 578 209 533 186 q 622 274 622 232 q 582 335 622 311 q 431 383 542 360 q 213 452 290 411 q 103 549 135 493 q 72 683 72 604 q 124 847 72 774 q 268 960 175 919 q 481 1001 361 1001 q 688 972 588 1001 q 846 893 789 942 l 765 708 q 628 778 700 754 q 483 803 556 803 q 369 776 413 803 q 326 703 326 749 q 342 661 326 678 q 399 628 357 644 q 524 594 440 613 q 735 524 658 565 q 844 428 813 483 q 876 297 876 374 q 764 70 876 153 q 447 -12 651 -12 m 733 1293 l 540 1074 l 403 1074 l 210 1293 l 392 1293 l 472 1183 l 551 1293 l 733 1293 m 603 1522 l 603 1296 l 340 1296 l 340 1522 l 603 1522 z "},"Ş":{"ha":933,"x_min":51,"x_max":876,"o":"m 876 297 q 780 83 876 164 q 508 -11 683 1 l 501 -56 l 513 -56 q 601 -82 569 -56 q 633 -153 633 -108 q 582 -244 633 -210 q 433 -278 531 -278 q 366 -272 403 -278 q 299 -254 329 -265 l 314 -164 q 425 -183 389 -183 q 485 -153 485 -183 q 440 -129 485 -129 q 396 -136 424 -129 l 368 -106 l 381 -10 q 197 26 286 -3 q 51 96 108 54 l 133 281 q 287 210 206 235 q 450 186 368 186 q 578 209 533 186 q 622 274 622 232 q 582 335 622 311 q 431 383 542 360 q 213 452 290 411 q 103 549 135 493 q 72 683 72 604 q 124 847 72 774 q 268 960 175 919 q 481 1001 361 1001 q 688 972 588 1001 q 846 893 789 942 l 765 708 q 628 778 700 754 q 483 803 556 803 q 369 776 413 803 q 326 703 326 749 q 342 661 326 678 q 399 628 357 644 q 524 594 440 613 q 735 524 658 565 q 844 428 813 483 q 876 297 876 374 z "},"Ŝ":{"ha":933,"x_min":51,"x_max":876,"o":"m 447 -12 q 228 17 336 -12 q 51 96 119 46 l 133 281 q 287 210 206 235 q 450 186 368 186 q 578 209 533 186 q 622 274 622 232 q 582 335 622 311 q 431 383 542 360 q 213 452 290 411 q 103 549 135 493 q 72 683 72 604 q 124 847 72 774 q 268 960 175 919 q 481 1001 361 1001 q 688 972 588 1001 q 846 893 789 942 l 765 708 q 628 778 700 754 q 483 803 556 803 q 369 776 413 803 q 326 703 326 749 q 342 661 326 678 q 399 628 357 644 q 524 594 440 613 q 735 524 658 565 q 844 428 813 483 q 876 297 876 374 q 764 70 876 153 q 447 -12 651 -12 m 210 1074 l 403 1293 l 540 1293 l 733 1074 l 551 1074 l 472 1182 l 392 1074 l 210 1074 z "},"Ș":{"ha":933,"x_min":51,"x_max":876,"o":"m 447 -12 q 228 17 336 -12 q 51 96 119 46 l 133 281 q 287 210 206 235 q 450 186 368 186 q 578 209 533 186 q 622 274 622 232 q 582 335 622 311 q 431 383 542 360 q 213 452 290 411 q 103 549 135 493 q 72 683 72 604 q 124 847 72 774 q 268 960 175 919 q 481 1001 361 1001 q 688 972 588 1001 q 846 893 789 942 l 765 708 q 628 778 700 754 q 483 803 556 803 q 369 776 413 803 q 326 703 326 749 q 342 661 326 678 q 399 628 357 644 q 524 594 440 613 q 735 524 658 565 q 844 428 813 483 q 876 297 876 374 q 764 70 876 153 q 447 -12 651 -12 m 579 -89 l 579 -182 q 559 -301 579 -251 q 490 -394 539 -351 l 404 -336 q 450 -267 442 -303 l 340 -267 l 340 -89 l 579 -89 z "},"Ṡ":{"ha":933,"x_min":51,"x_max":876,"o":"m 447 -12 q 228 17 336 -12 q 51 96 119 46 l 133 281 q 287 210 206 235 q 450 186 368 186 q 578 209 533 186 q 622 274 622 232 q 582 335 622 311 q 431 383 542 360 q 213 452 290 411 q 103 549 135 493 q 72 683 72 604 q 124 847 72 774 q 268 960 175 919 q 481 1001 361 1001 q 688 972 588 1001 q 846 893 789 942 l 765 708 q 628 778 700 754 q 483 803 556 803 q 369 776 413 803 q 326 703 326 749 q 342 661 326 678 q 399 628 357 644 q 524 594 440 613 q 735 524 658 565 q 844 428 813 483 q 876 297 876 374 q 764 70 876 153 q 447 -12 651 -12 m 603 1297 l 603 1071 l 340 1071 l 340 1297 l 603 1297 z "},"Ṣ":{"ha":933,"x_min":51,"x_max":876,"o":"m 447 -12 q 228 17 336 -12 q 51 96 119 46 l 133 281 q 287 210 206 235 q 450 186 368 186 q 578 209 533 186 q 622 274 622 232 q 582 335 622 311 q 431 383 542 360 q 213 452 290 411 q 103 549 135 493 q 72 683 72 604 q 124 847 72 774 q 268 960 175 919 q 481 1001 361 1001 q 688 972 588 1001 q 846 893 789 942 l 765 708 q 628 778 700 754 q 483 803 556 803 q 369 776 413 803 q 326 703 326 749 q 342 661 326 678 q 399 628 357 644 q 524 594 440 613 q 735 524 658 565 q 844 428 813 483 q 876 297 876 374 q 764 70 876 153 q 447 -12 651 -12 m 571 -79 l 571 -289 l 350 -289 l 350 -79 l 571 -79 z "},"Ṩ":{"ha":933,"x_min":51,"x_max":876,"o":"m 447 -12 q 228 17 336 -12 q 51 96 119 46 l 133 281 q 287 210 206 235 q 450 186 368 186 q 578 209 533 186 q 622 274 622 232 q 582 335 622 311 q 431 383 542 360 q 213 452 290 411 q 103 549 135 493 q 72 683 72 604 q 124 847 72 774 q 268 960 175 919 q 481 1001 361 1001 q 688 972 588 1001 q 846 893 789 942 l 765 708 q 628 778 700 754 q 483 803 556 803 q 369 776 413 803 q 326 703 326 749 q 342 661 326 678 q 399 628 357 644 q 524 594 440 613 q 735 524 658 565 q 844 428 813 483 q 876 297 876 374 q 764 70 876 153 q 447 -12 651 -12 m 571 -79 l 571 -289 l 350 -289 l 350 -79 l 571 -79 m 603 1297 l 603 1071 l 340 1071 l 340 1297 l 603 1297 z "},"ẞ":{"ha":1008,"x_min":89,"x_max":969,"o":"m 764 517 q 915 433 860 497 q 969 278 969 369 q 928 132 969 197 q 814 29 886 67 q 653 -8 742 -8 q 505 10 568 -8 q 386 68 442 28 l 451 249 q 639 182 557 182 q 701 210 678 182 q 724 288 724 239 q 687 375 724 350 q 556 400 650 400 l 432 400 l 432 600 l 538 600 q 651 693 651 600 q 615 770 651 742 q 519 799 579 799 q 390 751 436 799 q 344 618 344 704 l 344 0 l 89 0 l 89 611 q 205 896 89 793 q 526 999 321 999 q 719 964 636 999 q 847 865 801 929 q 892 717 892 801 q 858 597 892 650 q 764 517 824 544 z "},"Ə":{"ha":1092,"x_min":63,"x_max":1026,"o":"m 513 1001 q 784 940 668 1001 q 963 763 900 878 q 1026 496 1026 649 q 968 234 1026 350 q 804 53 910 118 q 564 -12 699 -12 q 195 121 328 -12 q 63 503 63 254 l 63 597 l 760 597 q 503 797 718 797 q 222 708 346 797 l 140 893 q 308 972 206 943 q 513 1001 411 1001 m 556 186 q 764 401 735 186 l 328 401 q 399 240 342 294 q 556 186 457 186 z "},"T":{"ha":886,"x_min":17,"x_max":869,"o":"m 311 778 l 17 778 l 17 989 l 869 989 l 869 778 l 575 778 l 575 0 l 311 0 l 311 778 z "},"Ŧ":{"ha":886,"x_min":17,"x_max":869,"o":"m 575 778 l 575 596 l 760 596 l 760 401 l 575 401 l 575 0 l 311 0 l 311 401 l 126 401 l 126 596 l 311 596 l 311 778 l 17 778 l 17 989 l 869 989 l 869 778 l 575 778 z "},"Ť":{"ha":886,"x_min":17,"x_max":869,"o":"m 311 778 l 17 778 l 17 989 l 869 989 l 869 778 l 575 778 l 575 0 l 311 0 l 311 778 m 704 1293 l 511 1074 l 374 1074 l 181 1293 l 363 1293 l 443 1183 l 522 1293 l 704 1293 z "},"Ţ":{"ha":886,"x_min":17,"x_max":869,"o":"m 492 0 l 483 -56 l 494 -56 q 583 -82 551 -56 q 615 -153 615 -108 q 564 -244 615 -210 q 415 -278 513 -278 q 348 -272 385 -278 q 281 -254 311 -265 l 296 -164 q 407 -183 371 -183 q 467 -153 467 -183 q 422 -129 467 -129 q 378 -136 406 -129 l 350 -106 l 364 0 l 311 0 l 311 778 l 17 778 l 17 989 l 869 989 l 869 778 l 575 778 l 575 0 l 492 0 z "},"Ț":{"ha":886,"x_min":17,"x_max":869,"o":"m 311 778 l 17 778 l 17 989 l 869 989 l 869 778 l 575 778 l 575 0 l 311 0 l 311 778 m 561 -89 l 561 -182 q 541 -301 561 -251 q 472 -394 521 -351 l 386 -336 q 432 -267 424 -303 l 322 -267 l 322 -89 l 561 -89 z "},"Ṭ":{"ha":886,"x_min":17,"x_max":869,"o":"m 311 778 l 17 778 l 17 989 l 869 989 l 869 778 l 575 778 l 575 0 l 311 0 l 311 778 m 553 -79 l 553 -289 l 332 -289 l 332 -79 l 553 -79 z "},"Ṯ":{"ha":886,"x_min":17,"x_max":869,"o":"m 311 778 l 17 778 l 17 989 l 869 989 l 869 778 l 575 778 l 575 0 l 311 0 l 311 778 m 219 -114 l 665 -114 l 665 -254 l 219 -254 l 219 -114 z "},"U":{"ha":1044,"x_min":85,"x_max":963,"o":"m 524 -12 q 196 97 307 -12 q 85 417 85 206 l 85 989 l 339 989 l 339 407 q 387 243 339 300 q 524 186 435 186 q 658 244 611 186 q 706 407 706 301 l 706 989 l 963 989 l 963 417 q 849 98 963 208 q 524 -12 736 -12 z "},"Ú":{"ha":1044,"x_min":85,"x_max":963,"o":"m 524 -12 q 196 97 307 -12 q 85 417 85 206 l 85 989 l 339 989 l 339 407 q 387 243 339 300 q 524 186 435 186 q 658 244 611 186 q 706 407 706 301 l 706 989 l 963 989 l 963 417 q 849 98 963 208 q 524 -12 736 -12 m 447 1074 l 592 1293 l 817 1293 l 599 1074 l 447 1074 z "},"Ŭ":{"ha":1044,"x_min":85,"x_max":963,"o":"m 524 -12 q 196 97 307 -12 q 85 417 85 206 l 85 989 l 339 989 l 339 407 q 387 243 339 300 q 524 186 435 186 q 658 244 611 186 q 706 407 706 301 l 706 989 l 963 989 l 963 417 q 849 98 963 208 q 524 -12 736 -12 m 524 1085 q 358 1125 426 1085 q 265 1239 290 1165 l 372 1285 q 524 1228 414 1228 q 674 1285 632 1228 l 781 1239 q 688 1125 756 1165 q 524 1085 619 1085 z "},"Û":{"ha":1044,"x_min":85,"x_max":963,"o":"m 524 -12 q 196 97 307 -12 q 85 417 85 206 l 85 989 l 339 989 l 339 407 q 387 243 339 300 q 524 186 435 186 q 658 244 611 186 q 706 407 706 301 l 706 989 l 963 989 l 963 417 q 849 98 963 208 q 524 -12 736 -12 m 261 1074 l 454 1293 l 592 1293 l 785 1074 l 603 1074 l 524 1182 l 443 1074 l 261 1074 z "},"Ȕ":{"ha":1044,"x_min":85,"x_max":963,"o":"m 524 -12 q 196 97 307 -12 q 85 417 85 206 l 85 989 l 339 989 l 339 407 q 387 243 339 300 q 524 186 435 186 q 658 244 611 186 q 706 407 706 301 l 706 989 l 963 989 l 963 417 q 849 98 963 208 q 524 -12 736 -12 m 218 1293 l 376 1293 l 481 1074 l 358 1074 l 218 1293 m 424 1293 l 583 1293 l 688 1074 l 565 1074 l 424 1293 z "},"Ü":{"ha":1044,"x_min":85,"x_max":963,"o":"m 524 -12 q 196 97 307 -12 q 85 417 85 206 l 85 989 l 339 989 l 339 407 q 387 243 339 300 q 524 186 435 186 q 658 244 611 186 q 706 407 706 301 l 706 989 l 963 989 l 963 417 q 849 98 963 208 q 524 -12 736 -12 m 494 1289 l 494 1079 l 272 1079 l 272 1289 l 494 1289 m 774 1289 l 774 1079 l 551 1079 l 551 1289 l 774 1289 z "},"Ụ":{"ha":1044,"x_min":85,"x_max":963,"o":"m 524 -12 q 196 97 307 -12 q 85 417 85 206 l 85 989 l 339 989 l 339 407 q 387 243 339 300 q 524 186 435 186 q 658 244 611 186 q 706 407 706 301 l 706 989 l 963 989 l 963 417 q 849 98 963 208 q 524 -12 736 -12 m 633 -79 l 633 -289 l 413 -289 l 413 -79 l 633 -79 z "},"Ù":{"ha":1044,"x_min":85,"x_max":963,"o":"m 524 -12 q 196 97 307 -12 q 85 417 85 206 l 85 989 l 339 989 l 339 407 q 387 243 339 300 q 524 186 435 186 q 658 244 611 186 q 706 407 706 301 l 706 989 l 963 989 l 963 417 q 849 98 963 208 q 524 -12 736 -12 m 229 1293 l 454 1293 l 599 1074 l 447 1074 l 229 1293 z "},"Ủ":{"ha":1044,"x_min":85,"x_max":963,"o":"m 524 -12 q 196 97 307 -12 q 85 417 85 206 l 85 989 l 339 989 l 339 407 q 387 243 339 300 q 524 186 435 186 q 658 244 611 186 q 706 407 706 301 l 706 989 l 963 989 l 963 417 q 849 98 963 208 q 524 -12 736 -12 m 581 1074 l 464 1074 l 464 1106 q 481 1143 464 1131 q 526 1168 497 1156 q 556 1188 556 1178 q 513 1210 556 1210 q 436 1196 479 1210 l 406 1274 q 547 1299 468 1299 q 658 1272 615 1299 q 700 1210 700 1246 q 681 1167 700 1183 q 631 1138 663 1151 q 592 1116 604 1125 q 581 1093 581 1107 l 581 1074 z "},"Ư":{"ha":1044,"x_min":85,"x_max":1117,"o":"m 1117 1157 l 1117 1097 q 1074 960 1117 1019 q 963 882 1032 901 l 963 417 q 849 98 963 208 q 524 -12 736 -12 q 196 97 307 -12 q 85 417 85 206 l 85 989 l 339 989 l 339 407 q 387 243 339 300 q 524 186 435 186 q 658 244 611 186 q 706 407 706 301 l 706 989 l 781 989 q 875 1019 849 989 q 901 1126 901 1049 l 901 1157 l 1117 1157 z "},"Ứ":{"ha":1044,"x_min":85,"x_max":1117,"o":"m 1117 1157 l 1117 1097 q 1074 960 1117 1019 q 963 882 1032 901 l 963 417 q 849 98 963 208 q 524 -12 736 -12 q 196 97 307 -12 q 85 417 85 206 l 85 989 l 339 989 l 339 407 q 387 243 339 300 q 524 186 435 186 q 658 244 611 186 q 706 407 706 301 l 706 989 l 781 989 q 875 1019 849 989 q 901 1126 901 1049 l 901 1157 l 1117 1157 m 447 1074 l 592 1293 l 817 1293 l 599 1074 l 447 1074 z "},"Ự":{"ha":1044,"x_min":85,"x_max":1117,"o":"m 1117 1157 l 1117 1097 q 1074 960 1117 1019 q 963 882 1032 901 l 963 417 q 849 98 963 208 q 524 -12 736 -12 q 196 97 307 -12 q 85 417 85 206 l 85 989 l 339 989 l 339 407 q 387 243 339 300 q 524 186 435 186 q 658 244 611 186 q 706 407 706 301 l 706 989 l 781 989 q 875 1019 849 989 q 901 1126 901 1049 l 901 1157 l 1117 1157 m 633 -79 l 633 -289 l 413 -289 l 413 -79 l 633 -79 z "},"Ừ":{"ha":1044,"x_min":85,"x_max":1117,"o":"m 1117 1157 l 1117 1097 q 1074 960 1117 1019 q 963 882 1032 901 l 963 417 q 849 98 963 208 q 524 -12 736 -12 q 196 97 307 -12 q 85 417 85 206 l 85 989 l 339 989 l 339 407 q 387 243 339 300 q 524 186 435 186 q 658 244 611 186 q 706 407 706 301 l 706 989 l 781 989 q 875 1019 849 989 q 901 1126 901 1049 l 901 1157 l 1117 1157 m 229 1293 l 454 1293 l 599 1074 l 447 1074 l 229 1293 z "},"Ử":{"ha":1044,"x_min":85,"x_max":1117,"o":"m 1117 1157 l 1117 1097 q 1074 960 1117 1019 q 963 882 1032 901 l 963 417 q 849 98 963 208 q 524 -12 736 -12 q 196 97 307 -12 q 85 417 85 206 l 85 989 l 339 989 l 339 407 q 387 243 339 300 q 524 186 435 186 q 658 244 611 186 q 706 407 706 301 l 706 989 l 781 989 q 875 1019 849 989 q 901 1126 901 1049 l 901 1157 l 1117 1157 m 581 1074 l 464 1074 l 464 1106 q 481 1143 464 1131 q 526 1168 497 1156 q 556 1188 556 1178 q 513 1210 556 1210 q 436 1196 479 1210 l 406 1274 q 547 1299 468 1299 q 658 1272 615 1299 q 700 1210 700 1246 q 681 1167 700 1183 q 631 1138 663 1151 q 592 1116 604 1125 q 581 1093 581 1107 l 581 1074 z "},"Ữ":{"ha":1044,"x_min":85,"x_max":1117,"o":"m 1117 1157 l 1117 1097 q 1074 960 1117 1019 q 963 882 1032 901 l 963 417 q 849 98 963 208 q 524 -12 736 -12 q 196 97 307 -12 q 85 417 85 206 l 85 989 l 339 989 l 339 407 q 387 243 339 300 q 524 186 435 186 q 658 244 611 186 q 706 407 706 301 l 706 989 l 781 989 q 875 1019 849 989 q 901 1126 901 1049 l 901 1157 l 1117 1157 m 272 1075 q 318 1242 272 1188 q 435 1297 364 1297 q 481 1288 458 1297 q 536 1260 503 1279 q 581 1236 563 1244 q 615 1228 599 1228 q 654 1244 639 1228 q 674 1293 669 1261 l 774 1293 q 728 1126 774 1181 q 611 1071 682 1071 q 565 1080 588 1071 q 510 1108 543 1089 q 465 1132 483 1124 q 431 1140 447 1140 q 392 1124 407 1140 q 372 1075 376 1107 l 272 1075 z "},"Ű":{"ha":1044,"x_min":85,"x_max":963,"o":"m 524 -12 q 196 97 307 -12 q 85 417 85 206 l 85 989 l 339 989 l 339 407 q 387 243 339 300 q 524 186 435 186 q 658 244 611 186 q 706 407 706 301 l 706 989 l 963 989 l 963 417 q 849 98 963 208 q 524 -12 736 -12 m 463 1293 l 622 1293 l 481 1074 l 358 1074 l 463 1293 m 669 1293 l 828 1293 l 688 1074 l 565 1074 l 669 1293 z "},"Ȗ":{"ha":1044,"x_min":85,"x_max":963,"o":"m 524 -12 q 196 97 307 -12 q 85 417 85 206 l 85 989 l 339 989 l 339 407 q 387 243 339 300 q 524 186 435 186 q 658 244 611 186 q 706 407 706 301 l 706 989 l 963 989 l 963 417 q 849 98 963 208 q 524 -12 736 -12 m 524 1283 q 688 1243 619 1283 q 781 1129 756 1203 l 674 1085 q 524 1142 632 1142 q 372 1085 414 1142 l 265 1129 q 358 1243 290 1203 q 524 1283 426 1283 z "},"Ū":{"ha":1044,"x_min":85,"x_max":963,"o":"m 524 -12 q 196 97 307 -12 q 85 417 85 206 l 85 989 l 339 989 l 339 407 q 387 243 339 300 q 524 186 435 186 q 658 244 611 186 q 706 407 706 301 l 706 989 l 963 989 l 963 417 q 849 98 963 208 q 524 -12 736 -12 m 300 1258 l 746 1258 l 746 1108 l 300 1108 l 300 1258 z "},"Ṻ":{"ha":1044,"x_min":85,"x_max":963,"o":"m 524 -12 q 196 97 307 -12 q 85 417 85 206 l 85 989 l 339 989 l 339 407 q 387 243 339 300 q 524 186 435 186 q 658 244 611 186 q 706 407 706 301 l 706 989 l 963 989 l 963 417 q 849 98 963 208 q 524 -12 736 -12 m 300 1258 l 746 1258 l 746 1108 l 300 1108 l 300 1258 m 494 1514 l 494 1304 l 272 1304 l 272 1514 l 494 1514 m 774 1514 l 774 1304 l 551 1304 l 551 1514 l 774 1514 z "},"Ų":{"ha":1044,"x_min":85,"x_max":963,"o":"m 963 989 l 963 417 q 892 147 963 251 q 683 7 821 43 q 627 -27 647 -3 q 607 -85 607 -51 q 688 -154 607 -154 q 761 -139 719 -154 l 786 -251 q 639 -278 719 -278 q 505 -235 557 -278 q 453 -122 453 -192 q 464 -63 453 -92 q 497 -12 475 -35 q 189 103 293 -6 q 85 417 85 213 l 85 989 l 339 989 l 339 407 q 387 243 339 300 q 524 186 435 186 q 658 244 611 186 q 706 407 706 301 l 706 989 l 963 989 z "},"Ů":{"ha":1044,"x_min":85,"x_max":963,"o":"m 524 -12 q 196 97 307 -12 q 85 417 85 206 l 85 989 l 339 989 l 339 407 q 387 243 339 300 q 524 186 435 186 q 658 244 611 186 q 706 407 706 301 l 706 989 l 963 989 l 963 417 q 849 98 963 208 q 524 -12 736 -12 m 524 1067 q 410 1111 457 1067 q 364 1222 364 1156 q 410 1333 364 1288 q 524 1378 457 1378 q 635 1332 589 1378 q 682 1222 682 1286 q 636 1111 682 1156 q 524 1067 590 1067 m 524 1160 q 565 1178 549 1160 q 581 1222 581 1196 q 565 1265 581 1247 q 524 1282 549 1282 q 482 1265 499 1282 q 465 1222 465 1247 q 482 1178 465 1196 q 524 1160 499 1160 z "},"Ũ":{"ha":1044,"x_min":85,"x_max":963,"o":"m 524 -12 q 196 97 307 -12 q 85 417 85 206 l 85 989 l 339 989 l 339 407 q 387 243 339 300 q 524 186 435 186 q 658 244 611 186 q 706 407 706 301 l 706 989 l 963 989 l 963 417 q 849 98 963 208 q 524 -12 736 -12 m 272 1075 q 318 1242 272 1188 q 435 1297 364 1297 q 481 1288 458 1297 q 536 1260 503 1279 q 581 1236 563 1244 q 615 1228 599 1228 q 654 1244 639 1228 q 674 1293 669 1261 l 774 1293 q 728 1126 774 1181 q 611 1071 682 1071 q 565 1080 588 1071 q 510 1108 543 1089 q 465 1132 483 1124 q 431 1140 447 1140 q 392 1124 407 1140 q 372 1075 376 1107 l 272 1075 z "},"Ṹ":{"ha":1044,"x_min":85,"x_max":963,"o":"m 524 -12 q 196 97 307 -12 q 85 417 85 206 l 85 989 l 339 989 l 339 407 q 387 243 339 300 q 524 186 435 186 q 658 244 611 186 q 706 407 706 301 l 706 989 l 963 989 l 963 417 q 849 98 963 208 q 524 -12 736 -12 m 272 1075 q 318 1242 272 1188 q 435 1297 364 1297 q 481 1288 458 1297 q 536 1260 503 1279 q 581 1236 563 1244 q 615 1228 599 1228 q 654 1244 639 1228 q 674 1293 669 1261 l 774 1293 q 728 1126 774 1181 q 611 1071 682 1071 q 565 1080 588 1071 q 510 1108 543 1089 q 465 1132 483 1124 q 431 1140 447 1140 q 392 1124 407 1140 q 372 1075 376 1107 l 272 1075 m 447 1299 l 592 1518 l 817 1518 l 599 1299 l 447 1299 z "},"V":{"ha":1043,"x_min":-32,"x_max":1075,"o":"m 1075 989 l 625 0 l 418 0 l -32 989 l 239 989 l 524 325 l 813 989 l 1075 989 z "},"W":{"ha":1572,"x_min":17,"x_max":1556,"o":"m 1556 989 l 1201 0 l 994 0 l 788 588 l 576 0 l 369 0 l 17 989 l 282 989 l 485 365 l 706 989 l 883 989 l 1096 354 l 1308 989 l 1556 989 z "},"Ẃ":{"ha":1572,"x_min":17,"x_max":1556,"o":"m 1556 989 l 1201 0 l 994 0 l 788 588 l 576 0 l 369 0 l 17 989 l 282 989 l 485 365 l 706 989 l 883 989 l 1096 354 l 1308 989 l 1556 989 m 711 1074 l 856 1293 l 1081 1293 l 863 1074 l 711 1074 z "},"Ŵ":{"ha":1572,"x_min":17,"x_max":1556,"o":"m 1556 989 l 1201 0 l 994 0 l 788 588 l 576 0 l 369 0 l 17 989 l 282 989 l 485 365 l 706 989 l 883 989 l 1096 354 l 1308 989 l 1556 989 m 525 1074 l 718 1293 l 856 1293 l 1049 1074 l 867 1074 l 788 1182 l 707 1074 l 525 1074 z "},"Ẅ":{"ha":1572,"x_min":17,"x_max":1556,"o":"m 1556 989 l 1201 0 l 994 0 l 788 588 l 576 0 l 369 0 l 17 989 l 282 989 l 485 365 l 706 989 l 883 989 l 1096 354 l 1308 989 l 1556 989 m 758 1289 l 758 1079 l 536 1079 l 536 1289 l 758 1289 m 1038 1289 l 1038 1079 l 815 1079 l 815 1289 l 1038 1289 z "},"Ẁ":{"ha":1572,"x_min":17,"x_max":1556,"o":"m 1556 989 l 1201 0 l 994 0 l 788 588 l 576 0 l 369 0 l 17 989 l 282 989 l 485 365 l 706 989 l 883 989 l 1096 354 l 1308 989 l 1556 989 m 493 1293 l 718 1293 l 863 1074 l 711 1074 l 493 1293 z "},"X":{"ha":964,"x_min":-44,"x_max":1006,"o":"m 1006 0 l 701 0 l 481 308 l 258 0 l -44 0 l 332 500 l -36 989 l 265 989 l 479 689 l 697 989 l 1000 989 l 628 500 l 1006 0 z "},"Y":{"ha":913,"x_min":-90,"x_max":1006,"o":"m 588 378 l 588 0 l 325 0 l 325 379 l -90 989 l 204 989 l 454 594 l 708 989 l 1006 989 l 588 378 z "},"Ý":{"ha":913,"x_min":-90,"x_max":1006,"o":"m 588 378 l 588 0 l 325 0 l 325 379 l -90 989 l 204 989 l 454 594 l 708 989 l 1006 989 l 588 378 m 379 1074 l 524 1293 l 749 1293 l 531 1074 l 379 1074 z "},"Ŷ":{"ha":913,"x_min":-90,"x_max":1006,"o":"m 588 378 l 588 0 l 325 0 l 325 379 l -90 989 l 204 989 l 454 594 l 708 989 l 1006 989 l 588 378 m 193 1074 l 386 1293 l 524 1293 l 717 1074 l 535 1074 l 456 1182 l 375 1074 l 193 1074 z "},"Ÿ":{"ha":913,"x_min":-90,"x_max":1006,"o":"m 588 378 l 588 0 l 325 0 l 325 379 l -90 989 l 204 989 l 454 594 l 708 989 l 1006 989 l 588 378 m 426 1289 l 426 1079 l 204 1079 l 204 1289 l 426 1289 m 706 1289 l 706 1079 l 483 1079 l 483 1289 l 706 1289 z "},"Ẏ":{"ha":913,"x_min":-90,"x_max":1006,"o":"m 588 378 l 588 0 l 325 0 l 325 379 l -90 989 l 204 989 l 454 594 l 708 989 l 1006 989 l 588 378 m 586 1297 l 586 1071 l 324 1071 l 324 1297 l 586 1297 z "},"Ỵ":{"ha":913,"x_min":-90,"x_max":1006,"o":"m 588 378 l 588 0 l 325 0 l 325 379 l -90 989 l 204 989 l 454 594 l 708 989 l 1006 989 l 588 378 m 567 -79 l 567 -289 l 346 -289 l 346 -79 l 567 -79 z "},"Ỳ":{"ha":913,"x_min":-90,"x_max":1006,"o":"m 588 378 l 588 0 l 325 0 l 325 379 l -90 989 l 204 989 l 454 594 l 708 989 l 1006 989 l 588 378 m 161 1293 l 386 1293 l 531 1074 l 379 1074 l 161 1293 z "},"Ỷ":{"ha":913,"x_min":-90,"x_max":1006,"o":"m 588 378 l 588 0 l 325 0 l 325 379 l -90 989 l 204 989 l 454 594 l 708 989 l 1006 989 l 588 378 m 513 1074 l 396 1074 l 396 1106 q 413 1143 396 1131 q 458 1168 429 1156 q 488 1188 488 1178 q 444 1210 488 1210 q 368 1196 411 1210 l 338 1274 q 479 1299 400 1299 q 590 1272 547 1299 q 632 1210 632 1246 q 613 1167 632 1183 q 563 1138 594 1151 q 524 1116 536 1125 q 513 1093 513 1107 l 513 1074 z "},"Ȳ":{"ha":913,"x_min":-90,"x_max":1006,"o":"m 588 378 l 588 0 l 325 0 l 325 379 l -90 989 l 204 989 l 454 594 l 708 989 l 1006 989 l 588 378 m 232 1258 l 678 1258 l 678 1108 l 232 1108 l 232 1258 z "},"Ỹ":{"ha":913,"x_min":-90,"x_max":1006,"o":"m 588 378 l 588 0 l 325 0 l 325 379 l -90 989 l 204 989 l 454 594 l 708 989 l 1006 989 l 588 378 m 204 1075 q 250 1242 204 1188 q 367 1297 296 1297 q 413 1288 390 1297 q 468 1260 435 1279 q 513 1236 494 1244 q 547 1228 531 1228 q 586 1244 571 1228 q 606 1293 601 1261 l 706 1293 q 660 1126 706 1181 q 543 1071 614 1071 q 497 1080 519 1071 q 442 1108 475 1089 q 397 1132 415 1124 q 363 1140 379 1140 q 324 1124 339 1140 q 304 1075 308 1107 l 204 1075 z "},"Z":{"ha":867,"x_min":74,"x_max":818,"o":"m 818 204 l 818 0 l 74 0 l 74 190 l 510 785 l 74 785 l 74 989 l 803 989 l 803 801 l 361 204 l 818 204 z "},"Ź":{"ha":867,"x_min":74,"x_max":818,"o":"m 818 204 l 818 0 l 74 0 l 74 190 l 510 785 l 74 785 l 74 989 l 803 989 l 803 801 l 361 204 l 818 204 m 360 1074 l 504 1293 l 729 1293 l 511 1074 l 360 1074 z "},"Ž":{"ha":867,"x_min":74,"x_max":818,"o":"m 818 204 l 818 0 l 74 0 l 74 190 l 510 785 l 74 785 l 74 989 l 803 989 l 803 801 l 361 204 l 818 204 m 697 1293 l 504 1074 l 367 1074 l 174 1293 l 356 1293 l 436 1183 l 515 1293 l 697 1293 z "},"Ż":{"ha":867,"x_min":74,"x_max":818,"o":"m 818 204 l 818 0 l 74 0 l 74 190 l 510 785 l 74 785 l 74 989 l 803 989 l 803 801 l 361 204 l 818 204 m 567 1297 l 567 1071 l 304 1071 l 304 1297 l 567 1297 z "},"Ẓ":{"ha":867,"x_min":74,"x_max":818,"o":"m 818 204 l 818 0 l 74 0 l 74 190 l 510 785 l 74 785 l 74 989 l 803 989 l 803 801 l 361 204 l 818 204 m 536 -79 l 536 -289 l 315 -289 l 315 -79 l 536 -79 z "},"a":{"ha":893,"x_min":43,"x_max":818,"o":"m 818 706 l 818 0 l 571 0 l 571 96 q 482 17 540 46 q 354 -11 424 -11 q 193 33 264 -11 q 83 160 122 78 q 43 351 43 243 q 83 546 43 461 q 194 678 124 631 q 354 725 265 725 q 481 695 424 725 q 571 615 539 665 l 571 706 l 818 706 m 432 176 q 535 222 499 176 q 571 354 571 268 q 535 488 571 442 q 432 535 499 535 q 329 487 367 535 q 292 351 292 439 q 328 222 292 267 q 432 176 364 176 z "},"á":{"ha":893,"x_min":43,"x_max":818,"o":"m 818 706 l 818 0 l 571 0 l 571 96 q 482 17 540 46 q 354 -11 424 -11 q 193 33 264 -11 q 83 160 122 78 q 43 351 43 243 q 83 546 43 461 q 194 678 124 631 q 354 725 265 725 q 481 695 424 725 q 571 615 539 665 l 571 706 l 818 706 m 432 176 q 535 222 499 176 q 571 354 571 268 q 535 488 571 442 q 432 535 499 535 q 329 487 367 535 q 292 351 292 439 q 328 222 292 267 q 432 176 364 176 m 369 796 l 506 1085 l 744 1085 l 521 796 l 369 796 z "},"ă":{"ha":893,"x_min":43,"x_max":818,"o":"m 818 706 l 818 0 l 571 0 l 571 96 q 482 17 540 46 q 354 -11 424 -11 q 193 33 264 -11 q 83 160 122 78 q 43 351 43 243 q 83 546 43 461 q 194 678 124 631 q 354 725 265 725 q 481 695 424 725 q 571 615 539 665 l 571 706 l 818 706 m 432 176 q 535 222 499 176 q 571 354 571 268 q 535 488 571 442 q 432 535 499 535 q 329 487 367 535 q 292 351 292 439 q 328 222 292 267 q 432 176 364 176 m 446 824 q 272 878 349 824 q 174 1036 196 933 l 281 1083 q 446 976 343 976 q 610 1083 547 976 l 717 1036 q 618 878 694 933 q 446 824 542 824 z "},"ắ":{"ha":893,"x_min":43,"x_max":818,"o":"m 818 706 l 818 0 l 571 0 l 571 96 q 482 17 540 46 q 354 -11 424 -11 q 193 33 264 -11 q 83 160 122 78 q 43 351 43 243 q 83 546 43 461 q 194 678 124 631 q 354 725 265 725 q 481 695 424 725 q 571 615 539 665 l 571 706 l 818 706 m 432 176 q 535 222 499 176 q 571 354 571 268 q 535 488 571 442 q 432 535 499 535 q 329 487 367 535 q 292 351 292 439 q 328 222 292 267 q 432 176 364 176 m 374 949 l 514 1144 l 721 1144 l 517 949 l 374 949 m 446 789 q 281 829 349 789 q 188 943 213 869 l 267 976 q 340 927 288 946 q 446 908 392 908 q 551 927 500 908 q 624 976 603 946 l 703 943 q 610 829 678 869 q 446 789 542 789 z "},"ặ":{"ha":893,"x_min":43,"x_max":818,"o":"m 818 706 l 818 0 l 571 0 l 571 96 q 482 17 540 46 q 354 -11 424 -11 q 193 33 264 -11 q 83 160 122 78 q 43 351 43 243 q 83 546 43 461 q 194 678 124 631 q 354 725 265 725 q 481 695 424 725 q 571 615 539 665 l 571 706 l 818 706 m 432 176 q 535 222 499 176 q 571 354 571 268 q 535 488 571 442 q 432 535 499 535 q 329 487 367 535 q 292 351 292 439 q 328 222 292 267 q 432 176 364 176 m 556 -79 l 556 -289 l 335 -289 l 335 -79 l 556 -79 m 446 824 q 272 878 349 824 q 174 1036 196 933 l 281 1083 q 446 976 343 976 q 610 1083 547 976 l 717 1036 q 618 878 694 933 q 446 824 542 824 z "},"ằ":{"ha":893,"x_min":43,"x_max":818,"o":"m 818 706 l 818 0 l 571 0 l 571 96 q 482 17 540 46 q 354 -11 424 -11 q 193 33 264 -11 q 83 160 122 78 q 43 351 43 243 q 83 546 43 461 q 194 678 124 631 q 354 725 265 725 q 481 695 424 725 q 571 615 539 665 l 571 706 l 818 706 m 432 176 q 535 222 499 176 q 571 354 571 268 q 535 488 571 442 q 432 535 499 535 q 329 487 367 535 q 292 351 292 439 q 328 222 292 267 q 432 176 364 176 m 169 1144 l 376 1144 l 517 949 l 374 949 l 169 1144 m 446 789 q 281 829 349 789 q 188 943 213 869 l 267 976 q 340 927 288 946 q 446 908 392 908 q 551 927 500 908 q 624 976 603 946 l 703 943 q 610 829 678 869 q 446 789 542 789 z "},"ẳ":{"ha":893,"x_min":43,"x_max":818,"o":"m 818 706 l 818 0 l 571 0 l 571 96 q 482 17 540 46 q 354 -11 424 -11 q 193 33 264 -11 q 83 160 122 78 q 43 351 43 243 q 83 546 43 461 q 194 678 124 631 q 354 725 265 725 q 481 695 424 725 q 571 615 539 665 l 571 706 l 818 706 m 432 176 q 535 222 499 176 q 571 354 571 268 q 535 488 571 442 q 432 535 499 535 q 329 487 367 535 q 292 351 292 439 q 328 222 292 267 q 432 176 364 176 m 503 950 l 386 950 l 386 979 q 406 1019 386 1006 q 452 1040 426 1032 q 478 1051 478 1049 q 468 1063 478 1057 q 435 1068 458 1068 q 358 1053 407 1068 l 328 1128 q 469 1154 393 1154 q 581 1131 539 1154 q 622 1069 622 1107 q 604 1029 622 1043 q 553 1003 586 1015 q 515 983 526 992 q 503 961 503 975 l 503 950 m 446 789 q 281 829 349 789 q 188 943 213 869 l 267 976 q 340 927 288 946 q 446 908 392 908 q 551 927 500 908 q 624 976 603 946 l 703 943 q 610 829 678 869 q 446 789 542 789 z "},"ẵ":{"ha":893,"x_min":43,"x_max":818,"o":"m 818 706 l 818 0 l 571 0 l 571 96 q 482 17 540 46 q 354 -11 424 -11 q 193 33 264 -11 q 83 160 122 78 q 43 351 43 243 q 83 546 43 461 q 194 678 124 631 q 354 725 265 725 q 481 695 424 725 q 571 615 539 665 l 571 706 l 818 706 m 432 176 q 535 222 499 176 q 571 354 571 268 q 535 488 571 442 q 432 535 499 535 q 329 487 367 535 q 292 351 292 439 q 328 222 292 267 q 432 176 364 176 m 194 1003 q 242 1108 194 1065 q 357 1150 290 1150 q 458 1131 394 1150 q 538 1115 510 1115 q 578 1122 564 1115 q 596 1146 592 1128 l 696 1146 q 648 1042 696 1085 q 533 999 600 999 q 432 1018 496 999 q 353 1033 381 1033 q 313 1027 326 1033 q 294 1003 299 1021 l 194 1003 m 446 789 q 281 829 349 789 q 188 943 213 869 l 267 976 q 340 927 288 946 q 446 908 392 908 q 551 927 500 908 q 624 976 603 946 l 703 943 q 610 829 678 869 q 446 789 542 789 z "},"ǎ":{"ha":893,"x_min":43,"x_max":818,"o":"m 818 706 l 818 0 l 571 0 l 571 96 q 482 17 540 46 q 354 -11 424 -11 q 193 33 264 -11 q 83 160 122 78 q 43 351 43 243 q 83 546 43 461 q 194 678 124 631 q 354 725 265 725 q 481 695 424 725 q 571 615 539 665 l 571 706 l 818 706 m 432 176 q 535 222 499 176 q 571 354 571 268 q 535 488 571 442 q 432 535 499 535 q 329 487 367 535 q 292 351 292 439 q 328 222 292 267 q 432 176 364 176 m 707 1085 l 518 796 l 372 796 l 183 1085 l 372 1085 l 446 936 l 518 1085 l 707 1085 z "},"â":{"ha":893,"x_min":43,"x_max":818,"o":"m 818 706 l 818 0 l 571 0 l 571 96 q 482 17 540 46 q 354 -11 424 -11 q 193 33 264 -11 q 83 160 122 78 q 43 351 43 243 q 83 546 43 461 q 194 678 124 631 q 354 725 265 725 q 481 695 424 725 q 571 615 539 665 l 571 706 l 818 706 m 432 176 q 535 222 499 176 q 571 354 571 268 q 535 488 571 442 q 432 535 499 535 q 329 487 367 535 q 292 351 292 439 q 328 222 292 267 q 432 176 364 176 m 183 796 l 372 1085 l 518 1085 l 707 796 l 518 796 l 446 943 l 372 796 l 183 796 z "},"ấ":{"ha":893,"x_min":43,"x_max":869,"o":"m 818 706 l 818 0 l 571 0 l 571 96 q 482 17 540 46 q 354 -11 424 -11 q 193 33 264 -11 q 83 160 122 78 q 43 351 43 243 q 83 546 43 461 q 194 678 124 631 q 354 725 265 725 q 481 695 424 725 q 571 615 539 665 l 571 706 l 818 706 m 432 176 q 535 222 499 176 q 571 354 571 268 q 535 488 571 442 q 432 535 499 535 q 329 487 367 535 q 292 351 292 439 q 328 222 292 267 q 432 176 364 176 m 582 949 l 672 1144 l 869 1144 l 699 949 l 582 949 m 183 796 l 376 985 l 514 985 l 707 796 l 529 796 l 446 878 l 361 796 l 183 796 z "},"ậ":{"ha":893,"x_min":43,"x_max":818,"o":"m 818 706 l 818 0 l 571 0 l 571 96 q 482 17 540 46 q 354 -11 424 -11 q 193 33 264 -11 q 83 160 122 78 q 43 351 43 243 q 83 546 43 461 q 194 678 124 631 q 354 725 265 725 q 481 695 424 725 q 571 615 539 665 l 571 706 l 818 706 m 432 176 q 535 222 499 176 q 571 354 571 268 q 535 488 571 442 q 432 535 499 535 q 329 487 367 535 q 292 351 292 439 q 328 222 292 267 q 432 176 364 176 m 556 -79 l 556 -289 l 335 -289 l 335 -79 l 556 -79 m 183 796 l 372 1085 l 518 1085 l 707 796 l 518 796 l 446 943 l 372 796 l 183 796 z "},"ầ":{"ha":893,"x_min":43,"x_max":818,"o":"m 818 706 l 818 0 l 571 0 l 571 96 q 482 17 540 46 q 354 -11 424 -11 q 193 33 264 -11 q 83 160 122 78 q 43 351 43 243 q 83 546 43 461 q 194 678 124 631 q 354 725 265 725 q 481 695 424 725 q 571 615 539 665 l 571 706 l 818 706 m 432 176 q 535 222 499 176 q 571 354 571 268 q 535 488 571 442 q 432 535 499 535 q 329 487 367 535 q 292 351 292 439 q 328 222 292 267 q 432 176 364 176 m 465 1144 l 664 1144 l 758 949 l 642 949 l 465 1144 m 183 796 l 376 985 l 514 985 l 707 796 l 529 796 l 446 878 l 361 796 l 183 796 z "},"ẩ":{"ha":893,"x_min":43,"x_max":818,"o":"m 818 706 l 818 0 l 571 0 l 571 96 q 482 17 540 46 q 354 -11 424 -11 q 193 33 264 -11 q 83 160 122 78 q 43 351 43 243 q 83 546 43 461 q 194 678 124 631 q 354 725 265 725 q 481 695 424 725 q 571 615 539 665 l 571 706 l 818 706 m 432 176 q 535 222 499 176 q 571 354 571 268 q 535 488 571 442 q 432 535 499 535 q 329 487 367 535 q 292 351 292 439 q 328 222 292 267 q 432 176 364 176 m 697 950 l 581 950 l 581 979 q 601 1019 581 1006 q 647 1040 621 1032 q 672 1051 672 1049 q 663 1063 672 1057 q 631 1068 653 1068 q 553 1053 601 1068 l 522 1128 q 664 1154 588 1154 q 775 1131 733 1154 q 817 1069 817 1107 q 799 1029 817 1043 q 747 1003 781 1015 q 709 983 721 992 q 697 961 697 975 l 697 950 m 183 796 l 376 985 l 514 985 l 707 796 l 529 796 l 446 878 l 361 796 l 183 796 z "},"ẫ":{"ha":893,"x_min":43,"x_max":818,"o":"m 818 706 l 818 0 l 571 0 l 571 96 q 482 17 540 46 q 354 -11 424 -11 q 193 33 264 -11 q 83 160 122 78 q 43 351 43 243 q 83 546 43 461 q 194 678 124 631 q 354 725 265 725 q 481 695 424 725 q 571 615 539 665 l 571 706 l 818 706 m 432 176 q 535 222 499 176 q 571 354 571 268 q 535 488 571 442 q 432 535 499 535 q 329 487 367 535 q 292 351 292 439 q 328 222 292 267 q 432 176 364 176 m 194 1011 q 242 1118 194 1075 q 357 1161 290 1161 q 408 1155 381 1161 q 458 1140 435 1149 q 538 1122 510 1122 q 578 1128 564 1122 q 596 1156 592 1135 l 696 1156 q 648 1049 696 1093 q 533 1006 600 1006 q 483 1012 510 1006 q 432 1026 456 1018 q 353 1044 381 1044 q 313 1038 326 1044 q 294 1011 299 1032 l 194 1011 m 183 796 l 376 985 l 514 985 l 707 796 l 529 796 l 446 878 l 361 796 l 183 796 z "},"ȁ":{"ha":893,"x_min":43,"x_max":818,"o":"m 818 706 l 818 0 l 571 0 l 571 96 q 482 17 540 46 q 354 -11 424 -11 q 193 33 264 -11 q 83 160 122 78 q 43 351 43 243 q 83 546 43 461 q 194 678 124 631 q 354 725 265 725 q 481 695 424 725 q 571 615 539 665 l 571 706 l 818 706 m 432 176 q 535 222 499 176 q 571 354 571 268 q 535 488 571 442 q 432 535 499 535 q 329 487 367 535 q 292 351 292 439 q 328 222 292 267 q 432 176 364 176 m 182 1085 l 354 1085 l 394 796 l 290 796 l 182 1085 m 386 1085 l 558 1085 l 600 796 l 496 796 l 386 1085 z "},"ä":{"ha":893,"x_min":43,"x_max":818,"o":"m 818 706 l 818 0 l 571 0 l 571 96 q 482 17 540 46 q 354 -11 424 -11 q 193 33 264 -11 q 83 160 122 78 q 43 351 43 243 q 83 546 43 461 q 194 678 124 631 q 354 725 265 725 q 481 695 424 725 q 571 615 539 665 l 571 706 l 818 706 m 432 176 q 535 222 499 176 q 571 354 571 268 q 535 488 571 442 q 432 535 499 535 q 329 487 367 535 q 292 351 292 439 q 328 222 292 267 q 432 176 364 176 m 417 1043 l 417 832 l 194 832 l 194 1043 l 417 1043 m 696 1043 l 696 832 l 474 832 l 474 1043 l 696 1043 z "},"ȧ":{"ha":893,"x_min":43,"x_max":818,"o":"m 818 706 l 818 0 l 571 0 l 571 96 q 482 17 540 46 q 354 -11 424 -11 q 193 33 264 -11 q 83 160 122 78 q 43 351 43 243 q 83 546 43 461 q 194 678 124 631 q 354 725 265 725 q 481 695 424 725 q 571 615 539 665 l 571 706 l 818 706 m 432 176 q 535 222 499 176 q 571 354 571 268 q 535 488 571 442 q 432 535 499 535 q 329 487 367 535 q 292 351 292 439 q 328 222 292 267 q 432 176 364 176 m 576 1051 l 576 825 l 314 825 l 314 1051 l 576 1051 z "},"ạ":{"ha":893,"x_min":43,"x_max":818,"o":"m 818 706 l 818 0 l 571 0 l 571 96 q 482 17 540 46 q 354 -11 424 -11 q 193 33 264 -11 q 83 160 122 78 q 43 351 43 243 q 83 546 43 461 q 194 678 124 631 q 354 725 265 725 q 481 695 424 725 q 571 615 539 665 l 571 706 l 818 706 m 432 176 q 535 222 499 176 q 571 354 571 268 q 535 488 571 442 q 432 535 499 535 q 329 487 367 535 q 292 351 292 439 q 328 222 292 267 q 432 176 364 176 m 556 -79 l 556 -289 l 335 -289 l 335 -79 l 556 -79 z "},"à":{"ha":893,"x_min":43,"x_max":818,"o":"m 818 706 l 818 0 l 571 0 l 571 96 q 482 17 540 46 q 354 -11 424 -11 q 193 33 264 -11 q 83 160 122 78 q 43 351 43 243 q 83 546 43 461 q 194 678 124 631 q 354 725 265 725 q 481 695 424 725 q 571 615 539 665 l 571 706 l 818 706 m 432 176 q 535 222 499 176 q 571 354 571 268 q 535 488 571 442 q 432 535 499 535 q 329 487 367 535 q 292 351 292 439 q 328 222 292 267 q 432 176 364 176 m 146 1085 l 385 1085 l 521 796 l 369 796 l 146 1085 z "},"ả":{"ha":893,"x_min":43,"x_max":818,"o":"m 818 706 l 818 0 l 571 0 l 571 96 q 482 17 540 46 q 354 -11 424 -11 q 193 33 264 -11 q 83 160 122 78 q 43 351 43 243 q 83 546 43 461 q 194 678 124 631 q 354 725 265 725 q 481 695 424 725 q 571 615 539 665 l 571 706 l 818 706 m 432 176 q 535 222 499 176 q 571 354 571 268 q 535 488 571 442 q 432 535 499 535 q 329 487 367 535 q 292 351 292 439 q 328 222 292 267 q 432 176 364 176 m 507 796 l 388 796 l 388 829 q 400 876 388 858 q 438 915 413 893 q 460 936 453 928 q 467 954 467 944 q 456 977 467 969 q 424 985 446 985 q 360 974 390 985 l 328 1060 q 451 1088 388 1088 q 577 1056 532 1088 q 622 979 622 1024 q 604 925 622 946 q 553 881 586 904 q 518 853 529 865 q 507 828 507 842 l 507 796 z "},"ȃ":{"ha":893,"x_min":43,"x_max":818,"o":"m 818 706 l 818 0 l 571 0 l 571 96 q 482 17 540 46 q 354 -11 424 -11 q 193 33 264 -11 q 83 160 122 78 q 43 351 43 243 q 83 546 43 461 q 194 678 124 631 q 354 725 265 725 q 481 695 424 725 q 571 615 539 665 l 571 706 l 818 706 m 432 176 q 535 222 499 176 q 571 354 571 268 q 535 488 571 442 q 432 535 499 535 q 329 487 367 535 q 292 351 292 439 q 328 222 292 267 q 432 176 364 176 m 446 1075 q 618 1019 542 1075 q 717 861 694 964 l 610 817 q 446 924 544 924 q 281 817 346 924 l 174 863 q 273 1019 197 964 q 446 1075 349 1075 z "},"ā":{"ha":893,"x_min":43,"x_max":818,"o":"m 818 706 l 818 0 l 571 0 l 571 96 q 482 17 540 46 q 354 -11 424 -11 q 193 33 264 -11 q 83 160 122 78 q 43 351 43 243 q 83 546 43 461 q 194 678 124 631 q 354 725 265 725 q 481 695 424 725 q 571 615 539 665 l 571 706 l 818 706 m 432 176 q 535 222 499 176 q 571 354 571 268 q 535 488 571 442 q 432 535 499 535 q 329 487 367 535 q 292 351 292 439 q 328 222 292 267 q 432 176 364 176 m 222 1013 l 668 1013 l 668 863 l 222 863 l 222 1013 z "},"ą":{"ha":893,"x_min":43,"x_max":871,"o":"m 871 -257 q 718 -286 797 -286 q 585 -240 638 -286 q 532 -121 532 -193 q 582 0 532 -50 l 571 0 l 571 96 q 482 17 540 46 q 354 -11 424 -11 q 192 34 263 -11 q 82 161 121 79 q 43 351 43 243 q 83 544 43 460 q 193 677 122 629 q 354 725 264 725 q 481 695 424 725 q 571 615 539 665 l 571 706 l 818 706 l 818 0 l 804 0 q 719 -24 751 0 q 686 -87 686 -49 q 708 -141 686 -122 q 769 -160 729 -160 q 846 -143 804 -160 l 871 -257 m 432 176 q 535 222 499 176 q 571 354 571 268 q 535 488 571 442 q 432 535 499 535 q 329 487 367 535 q 292 351 292 439 q 328 222 292 267 q 432 176 364 176 z "},"å":{"ha":893,"x_min":43,"x_max":818,"o":"m 818 706 l 818 0 l 571 0 l 571 96 q 482 17 540 46 q 354 -11 424 -11 q 193 33 264 -11 q 83 160 122 78 q 43 351 43 243 q 83 546 43 461 q 194 678 124 631 q 354 725 265 725 q 481 695 424 725 q 571 615 539 665 l 571 706 l 818 706 m 432 176 q 535 222 499 176 q 571 354 571 268 q 535 488 571 442 q 432 535 499 535 q 329 487 367 535 q 292 351 292 439 q 328 222 292 267 q 432 176 364 176 m 446 786 q 333 831 379 786 q 286 942 286 875 q 333 1052 286 1007 q 446 1097 379 1097 q 558 1051 511 1097 q 604 942 604 1006 q 558 831 604 875 q 446 786 513 786 m 446 879 q 487 897 471 879 q 503 942 503 915 q 487 984 503 967 q 446 1001 471 1001 q 404 984 421 1001 q 388 942 388 967 q 404 897 388 915 q 446 879 421 879 z "},"ǻ":{"ha":893,"x_min":43,"x_max":818,"o":"m 446 788 q 332 833 378 788 q 286 947 286 879 q 332 1058 286 1013 q 446 1103 378 1103 q 503 1093 479 1103 l 600 1226 l 811 1217 l 596 1008 q 608 947 608 982 q 561 833 608 879 q 446 788 514 788 m 446 1008 q 403 991 419 1008 q 388 947 388 974 q 404 901 388 921 q 446 882 421 882 q 488 901 471 882 q 506 947 506 921 q 489 991 506 974 q 446 1008 472 1008 m 818 706 l 818 0 l 571 0 l 571 96 q 482 17 540 46 q 354 -11 424 -11 q 193 33 264 -11 q 83 160 122 78 q 43 351 43 243 q 83 546 43 461 q 194 678 124 631 q 354 725 265 725 q 481 695 424 725 q 571 615 539 665 l 571 706 l 818 706 m 432 176 q 535 222 499 176 q 571 354 571 268 q 535 488 571 442 q 432 535 499 535 q 329 487 367 535 q 292 351 292 439 q 328 222 292 267 q 432 176 364 176 z "},"ã":{"ha":893,"x_min":43,"x_max":818,"o":"m 818 706 l 818 0 l 571 0 l 571 96 q 482 17 540 46 q 354 -11 424 -11 q 193 33 264 -11 q 83 160 122 78 q 43 351 43 243 q 83 546 43 461 q 194 678 124 631 q 354 725 265 725 q 481 695 424 725 q 571 615 539 665 l 571 706 l 818 706 m 432 176 q 535 222 499 176 q 571 354 571 268 q 535 488 571 442 q 432 535 499 535 q 329 487 367 535 q 292 351 292 439 q 328 222 292 267 q 432 176 364 176 m 194 832 q 240 999 194 944 q 357 1054 286 1054 q 403 1045 381 1054 q 458 1017 425 1036 q 503 993 485 1001 q 538 985 521 985 q 576 1001 561 985 q 596 1050 592 1018 l 696 1050 q 650 883 696 938 q 533 828 604 828 q 488 837 510 828 q 432 865 465 846 q 388 889 406 881 q 353 897 369 897 q 314 881 329 897 q 294 832 299 864 l 194 832 z "},"æ":{"ha":1194,"x_min":44,"x_max":1151,"o":"m 1151 328 l 715 328 q 881 174 725 174 q 980 191 928 174 q 1076 239 1032 208 l 1139 72 q 1014 11 1089 33 q 863 -11 939 -11 q 691 22 764 -11 q 574 118 618 54 q 477 22 539 56 q 335 -11 415 -11 q 185 19 251 -11 q 82 102 119 49 q 44 225 44 156 q 134 392 44 340 q 428 444 224 444 l 478 444 q 455 517 478 494 q 378 539 432 539 q 259 519 324 539 q 136 468 194 500 l 74 636 q 227 699 136 674 q 394 725 318 725 q 622 643 550 725 q 844 725 711 725 q 1004 679 935 725 q 1113 551 1074 633 q 1151 361 1151 468 l 1151 328 m 838 553 q 763 527 792 553 q 724 444 735 501 l 939 444 q 838 553 924 553 m 369 158 q 451 194 424 158 q 478 289 478 231 l 478 331 l 443 331 q 286 233 286 331 q 309 178 286 199 q 369 158 332 158 z "},"ǽ":{"ha":1194,"x_min":44,"x_max":1151,"o":"m 1151 328 l 715 328 q 881 174 725 174 q 980 191 928 174 q 1076 239 1032 208 l 1139 72 q 1014 11 1089 33 q 863 -11 939 -11 q 691 22 764 -11 q 574 118 618 54 q 477 22 539 56 q 335 -11 415 -11 q 185 19 251 -11 q 82 102 119 49 q 44 225 44 156 q 134 392 44 340 q 428 444 224 444 l 478 444 q 455 517 478 494 q 378 539 432 539 q 259 519 324 539 q 136 468 194 500 l 74 636 q 227 699 136 674 q 394 725 318 725 q 622 643 550 725 q 844 725 711 725 q 1004 679 935 725 q 1113 551 1074 633 q 1151 361 1151 468 l 1151 328 m 838 553 q 763 527 792 553 q 724 444 735 501 l 939 444 q 838 553 924 553 m 369 158 q 451 194 424 158 q 478 289 478 231 l 478 331 l 443 331 q 286 233 286 331 q 309 178 286 199 q 369 158 332 158 m 521 796 l 657 1085 l 896 1085 l 672 796 l 521 796 z "},"b":{"ha":896,"x_min":75,"x_max":853,"o":"m 540 725 q 703 680 632 725 q 813 551 774 635 q 853 360 853 468 q 813 166 853 250 q 701 35 772 82 q 540 -11 631 -11 q 411 17 469 -11 q 324 96 353 46 l 324 0 l 75 0 l 75 1022 l 326 1022 l 326 621 q 414 697 357 668 q 540 725 471 725 m 464 176 q 566 224 531 176 q 601 360 601 271 q 567 490 601 444 q 464 535 532 535 q 360 489 396 535 q 324 357 324 443 q 360 222 324 268 q 464 176 396 176 z "},"c":{"ha":715,"x_min":43,"x_max":708,"o":"m 425 -11 q 144 86 246 -11 q 43 351 43 183 q 92 547 43 463 q 231 678 142 632 q 436 725 319 725 q 589 702 514 725 q 708 640 664 679 l 644 467 q 557 515 607 497 q 461 533 507 533 q 342 489 383 533 q 300 357 300 444 q 342 223 300 268 q 463 178 383 178 q 558 196 508 178 q 644 244 607 214 l 708 74 q 587 11 663 33 q 425 -11 511 -11 z "},"ć":{"ha":715,"x_min":43,"x_max":728,"o":"m 425 -11 q 144 86 246 -11 q 43 351 43 183 q 92 547 43 463 q 231 678 142 632 q 436 725 319 725 q 589 702 514 725 q 708 640 664 679 l 644 467 q 557 515 607 497 q 461 533 507 533 q 342 489 383 533 q 300 357 300 444 q 342 223 300 268 q 463 178 383 178 q 558 196 508 178 q 644 244 607 214 l 708 74 q 587 11 663 33 q 425 -11 511 -11 m 353 796 l 489 1085 l 728 1085 l 504 796 l 353 796 z "},"č":{"ha":715,"x_min":43,"x_max":708,"o":"m 425 -11 q 144 86 246 -11 q 43 351 43 183 q 92 547 43 463 q 231 678 142 632 q 436 725 319 725 q 589 702 514 725 q 708 640 664 679 l 644 467 q 557 515 607 497 q 461 533 507 533 q 342 489 383 533 q 300 357 300 444 q 342 223 300 268 q 463 178 383 178 q 558 196 508 178 q 644 244 607 214 l 708 74 q 587 11 663 33 q 425 -11 511 -11 m 690 1085 l 501 796 l 356 796 l 167 1085 l 356 1085 l 429 936 l 501 1085 l 690 1085 z "},"ç":{"ha":715,"x_min":43,"x_max":708,"o":"m 708 74 q 602 16 668 38 q 461 -10 536 -6 l 454 -56 l 465 -56 q 554 -82 522 -56 q 586 -153 586 -108 q 535 -244 586 -210 q 386 -278 483 -278 q 319 -272 356 -278 q 251 -254 282 -265 l 267 -164 q 378 -183 342 -183 q 438 -153 438 -183 q 393 -129 438 -129 q 349 -136 376 -129 l 321 -106 l 335 -4 q 119 113 196 19 q 43 351 43 206 q 92 547 43 463 q 231 678 142 632 q 436 725 319 725 q 589 702 514 725 q 708 640 664 679 l 644 467 q 557 515 607 497 q 461 533 507 533 q 342 489 383 533 q 300 357 300 444 q 342 223 300 268 q 463 178 383 178 q 558 196 508 178 q 644 244 607 214 l 708 74 z "},"ḉ":{"ha":715,"x_min":43,"x_max":728,"o":"m 504 796 l 353 796 l 489 1085 l 728 1085 l 504 796 m 461 533 q 342 489 383 533 q 300 357 300 444 q 342 223 300 268 q 463 178 383 178 q 558 196 508 178 q 644 244 607 214 l 708 74 q 602 16 668 38 q 461 -10 536 -6 l 454 -56 l 465 -56 q 554 -82 522 -56 q 586 -153 586 -108 q 535 -244 586 -210 q 386 -278 483 -278 q 319 -272 356 -278 q 251 -254 282 -265 l 267 -164 q 378 -183 342 -183 q 438 -153 438 -183 q 393 -129 438 -129 q 349 -136 376 -129 l 321 -106 l 335 -4 q 119 113 196 19 q 43 351 43 206 q 92 547 43 463 q 231 678 142 632 q 436 725 319 725 q 589 702 514 725 q 708 640 664 679 l 644 467 q 557 515 607 497 q 461 533 507 533 z "},"ĉ":{"ha":715,"x_min":43,"x_max":708,"o":"m 425 -11 q 144 86 246 -11 q 43 351 43 183 q 92 547 43 463 q 231 678 142 632 q 436 725 319 725 q 589 702 514 725 q 708 640 664 679 l 644 467 q 557 515 607 497 q 461 533 507 533 q 342 489 383 533 q 300 357 300 444 q 342 223 300 268 q 463 178 383 178 q 558 196 508 178 q 644 244 607 214 l 708 74 q 587 11 663 33 q 425 -11 511 -11 m 167 796 l 356 1085 l 501 1085 l 690 796 l 501 796 l 429 943 l 356 796 l 167 796 z "},"ċ":{"ha":715,"x_min":43,"x_max":708,"o":"m 425 -11 q 144 86 246 -11 q 43 351 43 183 q 92 547 43 463 q 231 678 142 632 q 436 725 319 725 q 589 702 514 725 q 708 640 664 679 l 644 467 q 557 515 607 497 q 461 533 507 533 q 342 489 383 533 q 300 357 300 444 q 342 223 300 268 q 463 178 383 178 q 558 196 508 178 q 644 244 607 214 l 708 74 q 587 11 663 33 q 425 -11 511 -11 m 560 1051 l 560 825 l 297 825 l 297 1051 l 560 1051 z "},"d":{"ha":893,"x_min":43,"x_max":818,"o":"m 818 1022 l 818 0 l 571 0 l 571 96 q 482 17 540 46 q 354 -11 424 -11 q 193 35 264 -11 q 83 166 122 82 q 43 360 43 250 q 83 551 43 468 q 193 680 122 635 q 354 725 264 725 q 477 697 421 725 q 567 622 533 669 l 567 1022 l 818 1022 m 432 176 q 535 223 499 176 q 571 357 571 269 q 534 488 571 442 q 432 535 497 535 q 328 490 364 535 q 292 360 292 444 q 328 224 292 272 q 432 176 365 176 z "},"ð":{"ha":871,"x_min":43,"x_max":828,"o":"m 710 788 q 798 615 768 707 q 828 431 828 522 q 721 105 828 221 q 419 -11 614 -11 q 224 31 310 -11 q 91 148 139 72 q 43 322 43 224 q 88 493 43 418 q 213 610 133 568 q 394 653 293 653 q 574 600 506 653 q 496 733 549 674 l 238 668 l 204 792 l 358 831 q 207 869 283 864 l 261 1040 q 613 893 464 1018 l 789 938 l 818 814 l 710 788 m 431 176 q 532 214 497 176 q 567 322 567 251 q 431 471 567 471 q 292 322 292 471 q 431 176 292 176 z "},"ď":{"ha":893,"x_min":43,"x_max":972,"o":"m 567 1022 l 818 1022 l 818 0 l 571 0 l 571 96 q 482 17 540 46 q 354 -11 424 -11 q 193 35 264 -11 q 83 166 122 82 q 43 360 43 250 q 83 551 43 468 q 193 680 122 635 q 354 725 264 725 q 477 697 421 725 q 567 622 533 669 l 567 1022 m 972 1022 l 935 743 l 853 743 l 853 1022 l 972 1022 m 432 176 q 535 223 499 176 q 571 357 571 269 q 534 488 571 442 q 432 535 497 535 q 328 490 364 535 q 292 360 292 444 q 328 224 292 272 q 432 176 365 176 z "},"đ":{"ha":893,"x_min":43,"x_max":939,"o":"m 939 764 l 818 764 l 818 0 l 571 0 l 571 96 q 482 17 540 46 q 354 -11 424 -11 q 193 35 264 -11 q 83 166 122 82 q 43 360 43 250 q 83 551 43 468 q 193 680 122 635 q 354 725 264 725 q 477 697 421 725 q 567 622 533 669 l 567 764 l 306 764 l 306 936 l 567 936 l 567 1022 l 818 1022 l 818 936 l 939 936 l 939 764 m 432 176 q 535 223 499 176 q 571 357 571 269 q 534 488 571 442 q 432 535 497 535 q 328 490 364 535 q 292 360 292 444 q 328 224 292 272 q 432 176 365 176 z "},"ḍ":{"ha":893,"x_min":43,"x_max":818,"o":"m 818 1022 l 818 0 l 571 0 l 571 96 q 482 17 540 46 q 354 -11 424 -11 q 193 35 264 -11 q 83 166 122 82 q 43 360 43 250 q 83 551 43 468 q 193 680 122 635 q 354 725 264 725 q 477 697 421 725 q 567 622 533 669 l 567 1022 l 818 1022 m 432 176 q 535 223 499 176 q 571 357 571 269 q 534 488 571 442 q 432 535 497 535 q 328 490 364 535 q 292 360 292 444 q 328 224 292 272 q 432 176 365 176 m 557 -79 l 557 -289 l 336 -289 l 336 -79 l 557 -79 z "},"ḏ":{"ha":893,"x_min":43,"x_max":818,"o":"m 818 1022 l 818 0 l 571 0 l 571 96 q 482 17 540 46 q 354 -11 424 -11 q 193 35 264 -11 q 83 166 122 82 q 43 360 43 250 q 83 551 43 468 q 193 680 122 635 q 354 725 264 725 q 477 697 421 725 q 567 622 533 669 l 567 1022 l 818 1022 m 432 176 q 535 223 499 176 q 571 357 571 269 q 534 488 571 442 q 432 535 497 535 q 328 490 364 535 q 292 360 292 444 q 328 224 292 272 q 432 176 365 176 m 224 -114 l 669 -114 l 669 -254 l 224 -254 l 224 -114 z "},"ǆ":{"ha":1636,"x_min":43,"x_max":1593,"o":"m 818 1022 l 818 0 l 571 0 l 571 96 q 482 17 540 46 q 354 -11 424 -11 q 193 35 264 -11 q 83 166 122 82 q 43 360 43 250 q 83 551 43 468 q 193 680 122 635 q 354 725 264 725 q 477 697 421 725 q 567 622 533 669 l 567 1022 l 818 1022 m 432 176 q 535 223 499 176 q 571 357 571 269 q 534 488 571 442 q 432 535 497 535 q 328 490 364 535 q 292 360 292 444 q 328 224 292 272 q 432 176 365 176 m 1593 186 l 1593 0 l 958 0 l 958 176 l 1278 521 l 960 521 l 960 706 l 1579 706 l 1579 540 l 1251 186 l 1593 186 m 1539 1085 l 1350 796 l 1204 796 l 1015 1085 l 1204 1085 l 1278 936 l 1350 1085 l 1539 1085 z "},"e":{"ha":768,"x_min":43,"x_max":726,"o":"m 726 328 l 283 328 q 331 210 290 246 q 449 174 371 174 q 554 191 501 174 q 650 239 607 208 l 714 72 q 586 11 661 33 q 436 -11 511 -11 q 226 33 315 -11 q 90 160 138 78 q 43 356 43 243 q 88 547 43 463 q 213 678 133 631 q 396 725 293 725 q 571 681 496 725 q 686 553 646 636 q 726 361 726 471 l 726 328 m 403 553 q 286 444 310 553 l 511 444 q 403 553 497 553 z "},"é":{"ha":768,"x_min":43,"x_max":726,"o":"m 726 328 l 283 328 q 331 210 290 246 q 449 174 371 174 q 554 191 501 174 q 650 239 607 208 l 714 72 q 586 11 661 33 q 436 -11 511 -11 q 226 33 315 -11 q 90 160 138 78 q 43 356 43 243 q 88 547 43 463 q 213 678 133 631 q 396 725 293 725 q 571 681 496 725 q 686 553 646 636 q 726 361 726 471 l 726 328 m 403 553 q 286 444 310 553 l 511 444 q 403 553 497 553 m 319 796 l 456 1085 l 694 1085 l 471 796 l 319 796 z "},"ĕ":{"ha":768,"x_min":43,"x_max":726,"o":"m 726 328 l 283 328 q 331 210 290 246 q 449 174 371 174 q 554 191 501 174 q 650 239 607 208 l 714 72 q 586 11 661 33 q 436 -11 511 -11 q 226 33 315 -11 q 90 160 138 78 q 43 356 43 243 q 88 547 43 463 q 213 678 133 631 q 396 725 293 725 q 571 681 496 725 q 686 553 646 636 q 726 361 726 471 l 726 328 m 403 553 q 286 444 310 553 l 511 444 q 403 553 497 553 m 396 824 q 222 878 299 824 q 124 1036 146 933 l 231 1083 q 396 976 293 976 q 560 1083 497 976 l 667 1036 q 568 878 644 933 q 396 824 492 824 z "},"ě":{"ha":768,"x_min":43,"x_max":726,"o":"m 726 328 l 283 328 q 331 210 290 246 q 449 174 371 174 q 554 191 501 174 q 650 239 607 208 l 714 72 q 586 11 661 33 q 436 -11 511 -11 q 226 33 315 -11 q 90 160 138 78 q 43 356 43 243 q 88 547 43 463 q 213 678 133 631 q 396 725 293 725 q 571 681 496 725 q 686 553 646 636 q 726 361 726 471 l 726 328 m 403 553 q 286 444 310 553 l 511 444 q 403 553 497 553 m 657 1085 l 468 796 l 322 796 l 133 1085 l 322 1085 l 396 936 l 468 1085 l 657 1085 z "},"ḝ":{"ha":768,"x_min":43,"x_max":726,"o":"m 396 824 q 222 878 299 824 q 124 1036 146 933 l 231 1083 q 396 976 293 976 q 560 1083 497 976 l 667 1036 q 568 878 644 933 q 396 824 492 824 m 726 328 l 283 328 q 331 210 290 246 q 449 174 371 174 q 554 191 501 174 q 650 239 607 208 l 714 72 q 606 17 669 39 q 478 -10 543 -4 l 471 -56 l 482 -56 q 571 -82 539 -56 q 603 -153 603 -108 q 551 -244 603 -210 q 403 -278 500 -278 q 335 -272 372 -278 q 268 -254 299 -265 l 283 -164 q 394 -183 358 -183 q 454 -153 454 -183 q 410 -129 454 -129 q 365 -136 393 -129 l 338 -106 l 351 -6 q 125 113 207 18 q 43 356 43 208 q 88 547 43 463 q 213 678 133 631 q 396 725 293 725 q 571 681 496 725 q 686 553 646 636 q 726 361 726 471 l 726 328 m 403 553 q 286 444 310 553 l 511 444 q 403 553 497 553 z "},"ê":{"ha":768,"x_min":43,"x_max":726,"o":"m 726 328 l 283 328 q 331 210 290 246 q 449 174 371 174 q 554 191 501 174 q 650 239 607 208 l 714 72 q 586 11 661 33 q 436 -11 511 -11 q 226 33 315 -11 q 90 160 138 78 q 43 356 43 243 q 88 547 43 463 q 213 678 133 631 q 396 725 293 725 q 571 681 496 725 q 686 553 646 636 q 726 361 726 471 l 726 328 m 403 553 q 286 444 310 553 l 511 444 q 403 553 497 553 m 133 796 l 322 1085 l 468 1085 l 657 796 l 468 796 l 396 943 l 322 796 l 133 796 z "},"ế":{"ha":768,"x_min":43,"x_max":819,"o":"m 726 328 l 283 328 q 331 210 290 246 q 449 174 371 174 q 554 191 501 174 q 650 239 607 208 l 714 72 q 586 11 661 33 q 436 -11 511 -11 q 226 33 315 -11 q 90 160 138 78 q 43 356 43 243 q 88 547 43 463 q 213 678 133 631 q 396 725 293 725 q 571 681 496 725 q 686 553 646 636 q 726 361 726 471 l 726 328 m 403 553 q 286 444 310 553 l 511 444 q 403 553 497 553 m 532 949 l 622 1144 l 819 1144 l 649 949 l 532 949 m 133 796 l 326 985 l 464 985 l 657 796 l 479 796 l 396 878 l 311 796 l 133 796 z "},"ệ":{"ha":768,"x_min":43,"x_max":726,"o":"m 726 328 l 283 328 q 331 210 290 246 q 449 174 371 174 q 554 191 501 174 q 650 239 607 208 l 714 72 q 586 11 661 33 q 436 -11 511 -11 q 226 33 315 -11 q 90 160 138 78 q 43 356 43 243 q 88 547 43 463 q 213 678 133 631 q 396 725 293 725 q 571 681 496 725 q 686 553 646 636 q 726 361 726 471 l 726 328 m 403 553 q 286 444 310 553 l 511 444 q 403 553 497 553 m 540 -79 l 540 -289 l 319 -289 l 319 -79 l 540 -79 m 133 796 l 322 1085 l 468 1085 l 657 796 l 468 796 l 396 943 l 322 796 l 133 796 z "},"ề":{"ha":768,"x_min":43,"x_max":726,"o":"m 726 328 l 283 328 q 331 210 290 246 q 449 174 371 174 q 554 191 501 174 q 650 239 607 208 l 714 72 q 586 11 661 33 q 436 -11 511 -11 q 226 33 315 -11 q 90 160 138 78 q 43 356 43 243 q 88 547 43 463 q 213 678 133 631 q 396 725 293 725 q 571 681 496 725 q 686 553 646 636 q 726 361 726 471 l 726 328 m 403 553 q 286 444 310 553 l 511 444 q 403 553 497 553 m 415 1144 l 614 1144 l 708 949 l 592 949 l 415 1144 m 133 796 l 326 985 l 464 985 l 657 796 l 479 796 l 396 878 l 311 796 l 133 796 z "},"ể":{"ha":768,"x_min":43,"x_max":767,"o":"m 726 328 l 283 328 q 331 210 290 246 q 449 174 371 174 q 554 191 501 174 q 650 239 607 208 l 714 72 q 586 11 661 33 q 436 -11 511 -11 q 226 33 315 -11 q 90 160 138 78 q 43 356 43 243 q 88 547 43 463 q 213 678 133 631 q 396 725 293 725 q 571 681 496 725 q 686 553 646 636 q 726 361 726 471 l 726 328 m 403 553 q 286 444 310 553 l 511 444 q 403 553 497 553 m 647 950 l 531 950 l 531 979 q 551 1019 531 1006 q 597 1040 571 1032 q 622 1051 622 1049 q 613 1063 622 1057 q 581 1068 603 1068 q 503 1053 551 1068 l 472 1128 q 614 1154 538 1154 q 725 1131 683 1154 q 767 1069 767 1107 q 749 1029 767 1043 q 697 1003 731 1015 q 659 983 671 992 q 647 961 647 975 l 647 950 m 133 796 l 326 985 l 464 985 l 657 796 l 479 796 l 396 878 l 311 796 l 133 796 z "},"ễ":{"ha":768,"x_min":43,"x_max":726,"o":"m 726 328 l 283 328 q 331 210 290 246 q 449 174 371 174 q 554 191 501 174 q 650 239 607 208 l 714 72 q 586 11 661 33 q 436 -11 511 -11 q 226 33 315 -11 q 90 160 138 78 q 43 356 43 243 q 88 547 43 463 q 213 678 133 631 q 396 725 293 725 q 571 681 496 725 q 686 553 646 636 q 726 361 726 471 l 726 328 m 403 553 q 286 444 310 553 l 511 444 q 403 553 497 553 m 144 1011 q 192 1118 144 1075 q 307 1161 240 1161 q 358 1155 331 1161 q 408 1140 385 1149 q 488 1122 460 1122 q 528 1128 514 1122 q 546 1156 542 1135 l 646 1156 q 598 1049 646 1093 q 483 1006 550 1006 q 433 1012 460 1006 q 382 1026 406 1018 q 303 1044 331 1044 q 263 1038 276 1044 q 244 1011 249 1032 l 144 1011 m 133 796 l 326 985 l 464 985 l 657 796 l 479 796 l 396 878 l 311 796 l 133 796 z "},"ȅ":{"ha":768,"x_min":43,"x_max":726,"o":"m 726 328 l 283 328 q 331 210 290 246 q 449 174 371 174 q 554 191 501 174 q 650 239 607 208 l 714 72 q 586 11 661 33 q 436 -11 511 -11 q 226 33 315 -11 q 90 160 138 78 q 43 356 43 243 q 88 547 43 463 q 213 678 133 631 q 396 725 293 725 q 571 681 496 725 q 686 553 646 636 q 726 361 726 471 l 726 328 m 403 553 q 286 444 310 553 l 511 444 q 403 553 497 553 m 132 1085 l 304 1085 l 344 796 l 240 796 l 132 1085 m 336 1085 l 508 1085 l 550 796 l 446 796 l 336 1085 z "},"ë":{"ha":768,"x_min":43,"x_max":726,"o":"m 726 328 l 283 328 q 331 210 290 246 q 449 174 371 174 q 554 191 501 174 q 650 239 607 208 l 714 72 q 586 11 661 33 q 436 -11 511 -11 q 226 33 315 -11 q 90 160 138 78 q 43 356 43 243 q 88 547 43 463 q 213 678 133 631 q 396 725 293 725 q 571 681 496 725 q 686 553 646 636 q 726 361 726 471 l 726 328 m 403 553 q 286 444 310 553 l 511 444 q 403 553 497 553 m 367 1043 l 367 832 l 144 832 l 144 1043 l 367 1043 m 646 1043 l 646 832 l 424 832 l 424 1043 l 646 1043 z "},"ė":{"ha":768,"x_min":43,"x_max":726,"o":"m 726 328 l 283 328 q 331 210 290 246 q 449 174 371 174 q 554 191 501 174 q 650 239 607 208 l 714 72 q 586 11 661 33 q 436 -11 511 -11 q 226 33 315 -11 q 90 160 138 78 q 43 356 43 243 q 88 547 43 463 q 213 678 133 631 q 396 725 293 725 q 571 681 496 725 q 686 553 646 636 q 726 361 726 471 l 726 328 m 403 553 q 286 444 310 553 l 511 444 q 403 553 497 553 m 526 1051 l 526 825 l 264 825 l 264 1051 l 526 1051 z "},"ẹ":{"ha":768,"x_min":43,"x_max":726,"o":"m 726 328 l 283 328 q 331 210 290 246 q 449 174 371 174 q 554 191 501 174 q 650 239 607 208 l 714 72 q 586 11 661 33 q 436 -11 511 -11 q 226 33 315 -11 q 90 160 138 78 q 43 356 43 243 q 88 547 43 463 q 213 678 133 631 q 396 725 293 725 q 571 681 496 725 q 686 553 646 636 q 726 361 726 471 l 726 328 m 403 553 q 286 444 310 553 l 511 444 q 403 553 497 553 m 540 -79 l 540 -289 l 319 -289 l 319 -79 l 540 -79 z "},"è":{"ha":768,"x_min":43,"x_max":726,"o":"m 726 328 l 283 328 q 331 210 290 246 q 449 174 371 174 q 554 191 501 174 q 650 239 607 208 l 714 72 q 586 11 661 33 q 436 -11 511 -11 q 226 33 315 -11 q 90 160 138 78 q 43 356 43 243 q 88 547 43 463 q 213 678 133 631 q 396 725 293 725 q 571 681 496 725 q 686 553 646 636 q 726 361 726 471 l 726 328 m 403 553 q 286 444 310 553 l 511 444 q 403 553 497 553 m 96 1085 l 335 1085 l 471 796 l 319 796 l 96 1085 z "},"ẻ":{"ha":768,"x_min":43,"x_max":726,"o":"m 726 328 l 283 328 q 331 210 290 246 q 449 174 371 174 q 554 191 501 174 q 650 239 607 208 l 714 72 q 586 11 661 33 q 436 -11 511 -11 q 226 33 315 -11 q 90 160 138 78 q 43 356 43 243 q 88 547 43 463 q 213 678 133 631 q 396 725 293 725 q 571 681 496 725 q 686 553 646 636 q 726 361 726 471 l 726 328 m 403 553 q 286 444 310 553 l 511 444 q 403 553 497 553 m 457 796 l 338 796 l 338 829 q 350 876 338 858 q 388 915 363 893 q 410 936 403 928 q 417 954 417 944 q 406 977 417 969 q 374 985 396 985 q 310 974 340 985 l 278 1060 q 401 1088 338 1088 q 527 1056 482 1088 q 572 979 572 1024 q 554 925 572 946 q 503 881 536 904 q 468 853 479 865 q 457 828 457 842 l 457 796 z "},"ȇ":{"ha":768,"x_min":43,"x_max":726,"o":"m 726 328 l 283 328 q 331 210 290 246 q 449 174 371 174 q 554 191 501 174 q 650 239 607 208 l 714 72 q 586 11 661 33 q 436 -11 511 -11 q 226 33 315 -11 q 90 160 138 78 q 43 356 43 243 q 88 547 43 463 q 213 678 133 631 q 396 725 293 725 q 571 681 496 725 q 686 553 646 636 q 726 361 726 471 l 726 328 m 403 553 q 286 444 310 553 l 511 444 q 403 553 497 553 m 396 1075 q 568 1019 492 1075 q 667 861 644 964 l 560 817 q 396 924 494 924 q 231 817 296 924 l 124 863 q 223 1019 147 964 q 396 1075 299 1075 z "},"ē":{"ha":768,"x_min":43,"x_max":726,"o":"m 726 328 l 283 328 q 331 210 290 246 q 449 174 371 174 q 554 191 501 174 q 650 239 607 208 l 714 72 q 586 11 661 33 q 436 -11 511 -11 q 226 33 315 -11 q 90 160 138 78 q 43 356 43 243 q 88 547 43 463 q 213 678 133 631 q 396 725 293 725 q 571 681 496 725 q 686 553 646 636 q 726 361 726 471 l 726 328 m 403 553 q 286 444 310 553 l 511 444 q 403 553 497 553 m 172 1013 l 618 1013 l 618 863 l 172 863 l 172 1013 z "},"ḗ":{"ha":768,"x_min":43,"x_max":726,"o":"m 726 328 l 283 328 q 331 210 290 246 q 449 174 371 174 q 554 191 501 174 q 650 239 607 208 l 714 72 q 586 11 661 33 q 436 -11 511 -11 q 226 33 315 -11 q 90 160 138 78 q 43 356 43 243 q 88 547 43 463 q 213 678 133 631 q 396 725 293 725 q 571 681 496 725 q 686 553 646 636 q 726 361 726 471 l 726 328 m 403 553 q 286 444 310 553 l 511 444 q 403 553 497 553 m 172 1013 l 618 1013 l 618 863 l 172 863 l 172 1013 m 319 1061 l 456 1350 l 694 1350 l 471 1061 l 319 1061 z "},"ḕ":{"ha":768,"x_min":43,"x_max":726,"o":"m 726 328 l 283 328 q 331 210 290 246 q 449 174 371 174 q 554 191 501 174 q 650 239 607 208 l 714 72 q 586 11 661 33 q 436 -11 511 -11 q 226 33 315 -11 q 90 160 138 78 q 43 356 43 243 q 88 547 43 463 q 213 678 133 631 q 396 725 293 725 q 571 681 496 725 q 686 553 646 636 q 726 361 726 471 l 726 328 m 403 553 q 286 444 310 553 l 511 444 q 403 553 497 553 m 172 1013 l 618 1013 l 618 863 l 172 863 l 172 1013 m 96 1350 l 335 1350 l 471 1061 l 319 1061 l 96 1350 z "},"ę":{"ha":768,"x_min":43,"x_max":726,"o":"m 726 328 l 283 328 q 331 210 290 246 q 449 174 371 174 q 554 191 501 174 q 650 239 607 208 l 714 72 q 628 26 694 56 q 553 -26 575 0 q 531 -87 531 -51 q 613 -160 531 -160 q 688 -143 649 -160 l 711 -257 q 561 -286 638 -286 q 426 -240 479 -286 q 374 -125 374 -194 q 422 -11 374 -57 q 144 91 246 -7 q 43 356 43 189 q 88 547 43 463 q 213 678 133 631 q 396 725 293 725 q 571 681 496 725 q 686 553 646 636 q 726 361 726 471 l 726 328 m 403 553 q 328 525 357 553 q 288 444 299 497 l 511 444 q 403 553 497 553 z "},"ẽ":{"ha":768,"x_min":43,"x_max":726,"o":"m 726 328 l 283 328 q 331 210 290 246 q 449 174 371 174 q 554 191 501 174 q 650 239 607 208 l 714 72 q 586 11 661 33 q 436 -11 511 -11 q 226 33 315 -11 q 90 160 138 78 q 43 356 43 243 q 88 547 43 463 q 213 678 133 631 q 396 725 293 725 q 571 681 496 725 q 686 553 646 636 q 726 361 726 471 l 726 328 m 403 553 q 286 444 310 553 l 511 444 q 403 553 497 553 m 144 832 q 190 999 144 944 q 307 1054 236 1054 q 353 1045 331 1054 q 408 1017 375 1036 q 453 993 435 1001 q 488 985 471 985 q 526 1001 511 985 q 546 1050 542 1018 l 646 1050 q 600 883 646 938 q 483 828 554 828 q 438 837 460 828 q 382 865 415 846 q 338 889 356 881 q 303 897 319 897 q 264 881 279 897 q 244 832 249 864 l 144 832 z "},"ə":{"ha":768,"x_min":43,"x_max":725,"o":"m 349 725 q 547 679 461 725 q 678 550 632 633 q 725 356 725 467 q 682 165 725 249 q 561 35 639 82 q 385 -11 483 -11 q 135 85 226 -11 q 43 349 43 181 l 43 386 l 488 386 q 442 503 479 468 q 331 539 406 539 q 118 474 238 539 l 54 639 q 187 702 108 679 q 349 725 265 725 m 372 158 q 486 265 465 158 l 261 265 q 372 158 278 158 z "},"f":{"ha":563,"x_min":4,"x_max":554,"o":"m 488 826 q 414 801 443 826 q 385 722 385 775 l 385 706 l 522 706 l 522 521 l 385 521 l 385 0 l 133 0 l 133 521 l 4 521 l 4 706 l 133 706 l 133 725 q 208 949 133 868 q 424 1029 282 1029 q 554 1010 504 1029 l 554 817 q 488 826 514 826 z "},"g":{"ha":899,"x_min":43,"x_max":826,"o":"m 826 706 l 826 44 q 722 -220 826 -129 q 417 -311 618 -311 q 118 -250 244 -311 l 156 -67 q 284 -110 218 -94 q 408 -126 350 -126 q 535 -90 494 -126 q 576 25 576 -53 l 576 129 q 483 51 542 83 q 357 19 424 19 q 195 63 267 19 q 83 187 124 107 q 43 372 43 267 q 83 556 43 476 q 195 681 124 636 q 357 725 267 725 q 486 696 428 725 q 576 617 544 667 l 576 706 l 826 706 m 435 207 q 539 251 501 207 q 576 372 576 294 q 539 491 576 447 q 435 535 501 535 q 330 492 368 535 q 292 372 292 449 q 331 251 292 296 q 435 207 369 207 z "},"ğ":{"ha":899,"x_min":43,"x_max":826,"o":"m 826 706 l 826 44 q 722 -220 826 -129 q 417 -311 618 -311 q 118 -250 244 -311 l 156 -67 q 284 -110 218 -94 q 408 -126 350 -126 q 535 -90 494 -126 q 576 25 576 -53 l 576 129 q 483 51 542 83 q 357 19 424 19 q 195 63 267 19 q 83 187 124 107 q 43 372 43 267 q 83 556 43 476 q 195 681 124 636 q 357 725 267 725 q 486 696 428 725 q 576 617 544 667 l 576 706 l 826 706 m 435 207 q 539 251 501 207 q 576 372 576 294 q 539 491 576 447 q 435 535 501 535 q 330 492 368 535 q 292 372 292 449 q 331 251 292 296 q 435 207 369 207 m 450 824 q 276 878 353 824 q 178 1036 200 933 l 285 1083 q 450 976 347 976 q 614 1083 551 976 l 721 1036 q 622 878 699 933 q 450 824 546 824 z "},"ǧ":{"ha":899,"x_min":43,"x_max":826,"o":"m 826 706 l 826 44 q 722 -220 826 -129 q 417 -311 618 -311 q 118 -250 244 -311 l 156 -67 q 284 -110 218 -94 q 408 -126 350 -126 q 535 -90 494 -126 q 576 25 576 -53 l 576 129 q 483 51 542 83 q 357 19 424 19 q 195 63 267 19 q 83 187 124 107 q 43 372 43 267 q 83 556 43 476 q 195 681 124 636 q 357 725 267 725 q 486 696 428 725 q 576 617 544 667 l 576 706 l 826 706 m 435 207 q 539 251 501 207 q 576 372 576 294 q 539 491 576 447 q 435 535 501 535 q 330 492 368 535 q 292 372 292 449 q 331 251 292 296 q 435 207 369 207 m 711 1085 l 522 796 l 376 796 l 188 1085 l 376 1085 l 450 936 l 522 1085 l 711 1085 z "},"ĝ":{"ha":899,"x_min":43,"x_max":826,"o":"m 826 706 l 826 44 q 722 -220 826 -129 q 417 -311 618 -311 q 118 -250 244 -311 l 156 -67 q 284 -110 218 -94 q 408 -126 350 -126 q 535 -90 494 -126 q 576 25 576 -53 l 576 129 q 483 51 542 83 q 357 19 424 19 q 195 63 267 19 q 83 187 124 107 q 43 372 43 267 q 83 556 43 476 q 195 681 124 636 q 357 725 267 725 q 486 696 428 725 q 576 617 544 667 l 576 706 l 826 706 m 435 207 q 539 251 501 207 q 576 372 576 294 q 539 491 576 447 q 435 535 501 535 q 330 492 368 535 q 292 372 292 449 q 331 251 292 296 q 435 207 369 207 m 188 796 l 376 1085 l 522 1085 l 711 796 l 522 796 l 450 943 l 376 796 l 188 796 z "},"ģ":{"ha":899,"x_min":43,"x_max":826,"o":"m 826 706 l 826 44 q 722 -220 826 -129 q 417 -311 618 -311 q 118 -250 244 -311 l 156 -67 q 284 -110 218 -94 q 408 -126 350 -126 q 535 -90 494 -126 q 576 25 576 -53 l 576 129 q 483 51 542 83 q 357 19 424 19 q 195 63 267 19 q 83 187 124 107 q 43 372 43 267 q 83 556 43 476 q 195 681 124 636 q 357 725 267 725 q 486 696 428 725 q 576 617 544 667 l 576 706 l 826 706 m 435 207 q 539 251 501 207 q 576 372 576 294 q 539 491 576 447 q 435 535 501 535 q 330 492 368 535 q 292 372 292 449 q 331 251 292 296 q 435 207 369 207 m 568 1014 l 568 836 l 329 836 l 329 929 q 349 1050 329 999 q 418 1143 369 1101 l 504 1086 q 458 1014 467 1050 l 568 1014 z "},"ġ":{"ha":899,"x_min":43,"x_max":826,"o":"m 826 706 l 826 44 q 722 -220 826 -129 q 417 -311 618 -311 q 118 -250 244 -311 l 156 -67 q 284 -110 218 -94 q 408 -126 350 -126 q 535 -90 494 -126 q 576 25 576 -53 l 576 129 q 483 51 542 83 q 357 19 424 19 q 195 63 267 19 q 83 187 124 107 q 43 372 43 267 q 83 556 43 476 q 195 681 124 636 q 357 725 267 725 q 486 696 428 725 q 576 617 544 667 l 576 706 l 826 706 m 435 207 q 539 251 501 207 q 576 372 576 294 q 539 491 576 447 q 435 535 501 535 q 330 492 368 535 q 292 372 292 449 q 331 251 292 296 q 435 207 369 207 m 581 1051 l 581 825 l 318 825 l 318 1051 l 581 1051 z "},"ḡ":{"ha":899,"x_min":43,"x_max":826,"o":"m 826 706 l 826 44 q 722 -220 826 -129 q 417 -311 618 -311 q 118 -250 244 -311 l 156 -67 q 284 -110 218 -94 q 408 -126 350 -126 q 535 -90 494 -126 q 576 25 576 -53 l 576 129 q 483 51 542 83 q 357 19 424 19 q 195 63 267 19 q 83 187 124 107 q 43 372 43 267 q 83 556 43 476 q 195 681 124 636 q 357 725 267 725 q 486 696 428 725 q 576 617 544 667 l 576 706 l 826 706 m 435 207 q 539 251 501 207 q 576 372 576 294 q 539 491 576 447 q 435 535 501 535 q 330 492 368 535 q 292 372 292 449 q 331 251 292 296 q 435 207 369 207 m 226 1013 l 672 1013 l 672 863 l 226 863 l 226 1013 z "},"h":{"ha":867,"x_min":75,"x_max":796,"o":"m 547 725 q 734 649 672 725 q 796 421 796 574 l 796 0 l 544 0 l 544 410 q 522 503 544 475 q 453 532 500 532 q 361 494 396 532 q 326 393 326 456 l 326 0 l 75 0 l 75 1022 l 326 1022 l 326 619 q 547 725 408 725 z "},"ħ":{"ha":867,"x_min":-43,"x_max":796,"o":"m 547 725 q 734 649 672 725 q 796 421 796 574 l 796 0 l 544 0 l 544 410 q 522 503 544 475 q 453 532 500 532 q 361 494 396 532 q 326 393 326 456 l 326 0 l 75 0 l 75 764 l -43 764 l -43 936 l 75 936 l 75 1022 l 326 1022 l 326 936 l 589 936 l 589 764 l 326 764 l 326 619 q 547 725 408 725 z "},"ḫ":{"ha":867,"x_min":75,"x_max":796,"o":"m 547 725 q 734 649 672 725 q 796 421 796 574 l 796 0 l 544 0 l 544 410 q 522 503 544 475 q 453 532 500 532 q 361 494 396 532 q 326 393 326 456 l 326 0 l 75 0 l 75 1022 l 326 1022 l 326 619 q 547 725 408 725 m 436 -326 q 263 -272 339 -326 q 164 -114 186 -217 l 271 -69 q 436 -174 335 -174 q 600 -69 536 -174 l 707 -114 q 608 -272 685 -217 q 436 -326 532 -326 z "},"ĥ":{"ha":867,"x_min":-57,"x_max":796,"o":"m 547 725 q 734 649 672 725 q 796 421 796 574 l 796 0 l 544 0 l 544 410 q 522 503 544 475 q 453 532 500 532 q 361 494 396 532 q 326 393 326 456 l 326 0 l 75 0 l 75 1022 l 326 1022 l 326 619 q 547 725 408 725 m -57 1107 l 136 1326 l 274 1326 l 467 1107 l 285 1107 l 206 1215 l 125 1107 l -57 1107 z "},"ḥ":{"ha":867,"x_min":75,"x_max":796,"o":"m 547 725 q 734 649 672 725 q 796 421 796 574 l 796 0 l 544 0 l 544 410 q 522 503 544 475 q 453 532 500 532 q 361 494 396 532 q 326 393 326 456 l 326 0 l 75 0 l 75 1022 l 326 1022 l 326 619 q 547 725 408 725 m 546 -79 l 546 -289 l 325 -289 l 325 -79 l 546 -79 z "},"i":{"ha":401,"x_min":68,"x_max":331,"o":"m 75 706 l 326 706 l 326 0 l 75 0 l 75 706 m 331 1051 l 331 825 l 68 825 l 68 1051 l 331 1051 z "},"ı":{"ha":401,"x_min":75,"x_max":326,"o":"m 75 706 l 326 706 l 326 0 l 75 0 l 75 706 z "},"í":{"ha":401,"x_min":75,"x_max":499,"o":"m 75 706 l 326 706 l 326 0 l 75 0 l 75 706 m 124 796 l 260 1085 l 499 1085 l 275 796 l 124 796 z "},"ĭ":{"ha":401,"x_min":-72,"x_max":471,"o":"m 75 706 l 326 706 l 326 0 l 75 0 l 75 706 m 200 824 q 26 878 103 824 q -72 1036 -50 933 l 35 1083 q 200 976 97 976 q 364 1083 301 976 l 471 1036 q 372 878 449 933 q 200 824 296 824 z "},"î":{"ha":401,"x_min":-62,"x_max":461,"o":"m 75 706 l 326 706 l 326 0 l 75 0 l 75 706 m -62 796 l 126 1085 l 272 1085 l 461 796 l 272 796 l 200 943 l 126 796 l -62 796 z "},"ȉ":{"ha":401,"x_min":-64,"x_max":354,"o":"m 75 706 l 326 706 l 326 0 l 75 0 l 75 706 m -64 1085 l 108 1085 l 149 796 l 44 796 l -64 1085 m 140 1085 l 313 1085 l 354 796 l 250 796 l 140 1085 z "},"ï":{"ha":401,"x_min":-51,"x_max":450,"o":"m 75 706 l 326 706 l 326 0 l 75 0 l 75 706 m 171 1043 l 171 832 l -51 832 l -51 1043 l 171 1043 m 450 1043 l 450 832 l 228 832 l 228 1043 l 450 1043 z "},"ḯ":{"ha":401,"x_min":-51,"x_max":499,"o":"m 75 706 l 326 706 l 326 0 l 75 0 l 75 706 m 171 1043 l 171 832 l -51 832 l -51 1043 l 171 1043 m 450 1043 l 450 832 l 228 832 l 228 1043 l 450 1043 m 124 1061 l 260 1350 l 499 1350 l 275 1061 l 124 1061 z "},"ị":{"ha":401,"x_min":68,"x_max":331,"o":"m 75 706 l 326 706 l 326 0 l 75 0 l 75 706 m 331 1051 l 331 825 l 68 825 l 68 1051 l 331 1051 m 310 -79 l 310 -289 l 89 -289 l 89 -79 l 310 -79 z "},"ì":{"ha":401,"x_min":-100,"x_max":326,"o":"m 75 706 l 326 706 l 326 0 l 75 0 l 75 706 m -100 1085 l 139 1085 l 275 796 l 124 796 l -100 1085 z "},"ỉ":{"ha":401,"x_min":75,"x_max":376,"o":"m 75 706 l 326 706 l 326 0 l 75 0 l 75 706 m 261 796 l 142 796 l 142 829 q 154 876 142 858 q 192 915 167 893 q 214 936 207 928 q 221 954 221 944 q 210 977 221 969 q 178 985 200 985 q 114 974 144 985 l 82 1060 q 206 1088 142 1088 q 331 1056 286 1088 q 376 979 376 1024 q 358 925 376 946 q 307 881 340 904 q 272 853 283 865 q 261 828 261 842 l 261 796 z "},"ȋ":{"ha":401,"x_min":-72,"x_max":471,"o":"m 75 706 l 326 706 l 326 0 l 75 0 l 75 706 m 200 1075 q 372 1019 296 1075 q 471 861 449 964 l 364 817 q 200 924 299 924 q 35 817 100 924 l -72 863 q 27 1019 -49 964 q 200 1075 103 1075 z "},"ī":{"ha":401,"x_min":-24,"x_max":422,"o":"m 75 706 l 326 706 l 326 0 l 75 0 l 75 706 m -24 1013 l 422 1013 l 422 863 l -24 863 l -24 1013 z "},"į":{"ha":401,"x_min":39,"x_max":376,"o":"m 332 829 l 71 829 l 71 1057 l 332 1057 l 332 829 m 376 -257 q 226 -286 303 -286 q 92 -241 146 -286 q 39 -121 39 -196 q 89 0 39 -50 l 75 0 l 75 706 l 326 706 l 326 0 l 311 0 q 226 -24 258 0 q 194 -87 194 -47 q 276 -160 194 -160 q 351 -143 313 -160 l 376 -257 z "},"ĩ":{"ha":401,"x_min":-51,"x_max":450,"o":"m 75 706 l 326 706 l 326 0 l 75 0 l 75 706 m -51 832 q -6 999 -51 944 q 111 1054 40 1054 q 157 1045 135 1054 q 213 1017 179 1036 q 257 993 239 1001 q 292 985 275 985 q 331 1001 315 985 q 350 1050 346 1018 l 450 1050 q 404 883 450 938 q 288 828 358 828 q 242 837 264 828 q 186 865 219 846 q 142 889 160 881 q 107 897 124 897 q 68 881 83 897 q 49 832 53 864 l -51 832 z "},"j":{"ha":401,"x_min":-96,"x_max":329,"o":"m -96 -100 q -28 -110 -56 -110 q 46 -84 17 -110 q 75 -6 75 -58 l 75 706 l 326 706 l 326 -8 q 252 -232 326 -151 q 35 -312 178 -312 q -96 -293 -46 -312 l -96 -100 m 329 1051 l 329 825 l 67 825 l 67 1051 l 329 1051 z "},"ȷ":{"ha":401,"x_min":-96,"x_max":326,"o":"m -96 -100 q -28 -110 -56 -110 q 46 -84 17 -110 q 75 -6 75 -58 l 75 706 l 326 706 l 326 -8 q 252 -232 326 -151 q 35 -312 178 -312 q -96 -293 -46 -312 l -96 -100 z "},"ĵ":{"ha":401,"x_min":-96,"x_max":460,"o":"m -96 -100 q -28 -110 -56 -110 q 46 -84 17 -110 q 75 -6 75 -58 l 75 706 l 326 706 l 326 -8 q 252 -232 326 -151 q 35 -312 178 -312 q -96 -293 -46 -312 l -96 -100 m -64 796 l 125 1085 l 271 1085 l 460 796 l 271 796 l 199 943 l 125 796 l -64 796 z "},"k":{"ha":831,"x_min":75,"x_max":871,"o":"m 567 0 l 326 304 l 326 0 l 75 0 l 75 1022 l 326 1022 l 326 411 l 563 704 l 860 704 l 582 367 l 871 0 l 567 0 z "},"ķ":{"ha":831,"x_min":75,"x_max":871,"o":"m 567 0 l 326 304 l 326 0 l 75 0 l 75 1022 l 326 1022 l 326 411 l 563 704 l 860 704 l 582 367 l 871 0 l 567 0 m 532 -89 l 532 -182 q 512 -301 532 -251 q 443 -394 492 -351 l 357 -336 q 403 -267 394 -303 l 293 -267 l 293 -89 l 532 -89 z "},"ĸ":{"ha":831,"x_min":75,"x_max":871,"o":"m 567 0 l 326 304 l 326 0 l 75 0 l 75 706 l 326 706 l 326 411 l 563 704 l 860 704 l 582 367 l 871 0 l 567 0 z "},"l":{"ha":401,"x_min":75,"x_max":326,"o":"m 75 1022 l 326 1022 l 326 0 l 75 0 l 75 1022 z "},"ĺ":{"ha":401,"x_min":75,"x_max":493,"o":"m 75 1022 l 326 1022 l 326 0 l 75 0 l 75 1022 m 124 1107 l 268 1326 l 493 1326 l 275 1107 l 124 1107 z "},"ľ":{"ha":401,"x_min":75,"x_max":478,"o":"m 75 1022 l 326 1022 l 326 0 l 75 0 l 75 1022 m 360 743 l 360 1022 l 478 1022 l 442 743 l 360 743 z "},"ļ":{"ha":401,"x_min":75,"x_max":326,"o":"m 75 1022 l 326 1022 l 326 0 l 75 0 l 75 1022 m 318 -89 l 318 -182 q 298 -301 318 -251 q 229 -394 278 -351 l 143 -336 q 189 -267 181 -303 l 79 -267 l 79 -89 l 318 -89 z "},"ŀ":{"ha":593,"x_min":75,"x_max":624,"o":"m 75 1022 l 326 1022 l 326 0 l 75 0 l 75 1022 m 624 608 l 624 385 l 364 385 l 364 608 l 624 608 z "},"ḷ":{"ha":401,"x_min":75,"x_max":326,"o":"m 75 1022 l 326 1022 l 326 0 l 75 0 l 75 1022 m 310 -79 l 310 -289 l 89 -289 l 89 -79 l 310 -79 z "},"ǉ":{"ha":803,"x_min":75,"x_max":731,"o":"m 75 1022 l 326 1022 l 326 0 l 75 0 l 75 1022 m 306 -100 q 374 -110 346 -110 q 447 -84 418 -110 q 476 -6 476 -58 l 476 706 l 728 706 l 728 -8 q 653 -232 728 -151 q 436 -312 579 -312 q 306 -293 356 -312 l 306 -100 m 731 1051 l 731 825 l 468 825 l 468 1051 l 731 1051 z "},"ḻ":{"ha":401,"x_min":-24,"x_max":422,"o":"m 75 1022 l 326 1022 l 326 0 l 75 0 l 75 1022 m -24 -114 l 422 -114 l 422 -254 l -24 -254 l -24 -114 z "},"ł":{"ha":539,"x_min":-28,"x_max":567,"o":"m 394 469 l 394 0 l 143 0 l 143 325 l 64 279 l -28 444 l 143 544 l 143 1022 l 394 1022 l 394 690 l 474 736 l 567 568 l 394 469 z "},"m":{"ha":1285,"x_min":64,"x_max":1214,"o":"m 974 725 q 1155 650 1096 725 q 1214 421 1214 575 l 1214 0 l 963 0 l 963 414 q 944 504 963 476 q 881 532 925 532 q 799 493 828 532 q 769 383 769 454 l 769 0 l 518 0 l 518 414 q 499 504 518 476 q 436 532 479 532 q 355 493 383 532 q 326 383 326 454 l 326 0 l 75 0 l 75 503 q 64 706 75 617 l 300 706 l 313 607 q 402 694 344 664 q 535 725 460 725 q 740 597 686 725 q 840 690 778 656 q 974 725 901 725 z "},"ṃ":{"ha":1285,"x_min":64,"x_max":1214,"o":"m 974 725 q 1155 650 1096 725 q 1214 421 1214 575 l 1214 0 l 963 0 l 963 414 q 944 504 963 476 q 881 532 925 532 q 799 493 828 532 q 769 383 769 454 l 769 0 l 518 0 l 518 414 q 499 504 518 476 q 436 532 479 532 q 355 493 383 532 q 326 383 326 454 l 326 0 l 75 0 l 75 503 q 64 706 75 617 l 300 706 l 313 607 q 402 694 344 664 q 535 725 460 725 q 740 597 686 725 q 840 690 778 656 q 974 725 901 725 m 756 -79 l 756 -289 l 535 -289 l 535 -79 l 756 -79 z "},"n":{"ha":867,"x_min":64,"x_max":796,"o":"m 547 725 q 734 649 672 725 q 796 421 796 574 l 796 0 l 544 0 l 544 410 q 522 503 544 475 q 453 532 500 532 q 361 494 396 532 q 326 393 326 456 l 326 0 l 75 0 l 75 503 q 64 706 75 617 l 300 706 l 313 601 q 413 693 353 661 q 547 725 472 725 z "},"ń":{"ha":867,"x_min":64,"x_max":796,"o":"m 547 725 q 734 649 672 725 q 796 421 796 574 l 796 0 l 544 0 l 544 410 q 522 503 544 475 q 453 532 500 532 q 361 494 396 532 q 326 393 326 456 l 326 0 l 75 0 l 75 503 q 64 706 75 617 l 300 706 l 313 601 q 413 693 353 661 q 547 725 472 725 m 360 796 l 496 1085 l 735 1085 l 511 796 l 360 796 z "},"ŉ":{"ha":867,"x_min":64,"x_max":796,"o":"m 326 1069 l 326 975 q 306 855 326 906 q 238 761 286 804 l 151 821 q 197 890 186 853 l 88 890 l 88 1069 l 326 1069 m 547 725 q 734 649 672 725 q 796 421 796 574 l 796 0 l 544 0 l 544 410 q 522 503 544 475 q 453 532 500 532 q 361 494 396 532 q 326 393 326 456 l 326 0 l 75 0 l 75 503 q 64 706 75 617 l 300 706 l 313 601 q 413 693 353 661 q 547 725 472 725 z "},"ň":{"ha":867,"x_min":64,"x_max":796,"o":"m 547 725 q 734 649 672 725 q 796 421 796 574 l 796 0 l 544 0 l 544 410 q 522 503 544 475 q 453 532 500 532 q 361 494 396 532 q 326 393 326 456 l 326 0 l 75 0 l 75 503 q 64 706 75 617 l 300 706 l 313 601 q 413 693 353 661 q 547 725 472 725 m 697 1085 l 508 796 l 363 796 l 174 1085 l 363 1085 l 436 936 l 508 1085 l 697 1085 z "},"ņ":{"ha":867,"x_min":64,"x_max":796,"o":"m 547 725 q 734 649 672 725 q 796 421 796 574 l 796 0 l 544 0 l 544 410 q 522 503 544 475 q 453 532 500 532 q 361 494 396 532 q 326 393 326 456 l 326 0 l 75 0 l 75 503 q 64 706 75 617 l 300 706 l 313 601 q 413 693 353 661 q 547 725 472 725 m 554 -89 l 554 -182 q 534 -301 554 -251 q 465 -394 514 -351 l 379 -336 q 425 -267 417 -303 l 315 -267 l 315 -89 l 554 -89 z "},"ṅ":{"ha":867,"x_min":64,"x_max":796,"o":"m 547 725 q 734 649 672 725 q 796 421 796 574 l 796 0 l 544 0 l 544 410 q 522 503 544 475 q 453 532 500 532 q 361 494 396 532 q 326 393 326 456 l 326 0 l 75 0 l 75 503 q 64 706 75 617 l 300 706 l 313 601 q 413 693 353 661 q 547 725 472 725 m 567 1051 l 567 825 l 304 825 l 304 1051 l 567 1051 z "},"ṇ":{"ha":867,"x_min":64,"x_max":796,"o":"m 547 725 q 734 649 672 725 q 796 421 796 574 l 796 0 l 544 0 l 544 410 q 522 503 544 475 q 453 532 500 532 q 361 494 396 532 q 326 393 326 456 l 326 0 l 75 0 l 75 503 q 64 706 75 617 l 300 706 l 313 601 q 413 693 353 661 q 547 725 472 725 m 546 -79 l 546 -289 l 325 -289 l 325 -79 l 546 -79 z "},"ŋ":{"ha":867,"x_min":64,"x_max":796,"o":"m 547 725 q 734 649 672 725 q 796 421 796 574 l 796 21 q 724 -227 796 -142 q 507 -312 651 -312 q 372 -299 433 -312 l 372 -100 q 440 -110 411 -110 q 544 22 544 -110 l 544 410 q 522 503 544 475 q 453 532 500 532 q 361 494 396 532 q 326 393 326 456 l 326 0 l 75 0 l 75 503 q 64 706 75 617 l 300 706 l 313 601 q 413 693 353 661 q 547 725 472 725 z "},"ǌ":{"ha":1268,"x_min":64,"x_max":1196,"o":"m 547 725 q 734 649 672 725 q 796 421 796 574 l 796 0 l 544 0 l 544 410 q 522 503 544 475 q 453 532 500 532 q 361 494 396 532 q 326 393 326 456 l 326 0 l 75 0 l 75 503 q 64 706 75 617 l 300 706 l 313 601 q 413 693 353 661 q 547 725 472 725 m 771 -100 q 839 -110 811 -110 q 913 -84 883 -110 q 942 -6 942 -58 l 942 706 l 1193 706 l 1193 -8 q 1119 -232 1193 -151 q 901 -312 1044 -312 q 771 -293 821 -312 l 771 -100 m 1196 1051 l 1196 825 l 933 825 l 933 1051 l 1196 1051 z "},"ṉ":{"ha":867,"x_min":64,"x_max":796,"o":"m 547 725 q 734 649 672 725 q 796 421 796 574 l 796 0 l 544 0 l 544 410 q 522 503 544 475 q 453 532 500 532 q 361 494 396 532 q 326 393 326 456 l 326 0 l 75 0 l 75 503 q 64 706 75 617 l 300 706 l 313 601 q 413 693 353 661 q 547 725 472 725 m 213 -114 l 658 -114 l 658 -254 l 213 -254 l 213 -114 z "},"ñ":{"ha":867,"x_min":64,"x_max":796,"o":"m 547 725 q 734 649 672 725 q 796 421 796 574 l 796 0 l 544 0 l 544 410 q 522 503 544 475 q 453 532 500 532 q 361 494 396 532 q 326 393 326 456 l 326 0 l 75 0 l 75 503 q 64 706 75 617 l 300 706 l 313 601 q 413 693 353 661 q 547 725 472 725 m 185 832 q 231 999 185 944 q 347 1054 276 1054 q 393 1045 371 1054 q 449 1017 415 1036 q 493 993 475 1001 q 528 985 511 985 q 567 1001 551 985 q 586 1050 582 1018 l 686 1050 q 640 883 686 938 q 524 828 594 828 q 478 837 500 828 q 422 865 456 846 q 378 889 396 881 q 343 897 360 897 q 304 881 319 897 q 285 832 289 864 l 185 832 z "},"o":{"ha":858,"x_min":43,"x_max":815,"o":"m 431 -11 q 225 33 313 -11 q 90 161 138 78 q 43 357 43 244 q 90 553 43 469 q 225 681 138 636 q 431 725 313 725 q 634 680 547 725 q 768 552 721 635 q 815 357 815 469 q 768 162 815 244 q 634 34 721 79 q 431 -11 547 -11 m 431 176 q 567 357 567 176 q 533 492 567 449 q 431 536 499 536 q 326 492 361 536 q 292 357 292 449 q 326 220 292 264 q 431 176 361 176 z "},"ó":{"ha":858,"x_min":43,"x_max":815,"o":"m 431 -11 q 225 33 313 -11 q 90 161 138 78 q 43 357 43 244 q 90 553 43 469 q 225 681 138 636 q 431 725 313 725 q 634 680 547 725 q 768 552 721 635 q 815 357 815 469 q 768 162 815 244 q 634 34 721 79 q 431 -11 547 -11 m 431 176 q 567 357 567 176 q 533 492 567 449 q 431 536 499 536 q 326 492 361 536 q 292 357 292 449 q 326 220 292 264 q 431 176 361 176 m 354 796 l 490 1085 l 729 1085 l 506 796 l 354 796 z "},"ŏ":{"ha":858,"x_min":43,"x_max":815,"o":"m 431 -11 q 225 33 313 -11 q 90 161 138 78 q 43 357 43 244 q 90 553 43 469 q 225 681 138 636 q 431 725 313 725 q 634 680 547 725 q 768 552 721 635 q 815 357 815 469 q 768 162 815 244 q 634 34 721 79 q 431 -11 547 -11 m 431 176 q 567 357 567 176 q 533 492 567 449 q 431 536 499 536 q 326 492 361 536 q 292 357 292 449 q 326 220 292 264 q 431 176 361 176 m 431 824 q 257 878 333 824 q 158 1036 181 933 l 265 1083 q 431 976 328 976 q 594 1083 532 976 l 701 1036 q 603 878 679 933 q 431 824 526 824 z "},"ô":{"ha":858,"x_min":43,"x_max":815,"o":"m 431 -11 q 225 33 313 -11 q 90 161 138 78 q 43 357 43 244 q 90 553 43 469 q 225 681 138 636 q 431 725 313 725 q 634 680 547 725 q 768 552 721 635 q 815 357 815 469 q 768 162 815 244 q 634 34 721 79 q 431 -11 547 -11 m 431 176 q 567 357 567 176 q 533 492 567 449 q 431 536 499 536 q 326 492 361 536 q 292 357 292 449 q 326 220 292 264 q 431 176 361 176 m 168 796 l 357 1085 l 503 1085 l 692 796 l 503 796 l 431 943 l 357 796 l 168 796 z "},"ố":{"ha":858,"x_min":43,"x_max":854,"o":"m 431 -11 q 225 33 313 -11 q 90 161 138 78 q 43 357 43 244 q 90 553 43 469 q 225 681 138 636 q 431 725 313 725 q 634 680 547 725 q 768 552 721 635 q 815 357 815 469 q 768 162 815 244 q 634 34 721 79 q 431 -11 547 -11 m 431 176 q 567 357 567 176 q 533 492 567 449 q 431 536 499 536 q 326 492 361 536 q 292 357 292 449 q 326 220 292 264 q 431 176 361 176 m 567 949 l 657 1144 l 854 1144 l 683 949 l 567 949 m 168 796 l 361 985 l 499 985 l 692 796 l 514 796 l 431 878 l 346 796 l 168 796 z "},"ộ":{"ha":858,"x_min":43,"x_max":815,"o":"m 431 -11 q 225 33 313 -11 q 90 161 138 78 q 43 357 43 244 q 90 553 43 469 q 225 681 138 636 q 431 725 313 725 q 634 680 547 725 q 768 552 721 635 q 815 357 815 469 q 768 162 815 244 q 634 34 721 79 q 431 -11 547 -11 m 431 176 q 567 357 567 176 q 533 492 567 449 q 431 536 499 536 q 326 492 361 536 q 292 357 292 449 q 326 220 292 264 q 431 176 361 176 m 540 -79 l 540 -289 l 319 -289 l 319 -79 l 540 -79 m 168 796 l 357 1085 l 503 1085 l 692 796 l 503 796 l 431 943 l 357 796 l 168 796 z "},"ồ":{"ha":858,"x_min":43,"x_max":815,"o":"m 431 -11 q 225 33 313 -11 q 90 161 138 78 q 43 357 43 244 q 90 553 43 469 q 225 681 138 636 q 431 725 313 725 q 634 680 547 725 q 768 552 721 635 q 815 357 815 469 q 768 162 815 244 q 634 34 721 79 q 431 -11 547 -11 m 431 176 q 567 357 567 176 q 533 492 567 449 q 431 536 499 536 q 326 492 361 536 q 292 357 292 449 q 326 220 292 264 q 431 176 361 176 m 450 1144 l 649 1144 l 743 949 l 626 949 l 450 1144 m 168 796 l 361 985 l 499 985 l 692 796 l 514 796 l 431 878 l 346 796 l 168 796 z "},"ổ":{"ha":858,"x_min":43,"x_max":815,"o":"m 431 -11 q 225 33 313 -11 q 90 161 138 78 q 43 357 43 244 q 90 553 43 469 q 225 681 138 636 q 431 725 313 725 q 634 680 547 725 q 768 552 721 635 q 815 357 815 469 q 768 162 815 244 q 634 34 721 79 q 431 -11 547 -11 m 431 176 q 567 357 567 176 q 533 492 567 449 q 431 536 499 536 q 326 492 361 536 q 292 357 292 449 q 326 220 292 264 q 431 176 361 176 m 682 950 l 565 950 l 565 979 q 585 1019 565 1006 q 631 1040 606 1032 q 657 1051 657 1049 q 647 1063 657 1057 q 615 1068 638 1068 q 538 1053 586 1068 l 507 1128 q 649 1154 572 1154 q 760 1131 718 1154 q 801 1069 801 1107 q 783 1029 801 1043 q 732 1003 765 1015 q 694 983 706 992 q 682 961 682 975 l 682 950 m 168 796 l 361 985 l 499 985 l 692 796 l 514 796 l 431 878 l 346 796 l 168 796 z "},"ỗ":{"ha":858,"x_min":43,"x_max":815,"o":"m 431 -11 q 225 33 313 -11 q 90 161 138 78 q 43 357 43 244 q 90 553 43 469 q 225 681 138 636 q 431 725 313 725 q 634 680 547 725 q 768 552 721 635 q 815 357 815 469 q 768 162 815 244 q 634 34 721 79 q 431 -11 547 -11 m 431 176 q 567 357 567 176 q 533 492 567 449 q 431 536 499 536 q 326 492 361 536 q 292 357 292 449 q 326 220 292 264 q 431 176 361 176 m 179 1011 q 227 1118 179 1075 q 342 1161 275 1161 q 392 1155 365 1161 q 443 1140 419 1149 q 522 1122 494 1122 q 563 1128 549 1122 q 581 1156 576 1135 l 681 1156 q 633 1049 681 1093 q 518 1006 585 1006 q 467 1012 494 1006 q 417 1026 440 1018 q 338 1044 365 1044 q 297 1038 311 1044 q 279 1011 283 1032 l 179 1011 m 168 796 l 361 985 l 499 985 l 692 796 l 514 796 l 431 878 l 346 796 l 168 796 z "},"ȍ":{"ha":858,"x_min":43,"x_max":815,"o":"m 431 -11 q 225 33 313 -11 q 90 161 138 78 q 43 357 43 244 q 90 553 43 469 q 225 681 138 636 q 431 725 313 725 q 634 680 547 725 q 768 552 721 635 q 815 357 815 469 q 768 162 815 244 q 634 34 721 79 q 431 -11 547 -11 m 431 176 q 567 357 567 176 q 533 492 567 449 q 431 536 499 536 q 326 492 361 536 q 292 357 292 449 q 326 220 292 264 q 431 176 361 176 m 167 1085 l 339 1085 l 379 796 l 275 796 l 167 1085 m 371 1085 l 543 1085 l 585 796 l 481 796 l 371 1085 z "},"ö":{"ha":858,"x_min":43,"x_max":815,"o":"m 431 -11 q 225 33 313 -11 q 90 161 138 78 q 43 357 43 244 q 90 553 43 469 q 225 681 138 636 q 431 725 313 725 q 634 680 547 725 q 768 552 721 635 q 815 357 815 469 q 768 162 815 244 q 634 34 721 79 q 431 -11 547 -11 m 431 176 q 567 357 567 176 q 533 492 567 449 q 431 536 499 536 q 326 492 361 536 q 292 357 292 449 q 326 220 292 264 q 431 176 361 176 m 401 1043 l 401 832 l 179 832 l 179 1043 l 401 1043 m 681 1043 l 681 832 l 458 832 l 458 1043 l 681 1043 z "},"ȫ":{"ha":858,"x_min":43,"x_max":815,"o":"m 431 -11 q 225 33 313 -11 q 90 161 138 78 q 43 357 43 244 q 90 553 43 469 q 225 681 138 636 q 431 725 313 725 q 634 680 547 725 q 768 552 721 635 q 815 357 815 469 q 768 162 815 244 q 634 34 721 79 q 431 -11 547 -11 m 431 176 q 567 357 567 176 q 533 492 567 449 q 431 536 499 536 q 326 492 361 536 q 292 357 292 449 q 326 220 292 264 q 431 176 361 176 m 401 1043 l 401 832 l 179 832 l 179 1043 l 401 1043 m 681 1043 l 681 832 l 458 832 l 458 1043 l 681 1043 m 207 1278 l 653 1278 l 653 1128 l 207 1128 l 207 1278 z "},"ȱ":{"ha":858,"x_min":43,"x_max":815,"o":"m 431 -11 q 225 33 313 -11 q 90 161 138 78 q 43 357 43 244 q 90 553 43 469 q 225 681 138 636 q 431 725 313 725 q 634 680 547 725 q 768 552 721 635 q 815 357 815 469 q 768 162 815 244 q 634 34 721 79 q 431 -11 547 -11 m 431 176 q 567 357 567 176 q 533 492 567 449 q 431 536 499 536 q 326 492 361 536 q 292 357 292 449 q 326 220 292 264 q 431 176 361 176 m 561 1051 l 561 825 l 299 825 l 299 1051 l 561 1051 m 207 1278 l 653 1278 l 653 1128 l 207 1128 l 207 1278 z "},"ọ":{"ha":858,"x_min":43,"x_max":815,"o":"m 431 -11 q 225 33 313 -11 q 90 161 138 78 q 43 357 43 244 q 90 553 43 469 q 225 681 138 636 q 431 725 313 725 q 634 680 547 725 q 768 552 721 635 q 815 357 815 469 q 768 162 815 244 q 634 34 721 79 q 431 -11 547 -11 m 431 176 q 567 357 567 176 q 533 492 567 449 q 431 536 499 536 q 326 492 361 536 q 292 357 292 449 q 326 220 292 264 q 431 176 361 176 m 540 -79 l 540 -289 l 319 -289 l 319 -79 l 540 -79 z "},"ò":{"ha":858,"x_min":43,"x_max":815,"o":"m 431 -11 q 225 33 313 -11 q 90 161 138 78 q 43 357 43 244 q 90 553 43 469 q 225 681 138 636 q 431 725 313 725 q 634 680 547 725 q 768 552 721 635 q 815 357 815 469 q 768 162 815 244 q 634 34 721 79 q 431 -11 547 -11 m 431 176 q 567 357 567 176 q 533 492 567 449 q 431 536 499 536 q 326 492 361 536 q 292 357 292 449 q 326 220 292 264 q 431 176 361 176 m 131 1085 l 369 1085 l 506 796 l 354 796 l 131 1085 z "},"ỏ":{"ha":858,"x_min":43,"x_max":815,"o":"m 431 -11 q 225 33 313 -11 q 90 161 138 78 q 43 357 43 244 q 90 553 43 469 q 225 681 138 636 q 431 725 313 725 q 634 680 547 725 q 768 552 721 635 q 815 357 815 469 q 768 162 815 244 q 634 34 721 79 q 431 -11 547 -11 m 431 176 q 567 357 567 176 q 533 492 567 449 q 431 536 499 536 q 326 492 361 536 q 292 357 292 449 q 326 220 292 264 q 431 176 361 176 m 492 796 l 372 796 l 372 829 q 385 876 372 858 q 422 915 397 893 q 444 936 438 928 q 451 954 451 944 q 441 977 451 969 q 408 985 431 985 q 344 974 375 985 l 313 1060 q 436 1088 372 1088 q 562 1056 517 1088 q 607 979 607 1024 q 589 925 607 946 q 538 881 571 904 q 503 853 514 865 q 492 828 492 842 l 492 796 z "},"ơ":{"ha":858,"x_min":43,"x_max":863,"o":"m 863 824 q 826 690 863 747 q 725 608 789 632 q 815 354 815 517 q 768 160 815 243 q 634 33 721 78 q 431 -11 547 -11 q 225 33 313 -11 q 90 160 138 78 q 43 354 43 243 q 90 551 43 468 q 224 680 138 635 q 425 725 310 725 q 519 715 454 725 q 550 711 540 711 q 621 740 593 711 q 649 853 649 769 l 649 883 l 863 883 l 863 824 m 431 176 q 567 357 567 176 q 533 492 567 449 q 431 536 499 536 q 326 492 361 536 q 292 357 292 449 q 326 220 292 264 q 431 176 361 176 z "},"ớ":{"ha":858,"x_min":43,"x_max":863,"o":"m 863 824 q 826 690 863 747 q 725 608 789 632 q 815 354 815 517 q 768 160 815 243 q 634 33 721 78 q 431 -11 547 -11 q 225 33 313 -11 q 90 160 138 78 q 43 354 43 243 q 90 551 43 468 q 224 680 138 635 q 425 725 310 725 q 519 715 454 725 q 550 711 540 711 q 621 740 593 711 q 649 853 649 769 l 649 883 l 863 883 l 863 824 m 431 176 q 567 357 567 176 q 533 492 567 449 q 431 536 499 536 q 326 492 361 536 q 292 357 292 449 q 326 220 292 264 q 431 176 361 176 m 354 796 l 490 1085 l 729 1085 l 506 796 l 354 796 z "},"ợ":{"ha":858,"x_min":43,"x_max":863,"o":"m 863 824 q 826 690 863 747 q 725 608 789 632 q 815 354 815 517 q 768 160 815 243 q 634 33 721 78 q 431 -11 547 -11 q 225 33 313 -11 q 90 160 138 78 q 43 354 43 243 q 90 551 43 468 q 224 680 138 635 q 425 725 310 725 q 519 715 454 725 q 550 711 540 711 q 621 740 593 711 q 649 853 649 769 l 649 883 l 863 883 l 863 824 m 431 176 q 567 357 567 176 q 533 492 567 449 q 431 536 499 536 q 326 492 361 536 q 292 357 292 449 q 326 220 292 264 q 431 176 361 176 m 540 -79 l 540 -289 l 319 -289 l 319 -79 l 540 -79 z "},"ờ":{"ha":858,"x_min":43,"x_max":863,"o":"m 863 824 q 826 690 863 747 q 725 608 789 632 q 815 354 815 517 q 768 160 815 243 q 634 33 721 78 q 431 -11 547 -11 q 225 33 313 -11 q 90 160 138 78 q 43 354 43 243 q 90 551 43 468 q 224 680 138 635 q 425 725 310 725 q 519 715 454 725 q 550 711 540 711 q 621 740 593 711 q 649 853 649 769 l 649 883 l 863 883 l 863 824 m 431 176 q 567 357 567 176 q 533 492 567 449 q 431 536 499 536 q 326 492 361 536 q 292 357 292 449 q 326 220 292 264 q 431 176 361 176 m 131 1085 l 369 1085 l 506 796 l 354 796 l 131 1085 z "},"ở":{"ha":858,"x_min":43,"x_max":863,"o":"m 863 824 q 826 690 863 747 q 725 608 789 632 q 815 354 815 517 q 768 160 815 243 q 634 33 721 78 q 431 -11 547 -11 q 225 33 313 -11 q 90 160 138 78 q 43 354 43 243 q 90 551 43 468 q 224 680 138 635 q 425 725 310 725 q 519 715 454 725 q 550 711 540 711 q 621 740 593 711 q 649 853 649 769 l 649 883 l 863 883 l 863 824 m 431 176 q 567 357 567 176 q 533 492 567 449 q 431 536 499 536 q 326 492 361 536 q 292 357 292 449 q 326 220 292 264 q 431 176 361 176 m 492 796 l 372 796 l 372 829 q 385 876 372 858 q 422 915 397 893 q 444 936 438 928 q 451 954 451 944 q 441 977 451 969 q 408 985 431 985 q 344 974 375 985 l 313 1060 q 436 1088 372 1088 q 562 1056 517 1088 q 607 979 607 1024 q 589 925 607 946 q 538 881 571 904 q 503 853 514 865 q 492 828 492 842 l 492 796 z "},"ỡ":{"ha":858,"x_min":43,"x_max":863,"o":"m 863 824 q 826 690 863 747 q 725 608 789 632 q 815 354 815 517 q 768 160 815 243 q 634 33 721 78 q 431 -11 547 -11 q 225 33 313 -11 q 90 160 138 78 q 43 354 43 243 q 90 551 43 468 q 224 680 138 635 q 425 725 310 725 q 519 715 454 725 q 550 711 540 711 q 621 740 593 711 q 649 853 649 769 l 649 883 l 863 883 l 863 824 m 431 176 q 567 357 567 176 q 533 492 567 449 q 431 536 499 536 q 326 492 361 536 q 292 357 292 449 q 326 220 292 264 q 431 176 361 176 m 179 832 q 225 999 179 944 q 342 1054 271 1054 q 388 1045 365 1054 q 443 1017 410 1036 q 488 993 469 1001 q 522 985 506 985 q 561 1001 546 985 q 581 1050 576 1018 l 681 1050 q 635 883 681 938 q 518 828 589 828 q 472 837 494 828 q 417 865 450 846 q 372 889 390 881 q 338 897 354 897 q 299 881 314 897 q 279 832 283 864 l 179 832 z "},"ő":{"ha":858,"x_min":43,"x_max":815,"o":"m 431 -11 q 225 33 313 -11 q 90 161 138 78 q 43 357 43 244 q 90 553 43 469 q 225 681 138 636 q 431 725 313 725 q 634 680 547 725 q 768 552 721 635 q 815 357 815 469 q 768 162 815 244 q 634 34 721 79 q 431 -11 547 -11 m 431 176 q 567 357 567 176 q 533 492 567 449 q 431 536 499 536 q 326 492 361 536 q 292 357 292 449 q 326 220 292 264 q 431 176 361 176 m 275 796 l 317 1085 l 489 1085 l 379 796 l 275 796 m 481 796 l 521 1085 l 693 1085 l 585 796 l 481 796 z "},"ȏ":{"ha":858,"x_min":43,"x_max":815,"o":"m 431 -11 q 225 33 313 -11 q 90 161 138 78 q 43 357 43 244 q 90 553 43 469 q 225 681 138 636 q 431 725 313 725 q 634 680 547 725 q 768 552 721 635 q 815 357 815 469 q 768 162 815 244 q 634 34 721 79 q 431 -11 547 -11 m 431 176 q 567 357 567 176 q 533 492 567 449 q 431 536 499 536 q 326 492 361 536 q 292 357 292 449 q 326 220 292 264 q 431 176 361 176 m 431 1075 q 603 1019 526 1075 q 701 861 679 964 l 594 817 q 431 924 529 924 q 265 817 331 924 l 158 863 q 258 1019 182 964 q 431 1075 333 1075 z "},"ō":{"ha":858,"x_min":43,"x_max":815,"o":"m 431 -11 q 225 33 313 -11 q 90 161 138 78 q 43 357 43 244 q 90 553 43 469 q 225 681 138 636 q 431 725 313 725 q 634 680 547 725 q 768 552 721 635 q 815 357 815 469 q 768 162 815 244 q 634 34 721 79 q 431 -11 547 -11 m 431 176 q 567 357 567 176 q 533 492 567 449 q 431 536 499 536 q 326 492 361 536 q 292 357 292 449 q 326 220 292 264 q 431 176 361 176 m 207 1013 l 653 1013 l 653 863 l 207 863 l 207 1013 z "},"ṓ":{"ha":858,"x_min":43,"x_max":815,"o":"m 431 -11 q 225 33 313 -11 q 90 161 138 78 q 43 357 43 244 q 90 553 43 469 q 225 681 138 636 q 431 725 313 725 q 634 680 547 725 q 768 552 721 635 q 815 357 815 469 q 768 162 815 244 q 634 34 721 79 q 431 -11 547 -11 m 431 176 q 567 357 567 176 q 533 492 567 449 q 431 536 499 536 q 326 492 361 536 q 292 357 292 449 q 326 220 292 264 q 431 176 361 176 m 207 1013 l 653 1013 l 653 863 l 207 863 l 207 1013 m 354 1061 l 490 1350 l 729 1350 l 506 1061 l 354 1061 z "},"ṑ":{"ha":858,"x_min":43,"x_max":815,"o":"m 431 -11 q 225 33 313 -11 q 90 161 138 78 q 43 357 43 244 q 90 553 43 469 q 225 681 138 636 q 431 725 313 725 q 634 680 547 725 q 768 552 721 635 q 815 357 815 469 q 768 162 815 244 q 634 34 721 79 q 431 -11 547 -11 m 431 176 q 567 357 567 176 q 533 492 567 449 q 431 536 499 536 q 326 492 361 536 q 292 357 292 449 q 326 220 292 264 q 431 176 361 176 m 207 1013 l 653 1013 l 653 863 l 207 863 l 207 1013 m 131 1350 l 369 1350 l 506 1061 l 354 1061 l 131 1350 z "},"ǫ":{"ha":858,"x_min":43,"x_max":815,"o":"m 574 8 q 510 -28 533 -3 q 488 -87 488 -53 q 510 -141 488 -122 q 572 -160 532 -160 q 647 -143 608 -160 l 672 -257 q 522 -286 596 -286 q 386 -240 439 -286 q 333 -125 333 -194 q 383 -8 333 -58 q 133 103 224 7 q 43 357 43 200 q 90 553 43 469 q 225 681 138 636 q 431 725 313 725 q 634 680 547 725 q 768 552 721 635 q 815 357 815 469 q 751 133 815 226 q 574 8 686 40 m 431 176 q 567 357 567 176 q 533 492 567 449 q 431 536 499 536 q 326 492 361 536 q 292 357 292 449 q 326 220 292 264 q 431 176 361 176 z "},"ø":{"ha":858,"x_min":43,"x_max":815,"o":"m 679 653 q 780 529 744 604 q 815 357 815 454 q 768 162 815 244 q 634 34 721 79 q 431 -11 547 -11 q 301 6 360 -11 l 240 -99 l 128 -32 l 182 60 q 79 184 115 108 q 43 357 43 260 q 90 553 43 469 q 225 681 138 636 q 431 725 313 725 q 560 708 500 725 l 618 810 l 732 743 l 679 653 m 286 357 q 299 263 286 300 l 460 538 q 431 539 450 539 q 322 494 358 539 q 286 357 286 450 m 431 175 q 537 219 501 175 q 572 357 572 263 q 560 449 572 411 l 401 176 q 431 175 411 175 z "},"ǿ":{"ha":858,"x_min":43,"x_max":815,"o":"m 679 653 q 780 529 744 604 q 815 357 815 454 q 768 162 815 244 q 634 34 721 79 q 431 -11 547 -11 q 301 6 360 -11 l 240 -99 l 128 -32 l 182 60 q 79 184 115 108 q 43 357 43 260 q 90 553 43 469 q 225 681 138 636 q 431 725 313 725 q 560 708 500 725 l 618 810 l 732 743 l 679 653 m 286 357 q 299 263 286 300 l 460 538 q 431 539 450 539 q 322 494 358 539 q 286 357 286 450 m 431 175 q 537 219 501 175 q 572 357 572 263 q 560 449 572 411 l 401 176 q 431 175 411 175 m 354 796 l 490 1085 l 729 1085 l 506 796 l 354 796 z "},"õ":{"ha":858,"x_min":43,"x_max":815,"o":"m 431 -11 q 225 33 313 -11 q 90 161 138 78 q 43 357 43 244 q 90 553 43 469 q 225 681 138 636 q 431 725 313 725 q 634 680 547 725 q 768 552 721 635 q 815 357 815 469 q 768 162 815 244 q 634 34 721 79 q 431 -11 547 -11 m 431 176 q 567 357 567 176 q 533 492 567 449 q 431 536 499 536 q 326 492 361 536 q 292 357 292 449 q 326 220 292 264 q 431 176 361 176 m 179 832 q 225 999 179 944 q 342 1054 271 1054 q 388 1045 365 1054 q 443 1017 410 1036 q 488 993 469 1001 q 522 985 506 985 q 561 1001 546 985 q 581 1050 576 1018 l 681 1050 q 635 883 681 938 q 518 828 589 828 q 472 837 494 828 q 417 865 450 846 q 372 889 390 881 q 338 897 354 897 q 299 881 314 897 q 279 832 283 864 l 179 832 z "},"ṍ":{"ha":858,"x_min":43,"x_max":815,"o":"m 431 -11 q 225 33 313 -11 q 90 161 138 78 q 43 357 43 244 q 90 553 43 469 q 225 681 138 636 q 431 725 313 725 q 634 680 547 725 q 768 552 721 635 q 815 357 815 469 q 768 162 815 244 q 634 34 721 79 q 431 -11 547 -11 m 431 176 q 567 357 567 176 q 533 492 567 449 q 431 536 499 536 q 326 492 361 536 q 292 357 292 449 q 326 220 292 264 q 431 176 361 176 m 179 832 q 225 999 179 944 q 342 1054 271 1054 q 388 1045 365 1054 q 443 1017 410 1036 q 488 993 469 1001 q 522 985 506 985 q 561 1001 546 985 q 581 1050 576 1018 l 681 1050 q 635 883 681 938 q 518 828 589 828 q 472 837 494 828 q 417 865 450 846 q 372 889 390 881 q 338 897 354 897 q 299 881 314 897 q 279 832 283 864 l 179 832 m 354 1061 l 490 1350 l 729 1350 l 506 1061 l 354 1061 z "},"ṏ":{"ha":858,"x_min":43,"x_max":815,"o":"m 431 -11 q 225 33 313 -11 q 90 161 138 78 q 43 357 43 244 q 90 553 43 469 q 225 681 138 636 q 431 725 313 725 q 634 680 547 725 q 768 552 721 635 q 815 357 815 469 q 768 162 815 244 q 634 34 721 79 q 431 -11 547 -11 m 431 176 q 567 357 567 176 q 533 492 567 449 q 431 536 499 536 q 326 492 361 536 q 292 357 292 449 q 326 220 292 264 q 431 176 361 176 m 179 832 q 225 999 179 944 q 342 1054 271 1054 q 388 1045 365 1054 q 443 1017 410 1036 q 488 993 469 1001 q 522 985 506 985 q 561 1001 546 985 q 581 1050 576 1018 l 681 1050 q 635 883 681 938 q 518 828 589 828 q 472 837 494 828 q 417 865 450 846 q 372 889 390 881 q 338 897 354 897 q 299 881 314 897 q 279 832 283 864 l 179 832 m 401 1308 l 401 1097 l 179 1097 l 179 1308 l 401 1308 m 681 1308 l 681 1097 l 458 1097 l 458 1308 l 681 1308 z "},"ȭ":{"ha":858,"x_min":43,"x_max":815,"o":"m 431 -11 q 225 33 313 -11 q 90 161 138 78 q 43 357 43 244 q 90 553 43 469 q 225 681 138 636 q 431 725 313 725 q 634 680 547 725 q 768 552 721 635 q 815 357 815 469 q 768 162 815 244 q 634 34 721 79 q 431 -11 547 -11 m 431 176 q 567 357 567 176 q 533 492 567 449 q 431 536 499 536 q 326 492 361 536 q 292 357 292 449 q 326 220 292 264 q 431 176 361 176 m 179 832 q 225 999 179 944 q 342 1054 271 1054 q 388 1045 365 1054 q 443 1017 410 1036 q 488 993 469 1001 q 522 985 506 985 q 561 1001 546 985 q 581 1050 576 1018 l 681 1050 q 635 883 681 938 q 518 828 589 828 q 472 837 494 828 q 417 865 450 846 q 372 889 390 881 q 338 897 354 897 q 299 881 314 897 q 279 832 283 864 l 179 832 m 207 1278 l 653 1278 l 653 1128 l 207 1128 l 207 1278 z "},"œ":{"ha":1289,"x_min":43,"x_max":1246,"o":"m 1246 304 l 814 304 q 858 204 824 235 q 958 174 893 174 q 1069 190 1015 174 q 1168 239 1124 207 l 1233 72 q 1106 11 1181 33 q 956 -11 1032 -11 q 688 94 778 -11 q 575 16 643 43 q 424 -11 507 -11 q 222 34 308 -11 q 90 163 136 79 q 43 357 43 246 q 90 551 43 468 q 222 680 136 635 q 424 725 308 725 q 576 697 508 725 q 690 617 644 669 q 797 697 735 669 q 938 725 860 725 q 1097 678 1026 725 q 1206 549 1167 632 q 1246 361 1246 467 l 1246 304 m 931 553 q 849 520 879 553 q 813 424 819 488 l 1033 424 q 1003 519 1029 486 q 931 553 976 553 m 426 176 q 526 220 493 176 q 560 357 560 264 q 526 493 560 450 q 426 536 493 536 q 292 357 292 536 q 426 176 292 176 z "},"p":{"ha":896,"x_min":64,"x_max":853,"o":"m 540 725 q 701 678 631 725 q 813 546 772 631 q 853 351 853 461 q 813 160 853 243 q 703 33 774 78 q 540 -11 632 -11 q 414 16 471 -11 q 326 92 357 43 l 326 -300 l 75 -300 l 75 503 q 64 706 75 617 l 300 706 l 314 596 q 401 690 340 654 q 540 725 463 725 m 464 176 q 567 221 532 176 q 601 351 601 265 q 566 487 601 439 q 464 535 531 535 q 360 489 396 535 q 324 354 324 443 q 360 222 324 268 q 464 176 396 176 z "},"þ":{"ha":896,"x_min":75,"x_max":853,"o":"m 540 725 q 702 677 631 725 q 813 544 774 629 q 853 351 853 460 q 813 162 853 244 q 703 34 774 79 q 540 -11 632 -11 q 414 16 471 -11 q 326 92 357 43 l 326 -300 l 75 -300 l 75 1022 l 326 1022 l 326 619 q 414 697 357 668 q 540 725 471 725 m 464 176 q 566 221 531 176 q 601 351 601 265 q 565 488 601 440 q 464 535 529 535 q 360 489 396 535 q 324 354 324 443 q 360 222 324 268 q 464 176 396 176 z "},"q":{"ha":893,"x_min":43,"x_max":832,"o":"m 832 706 q 818 503 818 622 l 818 -300 l 567 -300 l 567 89 q 478 15 535 42 q 354 -11 422 -11 q 193 33 264 -11 q 83 160 122 78 q 43 351 43 243 q 83 546 43 461 q 194 678 124 631 q 354 725 265 725 q 491 691 429 725 q 581 600 553 657 l 594 706 l 832 706 m 432 176 q 535 222 499 176 q 571 354 571 268 q 535 488 571 442 q 432 535 499 535 q 329 487 367 535 q 292 351 292 439 q 328 222 292 267 q 432 176 364 176 z "},"r":{"ha":597,"x_min":64,"x_max":600,"o":"m 521 722 q 600 707 572 722 l 600 478 q 485 506 540 506 q 326 354 326 506 l 326 0 l 75 0 l 75 503 q 64 706 75 617 l 300 706 l 315 588 q 396 688 340 653 q 521 722 451 722 z "},"ŕ":{"ha":597,"x_min":64,"x_max":644,"o":"m 521 722 q 600 707 572 722 l 600 478 q 485 506 540 506 q 326 354 326 506 l 326 0 l 75 0 l 75 503 q 64 706 75 617 l 300 706 l 315 588 q 396 688 340 653 q 521 722 451 722 m 269 796 l 406 1085 l 644 1085 l 421 796 l 269 796 z "},"ř":{"ha":597,"x_min":64,"x_max":607,"o":"m 521 722 q 600 707 572 722 l 600 478 q 485 506 540 506 q 326 354 326 506 l 326 0 l 75 0 l 75 503 q 64 706 75 617 l 300 706 l 315 588 q 396 688 340 653 q 521 722 451 722 m 607 1085 l 418 796 l 272 796 l 83 1085 l 272 1085 l 346 936 l 418 1085 l 607 1085 z "},"ŗ":{"ha":597,"x_min":64,"x_max":600,"o":"m 521 722 q 600 707 572 722 l 600 478 q 485 506 540 506 q 326 354 326 506 l 326 0 l 75 0 l 75 503 q 64 706 75 617 l 300 706 l 315 588 q 396 688 340 653 q 521 722 451 722 m 318 -89 l 318 -182 q 298 -301 318 -251 q 229 -394 278 -351 l 143 -336 q 189 -267 181 -303 l 79 -267 l 79 -89 l 318 -89 z "},"ȑ":{"ha":597,"x_min":64,"x_max":600,"o":"m 521 722 q 600 707 572 722 l 600 478 q 485 506 540 506 q 326 354 326 506 l 326 0 l 75 0 l 75 503 q 64 706 75 617 l 300 706 l 315 588 q 396 688 340 653 q 521 722 451 722 m 82 1085 l 254 1085 l 294 796 l 190 796 l 82 1085 m 286 1085 l 458 1085 l 500 796 l 396 796 l 286 1085 z "},"ṛ":{"ha":597,"x_min":64,"x_max":600,"o":"m 521 722 q 600 707 572 722 l 600 478 q 485 506 540 506 q 326 354 326 506 l 326 0 l 75 0 l 75 503 q 64 706 75 617 l 300 706 l 315 588 q 396 688 340 653 q 521 722 451 722 m 310 -79 l 310 -289 l 89 -289 l 89 -79 l 310 -79 z "},"ȓ":{"ha":597,"x_min":64,"x_max":617,"o":"m 521 722 q 600 707 572 722 l 600 478 q 485 506 540 506 q 326 354 326 506 l 326 0 l 75 0 l 75 503 q 64 706 75 617 l 300 706 l 315 588 q 396 688 340 653 q 521 722 451 722 m 346 1075 q 518 1019 442 1075 q 617 861 594 964 l 510 817 q 346 924 444 924 q 181 817 246 924 l 74 863 q 173 1019 97 964 q 346 1075 249 1075 z "},"ṟ":{"ha":597,"x_min":-24,"x_max":600,"o":"m 521 722 q 600 707 572 722 l 600 478 q 485 506 540 506 q 326 354 326 506 l 326 0 l 75 0 l 75 503 q 64 706 75 617 l 300 706 l 315 588 q 396 688 340 653 q 521 722 451 722 m -24 -114 l 422 -114 l 422 -254 l -24 -254 l -24 -114 z "},"s":{"ha":704,"x_min":26,"x_max":671,"o":"m 360 -11 q 26 74 149 -11 l 90 244 q 219 184 147 206 q 361 163 292 163 q 428 175 404 163 q 451 210 451 188 q 434 241 451 229 q 368 263 417 253 l 254 289 q 98 359 146 311 q 50 492 50 407 q 90 613 50 560 q 202 695 131 665 q 367 725 274 725 q 517 703 443 725 q 654 640 590 681 l 588 474 q 474 529 532 510 q 364 549 415 549 q 299 535 322 549 q 275 497 275 522 q 289 473 275 482 q 342 454 303 464 l 460 428 q 622 351 572 401 q 671 213 671 300 q 588 49 671 108 q 360 -11 506 -11 z "},"ś":{"ha":704,"x_min":26,"x_max":671,"o":"m 360 -11 q 26 74 149 -11 l 90 244 q 219 184 147 206 q 361 163 292 163 q 428 175 404 163 q 451 210 451 188 q 434 241 451 229 q 368 263 417 253 l 254 289 q 98 359 146 311 q 50 492 50 407 q 90 613 50 560 q 202 695 131 665 q 367 725 274 725 q 517 703 443 725 q 654 640 590 681 l 588 474 q 474 529 532 510 q 364 549 415 549 q 299 535 322 549 q 275 497 275 522 q 289 473 275 482 q 342 454 303 464 l 460 428 q 622 351 572 401 q 671 213 671 300 q 588 49 671 108 q 360 -11 506 -11 m 288 796 l 424 1085 l 663 1085 l 439 796 l 288 796 z "},"ṥ":{"ha":704,"x_min":26,"x_max":689,"o":"m 360 -11 q 26 74 149 -11 l 90 244 q 219 184 147 206 q 361 163 292 163 q 428 175 404 163 q 451 210 451 188 q 434 241 451 229 q 368 263 417 253 l 254 289 q 98 359 146 311 q 50 492 50 407 q 90 613 50 560 q 202 695 131 665 q 367 725 274 725 q 517 703 443 725 q 654 640 590 681 l 588 474 q 474 529 532 510 q 364 549 415 549 q 299 535 322 549 q 275 497 275 522 q 289 473 275 482 q 342 454 303 464 l 460 428 q 622 351 572 401 q 671 213 671 300 q 588 49 671 108 q 360 -11 506 -11 m 314 776 l 450 1065 l 689 1065 l 465 776 l 314 776 m 342 1068 l 342 842 l 79 842 l 79 1068 l 342 1068 z "},"š":{"ha":704,"x_min":26,"x_max":671,"o":"m 360 -11 q 26 74 149 -11 l 90 244 q 219 184 147 206 q 361 163 292 163 q 428 175 404 163 q 451 210 451 188 q 434 241 451 229 q 368 263 417 253 l 254 289 q 98 359 146 311 q 50 492 50 407 q 90 613 50 560 q 202 695 131 665 q 367 725 274 725 q 517 703 443 725 q 654 640 590 681 l 588 474 q 474 529 532 510 q 364 549 415 549 q 299 535 322 549 q 275 497 275 522 q 289 473 275 482 q 342 454 303 464 l 460 428 q 622 351 572 401 q 671 213 671 300 q 588 49 671 108 q 360 -11 506 -11 m 625 1085 l 436 796 l 290 796 l 101 1085 l 290 1085 l 364 936 l 436 1085 l 625 1085 z "},"ṧ":{"ha":704,"x_min":26,"x_max":671,"o":"m 360 -11 q 26 74 149 -11 l 90 244 q 219 184 147 206 q 361 163 292 163 q 428 175 404 163 q 451 210 451 188 q 434 241 451 229 q 368 263 417 253 l 254 289 q 98 359 146 311 q 50 492 50 407 q 90 613 50 560 q 202 695 131 665 q 367 725 274 725 q 517 703 443 725 q 654 640 590 681 l 588 474 q 474 529 532 510 q 364 549 415 549 q 299 535 322 549 q 275 497 275 522 q 289 473 275 482 q 342 454 303 464 l 460 428 q 622 351 572 401 q 671 213 671 300 q 588 49 671 108 q 360 -11 506 -11 m 625 1085 l 436 796 l 290 796 l 101 1085 l 290 1085 l 364 936 l 436 1085 l 625 1085 m 494 1317 l 494 1090 l 232 1090 l 232 1317 l 494 1317 z "},"ş":{"ha":704,"x_min":26,"x_max":671,"o":"m 671 213 q 599 57 671 115 q 400 -10 528 -1 l 393 -56 l 404 -56 q 493 -82 461 -56 q 525 -153 525 -108 q 474 -244 525 -210 q 325 -278 422 -278 q 258 -272 294 -278 q 190 -254 221 -265 l 206 -164 q 317 -183 281 -183 q 376 -153 376 -183 q 332 -129 376 -129 q 288 -136 315 -129 l 260 -106 l 274 -7 q 26 74 122 8 l 90 244 q 219 184 147 206 q 361 163 292 163 q 428 175 404 163 q 451 210 451 188 q 434 241 451 229 q 368 263 417 253 l 254 289 q 98 359 146 311 q 50 492 50 407 q 90 613 50 560 q 202 695 131 665 q 367 725 274 725 q 517 703 443 725 q 654 640 590 681 l 588 474 q 474 529 532 510 q 364 549 415 549 q 299 535 322 549 q 275 497 275 522 q 289 473 275 482 q 342 454 303 464 l 460 428 q 622 351 572 401 q 671 213 671 300 z "},"ŝ":{"ha":704,"x_min":26,"x_max":671,"o":"m 360 -11 q 26 74 149 -11 l 90 244 q 219 184 147 206 q 361 163 292 163 q 428 175 404 163 q 451 210 451 188 q 434 241 451 229 q 368 263 417 253 l 254 289 q 98 359 146 311 q 50 492 50 407 q 90 613 50 560 q 202 695 131 665 q 367 725 274 725 q 517 703 443 725 q 654 640 590 681 l 588 474 q 474 529 532 510 q 364 549 415 549 q 299 535 322 549 q 275 497 275 522 q 289 473 275 482 q 342 454 303 464 l 460 428 q 622 351 572 401 q 671 213 671 300 q 588 49 671 108 q 360 -11 506 -11 m 101 796 l 290 1085 l 436 1085 l 625 796 l 436 796 l 364 943 l 290 796 l 101 796 z "},"ș":{"ha":704,"x_min":26,"x_max":671,"o":"m 360 -11 q 26 74 149 -11 l 90 244 q 219 184 147 206 q 361 163 292 163 q 428 175 404 163 q 451 210 451 188 q 434 241 451 229 q 368 263 417 253 l 254 289 q 98 359 146 311 q 50 492 50 407 q 90 613 50 560 q 202 695 131 665 q 367 725 274 725 q 517 703 443 725 q 654 640 590 681 l 588 474 q 474 529 532 510 q 364 549 415 549 q 299 535 322 549 q 275 497 275 522 q 289 473 275 482 q 342 454 303 464 l 460 428 q 622 351 572 401 q 671 213 671 300 q 588 49 671 108 q 360 -11 506 -11 m 471 -89 l 471 -182 q 451 -301 471 -251 q 382 -394 431 -351 l 296 -336 q 342 -267 333 -303 l 232 -267 l 232 -89 l 471 -89 z "},"ṡ":{"ha":704,"x_min":26,"x_max":671,"o":"m 360 -11 q 26 74 149 -11 l 90 244 q 219 184 147 206 q 361 163 292 163 q 428 175 404 163 q 451 210 451 188 q 434 241 451 229 q 368 263 417 253 l 254 289 q 98 359 146 311 q 50 492 50 407 q 90 613 50 560 q 202 695 131 665 q 367 725 274 725 q 517 703 443 725 q 654 640 590 681 l 588 474 q 474 529 532 510 q 364 549 415 549 q 299 535 322 549 q 275 497 275 522 q 289 473 275 482 q 342 454 303 464 l 460 428 q 622 351 572 401 q 671 213 671 300 q 588 49 671 108 q 360 -11 506 -11 m 494 1051 l 494 825 l 232 825 l 232 1051 l 494 1051 z "},"ṣ":{"ha":704,"x_min":26,"x_max":671,"o":"m 360 -11 q 26 74 149 -11 l 90 244 q 219 184 147 206 q 361 163 292 163 q 428 175 404 163 q 451 210 451 188 q 434 241 451 229 q 368 263 417 253 l 254 289 q 98 359 146 311 q 50 492 50 407 q 90 613 50 560 q 202 695 131 665 q 367 725 274 725 q 517 703 443 725 q 654 640 590 681 l 588 474 q 474 529 532 510 q 364 549 415 549 q 299 535 322 549 q 275 497 275 522 q 289 473 275 482 q 342 454 303 464 l 460 428 q 622 351 572 401 q 671 213 671 300 q 588 49 671 108 q 360 -11 506 -11 m 463 -79 l 463 -289 l 242 -289 l 242 -79 l 463 -79 z "},"ṩ":{"ha":704,"x_min":26,"x_max":671,"o":"m 360 -11 q 26 74 149 -11 l 90 244 q 219 184 147 206 q 361 163 292 163 q 428 175 404 163 q 451 210 451 188 q 434 241 451 229 q 368 263 417 253 l 254 289 q 98 359 146 311 q 50 492 50 407 q 90 613 50 560 q 202 695 131 665 q 367 725 274 725 q 517 703 443 725 q 654 640 590 681 l 588 474 q 474 529 532 510 q 364 549 415 549 q 299 535 322 549 q 275 497 275 522 q 289 473 275 482 q 342 454 303 464 l 460 428 q 622 351 572 401 q 671 213 671 300 q 588 49 671 108 q 360 -11 506 -11 m 463 -79 l 463 -289 l 242 -289 l 242 -79 l 463 -79 m 494 1051 l 494 825 l 232 825 l 232 1051 l 494 1051 z "},"ß":{"ha":1004,"x_min":75,"x_max":981,"o":"m 679 524 q 908 415 836 482 q 981 233 981 347 q 942 106 981 161 q 832 19 903 50 q 668 -11 761 -11 q 503 10 579 -11 q 378 74 428 32 l 443 251 q 550 190 490 211 q 671 169 610 169 q 733 192 713 169 q 753 244 753 214 q 682 338 753 296 q 449 417 611 379 l 449 599 q 586 661 547 625 q 625 750 625 697 q 497 858 625 858 q 371 809 415 858 q 326 660 326 760 l 326 0 l 75 0 l 75 622 q 183 931 75 826 q 499 1036 292 1036 q 763 964 667 1036 q 860 761 860 892 q 821 628 860 686 q 679 524 782 569 z "},"t":{"ha":578,"x_min":4,"x_max":558,"o":"m 492 192 q 558 200 517 192 l 558 10 q 428 -11 507 -11 q 210 69 285 -11 q 136 293 136 150 l 136 521 l 4 521 l 4 706 l 136 706 l 136 865 l 388 946 l 388 706 l 557 706 l 557 521 l 388 521 l 388 293 q 417 217 388 243 q 492 192 447 192 z "},"ŧ":{"ha":593,"x_min":11,"x_max":567,"o":"m 499 192 q 567 200 524 192 l 567 10 q 435 -11 515 -11 q 217 69 292 -11 q 143 293 143 150 l 143 311 l 40 311 l 40 485 l 143 485 l 143 521 l 11 521 l 11 706 l 143 706 l 143 865 l 397 946 l 397 706 l 565 706 l 565 521 l 397 521 l 397 485 l 536 485 l 536 311 l 397 311 l 397 293 q 426 217 397 243 q 499 192 454 192 z "},"ť":{"ha":578,"x_min":4,"x_max":622,"o":"m 622 992 l 578 744 l 436 744 l 436 992 l 622 992 m 388 293 q 417 217 388 243 q 492 192 447 192 q 558 200 517 192 l 558 10 q 428 -11 507 -11 q 210 69 285 -11 q 136 293 136 150 l 136 521 l 4 521 l 4 706 l 136 706 l 136 865 l 388 946 l 388 706 l 557 706 l 557 521 l 388 521 l 388 293 z "},"ţ":{"ha":578,"x_min":4,"x_max":558,"o":"m 410 -11 l 403 -56 l 414 -56 q 503 -82 471 -56 q 535 -153 535 -108 q 483 -244 535 -210 q 335 -278 432 -278 q 267 -272 304 -278 q 200 -254 231 -265 l 215 -164 q 326 -183 290 -183 q 386 -153 386 -183 q 342 -129 386 -129 q 297 -136 325 -129 l 269 -106 l 286 15 q 174 121 211 50 q 136 293 136 192 l 136 521 l 4 521 l 4 706 l 136 706 l 136 865 l 388 946 l 388 706 l 557 706 l 557 521 l 388 521 l 388 293 q 417 217 388 243 q 492 192 447 192 q 558 200 517 192 l 558 10 q 428 -11 507 -11 l 410 -11 z "},"ț":{"ha":578,"x_min":4,"x_max":558,"o":"m 492 192 q 558 200 517 192 l 558 10 q 428 -11 507 -11 q 210 69 285 -11 q 136 293 136 150 l 136 521 l 4 521 l 4 706 l 136 706 l 136 865 l 388 946 l 388 706 l 557 706 l 557 521 l 388 521 l 388 293 q 417 217 388 243 q 492 192 447 192 m 481 -89 l 481 -182 q 460 -301 481 -251 q 392 -394 440 -351 l 306 -336 q 351 -267 343 -303 l 242 -267 l 242 -89 l 481 -89 z "},"ẗ":{"ha":578,"x_min":4,"x_max":558,"o":"m 492 192 q 558 200 517 192 l 558 10 q 428 -11 507 -11 q 210 69 285 -11 q 136 293 136 150 l 136 521 l 4 521 l 4 706 l 136 706 l 136 865 l 388 946 l 388 706 l 557 706 l 557 521 l 388 521 l 388 293 q 417 217 388 243 q 492 192 447 192 m 233 1211 l 233 1001 l 11 1001 l 11 1211 l 233 1211 m 513 1211 l 513 1001 l 290 1001 l 290 1211 l 513 1211 z "},"ṭ":{"ha":578,"x_min":4,"x_max":558,"o":"m 492 192 q 558 200 517 192 l 558 10 q 428 -11 507 -11 q 210 69 285 -11 q 136 293 136 150 l 136 521 l 4 521 l 4 706 l 136 706 l 136 865 l 388 946 l 388 706 l 557 706 l 557 521 l 388 521 l 388 293 q 417 217 388 243 q 492 192 447 192 m 472 -79 l 472 -289 l 251 -289 l 251 -79 l 472 -79 z "},"ṯ":{"ha":578,"x_min":4,"x_max":585,"o":"m 492 192 q 558 200 517 192 l 558 10 q 428 -11 507 -11 q 210 69 285 -11 q 136 293 136 150 l 136 521 l 4 521 l 4 706 l 136 706 l 136 865 l 388 946 l 388 706 l 557 706 l 557 521 l 388 521 l 388 293 q 417 217 388 243 q 492 192 447 192 m 139 -114 l 585 -114 l 585 -254 l 139 -254 l 139 -114 z "},"u":{"ha":860,"x_min":71,"x_max":785,"o":"m 785 706 l 785 0 l 539 0 l 539 94 q 338 -11 471 -11 q 137 64 203 -11 q 71 293 71 139 l 71 706 l 322 706 l 322 286 q 413 182 322 182 q 498 219 465 182 q 531 319 531 257 l 531 706 l 785 706 z "},"ú":{"ha":860,"x_min":71,"x_max":785,"o":"m 785 706 l 785 0 l 539 0 l 539 94 q 338 -11 471 -11 q 137 64 203 -11 q 71 293 71 139 l 71 706 l 322 706 l 322 286 q 413 182 322 182 q 498 219 465 182 q 531 319 531 257 l 531 706 l 785 706 m 353 796 l 489 1085 l 728 1085 l 504 796 l 353 796 z "},"ŭ":{"ha":860,"x_min":71,"x_max":785,"o":"m 785 706 l 785 0 l 539 0 l 539 94 q 338 -11 471 -11 q 137 64 203 -11 q 71 293 71 139 l 71 706 l 322 706 l 322 286 q 413 182 322 182 q 498 219 465 182 q 531 319 531 257 l 531 706 l 785 706 m 429 824 q 256 878 332 824 q 157 1036 179 933 l 264 1083 q 429 976 326 976 q 593 1083 531 976 l 700 1036 q 601 878 678 933 q 429 824 525 824 z "},"û":{"ha":860,"x_min":71,"x_max":785,"o":"m 785 706 l 785 0 l 539 0 l 539 94 q 338 -11 471 -11 q 137 64 203 -11 q 71 293 71 139 l 71 706 l 322 706 l 322 286 q 413 182 322 182 q 498 219 465 182 q 531 319 531 257 l 531 706 l 785 706 m 167 796 l 356 1085 l 501 1085 l 690 796 l 501 796 l 429 943 l 356 796 l 167 796 z "},"ȕ":{"ha":860,"x_min":71,"x_max":785,"o":"m 785 706 l 785 0 l 539 0 l 539 94 q 338 -11 471 -11 q 137 64 203 -11 q 71 293 71 139 l 71 706 l 322 706 l 322 286 q 413 182 322 182 q 498 219 465 182 q 531 319 531 257 l 531 706 l 785 706 m 165 1085 l 338 1085 l 378 796 l 274 796 l 165 1085 m 369 1085 l 542 1085 l 583 796 l 479 796 l 369 1085 z "},"ü":{"ha":860,"x_min":71,"x_max":785,"o":"m 785 706 l 785 0 l 539 0 l 539 94 q 338 -11 471 -11 q 137 64 203 -11 q 71 293 71 139 l 71 706 l 322 706 l 322 286 q 413 182 322 182 q 498 219 465 182 q 531 319 531 257 l 531 706 l 785 706 m 400 1043 l 400 832 l 178 832 l 178 1043 l 400 1043 m 679 1043 l 679 832 l 457 832 l 457 1043 l 679 1043 z "},"ụ":{"ha":860,"x_min":71,"x_max":785,"o":"m 785 706 l 785 0 l 539 0 l 539 94 q 338 -11 471 -11 q 137 64 203 -11 q 71 293 71 139 l 71 706 l 322 706 l 322 286 q 413 182 322 182 q 498 219 465 182 q 531 319 531 257 l 531 706 l 785 706 m 539 -79 l 539 -289 l 318 -289 l 318 -79 l 539 -79 z "},"ù":{"ha":860,"x_min":71,"x_max":785,"o":"m 785 706 l 785 0 l 539 0 l 539 94 q 338 -11 471 -11 q 137 64 203 -11 q 71 293 71 139 l 71 706 l 322 706 l 322 286 q 413 182 322 182 q 498 219 465 182 q 531 319 531 257 l 531 706 l 785 706 m 129 1085 l 368 1085 l 504 796 l 353 796 l 129 1085 z "},"ủ":{"ha":860,"x_min":71,"x_max":785,"o":"m 785 706 l 785 0 l 539 0 l 539 94 q 338 -11 471 -11 q 137 64 203 -11 q 71 293 71 139 l 71 706 l 322 706 l 322 286 q 413 182 322 182 q 498 219 465 182 q 531 319 531 257 l 531 706 l 785 706 m 490 796 l 371 796 l 371 829 q 383 876 371 858 q 421 915 396 893 q 443 936 436 928 q 450 954 450 944 q 440 977 450 969 q 407 985 429 985 q 343 974 374 985 l 311 1060 q 435 1088 371 1088 q 560 1056 515 1088 q 606 979 606 1024 q 588 925 606 946 q 536 881 569 904 q 501 853 513 865 q 490 828 490 842 l 490 796 z "},"ư":{"ha":900,"x_min":71,"x_max":943,"o":"m 943 883 l 943 824 q 899 683 943 743 q 785 603 856 622 l 785 0 l 539 0 l 539 94 q 338 -11 471 -11 q 137 64 203 -11 q 71 293 71 139 l 71 706 l 322 706 l 322 286 q 413 182 322 182 q 498 219 465 182 q 531 319 531 257 l 531 706 l 603 706 q 700 739 672 706 q 728 853 728 772 l 728 883 l 943 883 z "},"ứ":{"ha":900,"x_min":71,"x_max":943,"o":"m 943 883 l 943 824 q 899 683 943 743 q 785 603 856 622 l 785 0 l 539 0 l 539 94 q 338 -11 471 -11 q 137 64 203 -11 q 71 293 71 139 l 71 706 l 322 706 l 322 286 q 413 182 322 182 q 498 219 465 182 q 531 319 531 257 l 531 706 l 603 706 q 700 739 672 706 q 728 853 728 772 l 728 883 l 943 883 m 353 796 l 489 1085 l 728 1085 l 504 796 l 353 796 z "},"ự":{"ha":900,"x_min":71,"x_max":943,"o":"m 943 883 l 943 824 q 899 683 943 743 q 785 603 856 622 l 785 0 l 539 0 l 539 94 q 338 -11 471 -11 q 137 64 203 -11 q 71 293 71 139 l 71 706 l 322 706 l 322 286 q 413 182 322 182 q 498 219 465 182 q 531 319 531 257 l 531 706 l 603 706 q 700 739 672 706 q 728 853 728 772 l 728 883 l 943 883 m 539 -79 l 539 -289 l 318 -289 l 318 -79 l 539 -79 z "},"ừ":{"ha":900,"x_min":71,"x_max":943,"o":"m 943 883 l 943 824 q 899 683 943 743 q 785 603 856 622 l 785 0 l 539 0 l 539 94 q 338 -11 471 -11 q 137 64 203 -11 q 71 293 71 139 l 71 706 l 322 706 l 322 286 q 413 182 322 182 q 498 219 465 182 q 531 319 531 257 l 531 706 l 603 706 q 700 739 672 706 q 728 853 728 772 l 728 883 l 943 883 m 129 1085 l 368 1085 l 504 796 l 353 796 l 129 1085 z "},"ử":{"ha":900,"x_min":71,"x_max":943,"o":"m 943 883 l 943 824 q 899 683 943 743 q 785 603 856 622 l 785 0 l 539 0 l 539 94 q 338 -11 471 -11 q 137 64 203 -11 q 71 293 71 139 l 71 706 l 322 706 l 322 286 q 413 182 322 182 q 498 219 465 182 q 531 319 531 257 l 531 706 l 603 706 q 700 739 672 706 q 728 853 728 772 l 728 883 l 943 883 m 490 796 l 371 796 l 371 829 q 383 876 371 858 q 421 915 396 893 q 443 936 436 928 q 450 954 450 944 q 440 977 450 969 q 407 985 429 985 q 343 974 374 985 l 311 1060 q 435 1088 371 1088 q 560 1056 515 1088 q 606 979 606 1024 q 588 925 606 946 q 536 881 569 904 q 501 853 513 865 q 490 828 490 842 l 490 796 z "},"ữ":{"ha":900,"x_min":71,"x_max":943,"o":"m 943 883 l 943 824 q 899 683 943 743 q 785 603 856 622 l 785 0 l 539 0 l 539 94 q 338 -11 471 -11 q 137 64 203 -11 q 71 293 71 139 l 71 706 l 322 706 l 322 286 q 413 182 322 182 q 498 219 465 182 q 531 319 531 257 l 531 706 l 603 706 q 700 739 672 706 q 728 853 728 772 l 728 883 l 943 883 m 178 832 q 224 999 178 944 q 340 1054 269 1054 q 386 1045 364 1054 q 442 1017 408 1036 q 486 993 468 1001 q 521 985 504 985 q 560 1001 544 985 q 579 1050 575 1018 l 679 1050 q 633 883 679 938 q 517 828 588 828 q 471 837 493 828 q 415 865 449 846 q 371 889 389 881 q 336 897 353 897 q 297 881 313 897 q 278 832 282 864 l 178 832 z "},"ű":{"ha":860,"x_min":71,"x_max":785,"o":"m 785 706 l 785 0 l 539 0 l 539 94 q 338 -11 471 -11 q 137 64 203 -11 q 71 293 71 139 l 71 706 l 322 706 l 322 286 q 413 182 322 182 q 498 219 465 182 q 531 319 531 257 l 531 706 l 785 706 m 274 796 l 315 1085 l 488 1085 l 378 796 l 274 796 m 479 796 l 519 1085 l 692 1085 l 583 796 l 479 796 z "},"ȗ":{"ha":860,"x_min":71,"x_max":785,"o":"m 785 706 l 785 0 l 539 0 l 539 94 q 338 -11 471 -11 q 137 64 203 -11 q 71 293 71 139 l 71 706 l 322 706 l 322 286 q 413 182 322 182 q 498 219 465 182 q 531 319 531 257 l 531 706 l 785 706 m 429 1075 q 601 1019 525 1075 q 700 861 678 964 l 593 817 q 429 924 528 924 q 264 817 329 924 l 157 863 q 256 1019 181 964 q 429 1075 332 1075 z "},"ū":{"ha":860,"x_min":71,"x_max":785,"o":"m 785 706 l 785 0 l 539 0 l 539 94 q 338 -11 471 -11 q 137 64 203 -11 q 71 293 71 139 l 71 706 l 322 706 l 322 286 q 413 182 322 182 q 498 219 465 182 q 531 319 531 257 l 531 706 l 785 706 m 206 1013 l 651 1013 l 651 863 l 206 863 l 206 1013 z "},"ṻ":{"ha":860,"x_min":71,"x_max":785,"o":"m 785 706 l 785 0 l 539 0 l 539 94 q 338 -11 471 -11 q 137 64 203 -11 q 71 293 71 139 l 71 706 l 322 706 l 322 286 q 413 182 322 182 q 498 219 465 182 q 531 319 531 257 l 531 706 l 785 706 m 206 1013 l 651 1013 l 651 863 l 206 863 l 206 1013 m 400 1308 l 400 1097 l 178 1097 l 178 1308 l 400 1308 m 679 1308 l 679 1097 l 457 1097 l 457 1308 l 679 1308 z "},"ų":{"ha":860,"x_min":71,"x_max":836,"o":"m 836 -257 q 686 -286 760 -286 q 549 -240 603 -286 q 496 -121 496 -193 q 546 0 496 -50 l 539 0 l 539 94 q 338 -11 471 -11 q 137 64 203 -11 q 71 293 71 139 l 71 706 l 322 706 l 322 286 q 413 182 322 182 q 498 219 465 182 q 531 319 531 257 l 531 706 l 785 706 l 785 0 l 768 0 q 684 -24 715 0 q 653 -87 653 -49 q 735 -160 653 -160 q 810 -143 772 -160 l 836 -257 z "},"ů":{"ha":860,"x_min":71,"x_max":785,"o":"m 785 706 l 785 0 l 539 0 l 539 94 q 338 -11 471 -11 q 137 64 203 -11 q 71 293 71 139 l 71 706 l 322 706 l 322 286 q 413 182 322 182 q 498 219 465 182 q 531 319 531 257 l 531 706 l 785 706 m 429 786 q 316 831 363 786 q 269 942 269 875 q 316 1052 269 1007 q 429 1097 363 1097 q 541 1051 494 1097 q 588 942 588 1006 q 542 831 588 875 q 429 786 496 786 m 429 879 q 470 897 454 879 q 486 942 486 915 q 470 984 486 967 q 429 1001 454 1001 q 388 984 404 1001 q 371 942 371 967 q 388 897 371 915 q 429 879 404 879 z "},"ũ":{"ha":860,"x_min":71,"x_max":785,"o":"m 785 706 l 785 0 l 539 0 l 539 94 q 338 -11 471 -11 q 137 64 203 -11 q 71 293 71 139 l 71 706 l 322 706 l 322 286 q 413 182 322 182 q 498 219 465 182 q 531 319 531 257 l 531 706 l 785 706 m 178 832 q 224 999 178 944 q 340 1054 269 1054 q 386 1045 364 1054 q 442 1017 408 1036 q 486 993 468 1001 q 521 985 504 985 q 560 1001 544 985 q 579 1050 575 1018 l 679 1050 q 633 883 679 938 q 517 828 588 828 q 471 837 493 828 q 415 865 449 846 q 371 889 389 881 q 336 897 353 897 q 297 881 313 897 q 278 832 282 864 l 178 832 z "},"ṹ":{"ha":860,"x_min":71,"x_max":785,"o":"m 785 706 l 785 0 l 539 0 l 539 94 q 338 -11 471 -11 q 137 64 203 -11 q 71 293 71 139 l 71 706 l 322 706 l 322 286 q 413 182 322 182 q 498 219 465 182 q 531 319 531 257 l 531 706 l 785 706 m 178 832 q 224 999 178 944 q 340 1054 269 1054 q 386 1045 364 1054 q 442 1017 408 1036 q 486 993 468 1001 q 521 985 504 985 q 560 1001 544 985 q 579 1050 575 1018 l 679 1050 q 633 883 679 938 q 517 828 588 828 q 471 837 493 828 q 415 865 449 846 q 371 889 389 881 q 336 897 353 897 q 297 881 313 897 q 278 832 282 864 l 178 832 m 353 1061 l 489 1350 l 728 1350 l 504 1061 l 353 1061 z "},"v":{"ha":776,"x_min":-26,"x_max":804,"o":"m 804 704 l 490 0 l 283 0 l -26 704 l 235 704 l 393 299 l 557 704 l 804 704 z "},"w":{"ha":1250,"x_min":-15,"x_max":1264,"o":"m 1264 706 l 969 0 l 763 0 l 621 350 l 488 0 l 279 0 l -15 706 l 240 706 l 397 299 l 550 706 l 711 706 l 868 290 l 1022 706 l 1264 706 z "},"ẃ":{"ha":1250,"x_min":-15,"x_max":1264,"o":"m 1264 706 l 969 0 l 763 0 l 621 350 l 488 0 l 279 0 l -15 706 l 240 706 l 397 299 l 550 706 l 711 706 l 868 290 l 1022 706 l 1264 706 m 547 796 l 683 1085 l 922 1085 l 699 796 l 547 796 z "},"ŵ":{"ha":1250,"x_min":-15,"x_max":1264,"o":"m 1264 706 l 969 0 l 763 0 l 621 350 l 488 0 l 279 0 l -15 706 l 240 706 l 397 299 l 550 706 l 711 706 l 868 290 l 1022 706 l 1264 706 m 361 796 l 550 1085 l 696 1085 l 885 796 l 696 796 l 624 943 l 550 796 l 361 796 z "},"ẅ":{"ha":1250,"x_min":-15,"x_max":1264,"o":"m 1264 706 l 969 0 l 763 0 l 621 350 l 488 0 l 279 0 l -15 706 l 240 706 l 397 299 l 550 706 l 711 706 l 868 290 l 1022 706 l 1264 706 m 594 1043 l 594 832 l 372 832 l 372 1043 l 594 1043 m 874 1043 l 874 832 l 651 832 l 651 1043 l 874 1043 z "},"ẁ":{"ha":1250,"x_min":-15,"x_max":1264,"o":"m 1264 706 l 969 0 l 763 0 l 621 350 l 488 0 l 279 0 l -15 706 l 240 706 l 397 299 l 550 706 l 711 706 l 868 290 l 1022 706 l 1264 706 m 324 1085 l 563 1085 l 699 796 l 547 796 l 324 1085 z "},"x":{"ha":788,"x_min":-50,"x_max":838,"o":"m 838 0 l 543 0 l 393 189 l 243 0 l -50 0 l 251 364 l -32 706 l 263 706 l 393 536 l 522 706 l 819 706 l 536 364 l 838 0 z "},"y":{"ha":776,"x_min":-26,"x_max":804,"o":"m 804 706 l 481 -25 q 320 -234 417 -168 q 82 -317 224 -300 l 24 -125 q 169 -75 121 -106 q 243 10 218 -44 l 261 49 l -26 706 l 235 706 l 393 299 l 557 706 l 804 706 z "},"ý":{"ha":776,"x_min":-26,"x_max":804,"o":"m 804 706 l 481 -25 q 320 -234 417 -168 q 82 -317 224 -300 l 24 -125 q 169 -75 121 -106 q 243 10 218 -44 l 261 49 l -26 706 l 235 706 l 393 299 l 557 706 l 804 706 m 311 796 l 447 1085 l 686 1085 l 463 796 l 311 796 z "},"ŷ":{"ha":776,"x_min":-26,"x_max":804,"o":"m 804 706 l 481 -25 q 320 -234 417 -168 q 82 -317 224 -300 l 24 -125 q 169 -75 121 -106 q 243 10 218 -44 l 261 49 l -26 706 l 235 706 l 393 299 l 557 706 l 804 706 m 125 796 l 314 1085 l 460 1085 l 649 796 l 460 796 l 388 943 l 314 796 l 125 796 z "},"ÿ":{"ha":776,"x_min":-26,"x_max":804,"o":"m 804 706 l 481 -25 q 320 -234 417 -168 q 82 -317 224 -300 l 24 -125 q 169 -75 121 -106 q 243 10 218 -44 l 261 49 l -26 706 l 235 706 l 393 299 l 557 706 l 804 706 m 358 1043 l 358 832 l 136 832 l 136 1043 l 358 1043 m 638 1043 l 638 832 l 415 832 l 415 1043 l 638 1043 z "},"ẏ":{"ha":776,"x_min":-26,"x_max":804,"o":"m 804 706 l 481 -25 q 320 -234 417 -168 q 82 -317 224 -300 l 24 -125 q 169 -75 121 -106 q 243 10 218 -44 l 261 49 l -26 706 l 235 706 l 393 299 l 557 706 l 804 706 m 518 1051 l 518 825 l 256 825 l 256 1051 l 518 1051 z "},"ỵ":{"ha":776,"x_min":-26,"x_max":804,"o":"m 804 706 l 481 -25 q 320 -234 417 -168 q 82 -317 224 -300 l 24 -125 q 169 -75 121 -106 q 243 10 218 -44 l 261 49 l -26 706 l 235 706 l 393 299 l 557 706 l 804 706 m 732 -79 l 732 -289 l 511 -289 l 511 -79 l 732 -79 z "},"ỳ":{"ha":776,"x_min":-26,"x_max":804,"o":"m 804 706 l 481 -25 q 320 -234 417 -168 q 82 -317 224 -300 l 24 -125 q 169 -75 121 -106 q 243 10 218 -44 l 261 49 l -26 706 l 235 706 l 393 299 l 557 706 l 804 706 m 88 1085 l 326 1085 l 463 796 l 311 796 l 88 1085 z "},"ỷ":{"ha":776,"x_min":-26,"x_max":804,"o":"m 804 706 l 481 -25 q 320 -234 417 -168 q 82 -317 224 -300 l 24 -125 q 169 -75 121 -106 q 243 10 218 -44 l 261 49 l -26 706 l 235 706 l 393 299 l 557 706 l 804 706 m 449 796 l 329 796 l 329 829 q 342 876 329 858 q 379 915 354 893 q 401 936 394 928 q 408 954 408 944 q 398 977 408 969 q 365 985 388 985 q 301 974 332 985 l 269 1060 q 393 1088 329 1088 q 519 1056 474 1088 q 564 979 564 1024 q 546 925 564 946 q 494 881 528 904 q 460 853 471 865 q 449 828 449 842 l 449 796 z "},"ȳ":{"ha":776,"x_min":-26,"x_max":804,"o":"m 804 706 l 481 -25 q 320 -234 417 -168 q 82 -317 224 -300 l 24 -125 q 169 -75 121 -106 q 243 10 218 -44 l 261 49 l -26 706 l 235 706 l 393 299 l 557 706 l 804 706 m 164 1013 l 610 1013 l 610 863 l 164 863 l 164 1013 z "},"ỹ":{"ha":776,"x_min":-26,"x_max":804,"o":"m 804 706 l 481 -25 q 320 -234 417 -168 q 82 -317 224 -300 l 24 -125 q 169 -75 121 -106 q 243 10 218 -44 l 261 49 l -26 706 l 235 706 l 393 299 l 557 706 l 804 706 m 136 832 q 182 999 136 944 q 299 1054 228 1054 q 344 1045 322 1054 q 400 1017 367 1036 q 444 993 426 1001 q 479 985 463 985 q 518 1001 503 985 q 538 1050 533 1018 l 638 1050 q 592 883 638 938 q 475 828 546 828 q 429 837 451 828 q 374 865 407 846 q 329 889 347 881 q 294 897 311 897 q 256 881 271 897 q 236 832 240 864 l 136 832 z "},"z":{"ha":743,"x_min":65,"x_max":700,"o":"m 700 186 l 700 0 l 65 0 l 65 176 l 385 521 l 67 521 l 67 706 l 686 706 l 686 540 l 358 186 l 700 186 z "}}}
